<svg width="79" height="77" viewBox="0 0 79 77" fill="none" xmlns="http://www.w3.org/2000/svg">
<g id="Frame" opacity="0.5" clip-path="url(#clip0_27_474)">
<g id="Group">
<path id="Vector" d="M74.8704 47.255C74.714 48.4494 74.1162 49.4142 73.4632 50.4065C72.479 51.895 71.6697 53.4386 71.2374 55.1752C70.9339 56.4064 70.8235 57.4263 69.8302 58.3359C68.9105 59.1813 67.8252 59.7877 66.8135 60.5044C66.0041 61.074 65.5718 61.6621 65.1855 62.5625C64.974 63.0679 64.7257 63.564 64.3946 64.0051C63.0242 65.806 61.7641 68.0938 59.5292 68.9299C57.9012 69.5455 55.9974 69.7018 54.3327 69.1321C53.4957 68.8472 52.7599 68.4246 52.1437 67.7906C51.8862 67.5241 51.6562 67.2026 51.4999 66.8718C51.2607 66.3664 50.5617 66.7891 50.0927 66.8167C48.989 66.8902 47.7382 66.5594 46.7816 65.9805C45.8711 65.4292 45.54 64.538 44.841 63.7662C44.8226 63.7478 44.8134 63.7202 44.8042 63.7019C43.4706 63.1046 41.5575 62.8473 40.6102 61.6161C40.1503 61.0189 40.1963 60.5319 40.2975 59.8244C40.4171 59.0251 40.3895 58.6851 39.5249 58.5748C39.065 58.5197 38.6144 58.4646 38.1545 58.3727C35.1838 57.7479 32.1302 57.2609 29.2239 56.3513C27.7063 55.8827 26.2255 55.3038 24.708 54.8169C23.6319 54.4769 22.5006 54.1645 21.5441 53.5305C20.9554 53.1354 20.284 52.4647 19.4931 52.6301C18.9872 52.7403 18.5457 52.9241 18.0675 53.0987C17.4145 53.3467 16.835 53.5029 16.136 53.5121C14.7012 53.5213 13.6527 52.6576 12.4019 52.1247C11.8409 51.8858 11.3074 51.7021 10.8659 51.2794C10.5348 50.9578 10.5808 50.2871 9.91862 50.5995C9.04487 51.0221 7.82162 51.1508 6.89268 50.8292C5.89937 50.4892 4.64853 49.6255 4.09669 48.7159C3.3517 47.4939 3.18615 45.9319 2.40437 44.7282C1.65939 43.5889 1.595 42.2198 1.13513 40.9427C0.739647 39.8585 0.656876 38.7926 0.877609 37.6717C1.14433 36.321 1.46625 35.3838 2.41357 34.3547C2.91023 33.8126 3.77478 33.6013 3.55405 32.609C3.43448 32.0669 3.31491 31.5339 3.48966 30.9918C3.91274 29.6412 5.00723 28.7499 5.52228 27.4727C5.96375 26.361 5.84418 25.24 6.92947 24.4958C7.86761 23.8526 8.97128 23.3472 8.60339 21.9966C8.47463 21.5096 8.37346 21.0869 8.41945 20.5724C8.54821 19.2034 8.85172 18.1008 9.71627 17.0074C10.075 16.5572 10.4888 15.9507 11.0591 15.7486C11.1786 15.7026 11.3166 15.721 11.4362 15.7394C12.2547 15.8497 11.9236 15.2157 11.9328 14.8849C11.9512 13.6996 12.3559 12.349 12.8618 11.2739C13.3216 10.3 14.039 9.31684 15.0783 8.91256C15.7773 8.6461 16.6695 8.52666 17.2673 8.04887C17.7824 7.6354 18.233 7.14843 18.7205 6.6982C19.4379 6.03665 20.33 5.28322 21.3785 5.29241C22.2983 5.29241 23.034 5.58643 23.6411 4.60329C23.917 4.16226 24.2665 3.75798 24.662 3.41801C25.6185 2.58189 26.667 1.90196 27.9914 2.13166C29.2331 2.35218 30.3735 2.91266 31.5876 3.22506C32.121 3.34451 32.9948 3.67528 33.3259 2.91266C33.3995 2.74728 33.473 2.51757 33.5834 2.37056C33.9605 1.88358 34.3192 1.73657 34.8435 1.43336C35.8552 0.826939 36.8485 0.248082 38.0809 0.468599C38.8259 0.597234 39.6261 0.698304 40.2883 1.0934C41.2632 1.68144 41.9714 1.98465 43.1579 1.69982C44.657 1.34148 46.193 1.18528 47.7014 0.826939C49.3017 0.450223 50.7733 0.753434 52.3276 1.2496C53.7716 1.70901 55.2156 2.14085 56.5216 2.94023C57.8368 3.74879 58.8486 4.833 60.035 5.80695C61.341 6.88197 62.8862 7.25869 64.3394 8.07644C65.5994 8.79312 66.8595 9.62005 67.7884 10.7502C68.7173 11.8804 68.9657 13.0932 69.4163 14.4531C69.4623 14.5817 69.3887 14.6828 69.2968 14.7379C71.1546 15.8313 72.8745 17.1084 74.3277 18.7531C74.8979 19.3963 75.4774 20.1865 75.5418 21.0778C75.6061 21.9414 75.1003 23.1727 75.7257 23.8802C76.5627 24.8357 77.5284 25.3962 78.117 26.5631C78.5585 27.4268 79.0919 28.3272 78.9448 29.3379C78.5769 31.828 77.9239 33.7759 76.3235 35.7421C76.25 35.8248 76.158 35.8432 76.0752 35.8156C75.321 36.5507 75.9281 37.3225 76.0384 38.1678C76.0936 38.6272 76.0936 39.0775 75.9924 39.5277C75.7073 40.8508 75.1647 42.0544 74.7048 43.3224C74.3185 44.3882 74.3645 45.0774 74.7324 46.1248C74.8336 46.4831 74.9255 46.8507 74.8704 47.255Z" fill="white"/>
<path id="Vector_2" d="M64.1371 57.068C63.9715 58.2716 63.4565 58.9056 62.27 59.2364C61.4882 59.4569 60.4857 59.5304 60.0351 60.3022C59.8235 60.6606 59.612 61.0005 59.2809 61.267C58.9406 61.5426 58.5359 61.708 58.2048 61.9745C57.9381 62.1858 57.8185 62.4339 57.5794 62.6544C57.1931 63.0036 56.816 63.0954 56.2917 63.0863C55.0409 63.0587 53.7073 62.2226 52.6956 61.5702C51.923 61.0648 51.3712 60.3574 51.1688 59.4293C50.9849 58.6116 50.9113 57.7847 50.8377 56.9485C50.7365 55.8276 50.1295 55.4233 49.0626 55.212C47.0944 54.8261 44.8226 55.3957 42.9556 56.0113C41.484 56.4891 39.8928 57.022 38.6696 58.0052C37.0969 59.2915 35.938 60.7065 34.9263 62.4431C34.0985 63.8672 33.1052 65.2179 32.1579 66.5594C31.0358 68.149 30.0701 69.8947 29.1319 71.5945C28.4881 72.7614 27.8903 73.9467 26.9154 74.8747C26.1888 75.573 24.8368 76.3357 23.7883 76.0141C22.4455 75.6098 21.167 74.939 19.9162 74.3142C19.2264 73.9743 18.4998 73.6159 17.9112 73.1106C17.3593 72.6512 16.9362 72.0631 16.3844 71.6129C15.4739 70.8595 14.2782 70.2255 13.6804 69.1688C13.0826 68.0938 12.4847 66.9269 12.8894 65.6773C13.3125 64.3634 14.0115 63.2241 14.7749 62.0847C15.8234 60.5136 16.9362 59.0159 18.1135 57.5458C19.2264 56.1492 19.999 54.6607 20.9187 53.1446C21.3326 52.4739 21.8936 51.9318 22.3535 51.2978C22.9145 50.5168 23.1077 49.6531 23.1996 48.7067C23.2732 47.9533 23.356 47.2182 23.494 46.474C23.6963 45.3806 23.5583 44.4618 23.1353 43.4419C22.7398 42.4863 22.3903 41.494 21.4429 40.9427C20.8727 40.6119 20.3301 40.2811 19.7874 39.9044C18.371 38.9121 16.366 38.9213 14.6277 39.004C14.5633 39.0683 14.4805 39.0958 14.3794 39.0315C14.3702 39.0223 14.361 39.0223 14.3518 39.0131C14.3058 39.0131 14.269 39.0131 14.223 39.0223C14.0667 39.0315 13.9839 38.9121 13.9747 38.7834C13.1653 38.2781 12.3652 37.6257 12.5123 36.5599C12.5951 35.9443 12.7606 35.4114 13.1285 34.906C13.3769 34.5661 13.8827 34.4466 14.2966 34.2996C14.177 34.0515 14.1494 33.7575 14.4622 33.5921C15.2439 33.1694 16.1269 33.1786 16.9178 32.7284C17.6077 32.3333 18.7573 32.3609 19.5299 32.2047C20.0266 32.1036 20.5324 32.0577 21.0291 31.9658C21.7005 31.8372 21.0567 31.1297 20.9555 30.8356C20.698 30.0455 20.5968 29.0899 20.7348 28.2629C20.9003 27.2614 21.5809 26.508 21.6729 25.5065C21.8384 23.8067 23.1721 23.3013 24.6804 23.2278C25.1403 23.044 25.5542 22.9981 26.06 23.0165C27.2281 23.0624 28.0099 23.3564 28.5893 24.3671C29.2515 25.534 29.9597 26.6826 30.3276 27.9781C30.4656 28.4559 30.5943 28.9429 30.8151 29.3931C30.8794 29.5217 31.5692 30.8173 31.7532 29.7514C31.8911 28.9521 32.0015 28.1435 32.1395 27.3441C32.443 25.5249 32.2223 23.8342 32.0935 22.0241C32.0107 20.9216 30.6679 17.0533 33.2248 17.77C33.6203 17.8803 34.1169 17.9997 34.402 18.3121C34.8895 18.8358 35.0734 19.479 35.7632 19.8557C36.2691 20.1314 37.6671 20.3519 37.5199 21.2156C37.2716 22.7133 39.341 22.8511 40.3067 22.5295C40.7022 22.4009 41.2173 22.162 41.6495 22.2355C42.7348 22.4101 42.882 23.4208 43.2407 24.3028C43.6362 25.286 44.3536 26.0761 45.2825 26.5907C46.0183 26.995 46.8552 27.0133 47.6186 27.3349C48.9522 27.8954 49.8904 29.1083 51.224 29.6595C52.0058 29.9811 53.0359 30.1925 53.8912 30.1649C54.8753 30.1373 54.9489 29.6228 55.4916 29.0623C56.025 28.5018 56.7792 28.4375 57.4322 28.8602C58.3611 29.4482 57.7541 30.8724 58.1588 31.681C58.6371 32.6365 58.8578 33.2613 58.0392 34.0699C56.5861 35.4941 56.816 37.7452 57.3494 39.5736C57.6529 40.6211 57.7541 41.5307 56.9999 42.4128C56.3929 43.1387 54.8386 44.5444 55.9974 45.5C56.5401 45.9411 57.2115 46.1616 57.7909 46.5383C58.1404 46.768 58.6922 47.3652 58.306 47.8063C57.9197 48.2473 57.423 48.3943 56.8804 48.5689C56.5033 48.6883 55.3996 48.9456 55.9974 49.7633C56.2733 50.1493 56.5769 50.4617 56.9539 50.7465C57.5426 51.1875 58.1864 51.5734 58.729 52.0696C59.3361 52.6301 59.9523 53.3927 60.6881 53.797C62.2332 54.6239 64.459 54.7801 64.1371 57.068Z" fill="white"/>
<g id="Group_2">
<path id="Vector_3" d="M10.2405 51.1508C9.18285 51.5826 8.11595 51.601 6.95708 51.4999C6.07413 51.2427 5.25558 50.7373 4.54738 50.039C3.96795 49.4693 3.58166 48.817 3.55406 47.99C3.55406 47.8981 3.50807 47.8063 3.47128 47.6776C1.23633 46.4372 0.666092 44.4434 1.06158 41.9993C0.702881 41.494 0.298195 40.9794 0.197029 40.3087C0.169434 40.1157 0.0958557 39.9228 0.105057 39.7298C0.132645 38.8202 0.0590668 37.9106 0.233818 37.0101C0.436157 35.981 1.04318 35.1725 1.61342 34.3455C1.73299 34.1618 1.96292 34.0515 2.13767 33.9137C2.47797 33.6564 2.81828 33.4083 3.18616 33.1327C3.10339 32.9673 2.96543 32.756 2.90105 32.5171C2.81828 32.2414 2.78149 31.9474 2.7355 31.6534C2.69871 31.3961 2.64352 31.1389 2.63433 30.8816C2.62513 30.7254 2.68031 30.56 2.7355 30.413C2.91945 29.8893 3.03902 29.3196 3.33333 28.8786C3.60925 28.4651 4.08751 28.1803 4.4738 27.8311C4.62096 27.7025 4.76812 27.5738 4.94287 27.436C5.04404 25.1298 6.15691 23.531 8.37348 22.7041C8.20792 22.4376 8.04237 22.2447 7.9412 22.015C7.82163 21.7118 7.75726 21.3902 7.67448 21.0778C7.5825 20.7286 7.48134 20.3886 7.42616 20.0395C7.37096 19.7179 7.279 19.3688 7.37097 19.0747C7.67448 18.0181 7.88602 16.9155 8.6862 16.0702C8.96211 15.7762 9.27482 15.5557 9.66111 15.4454C10.029 15.3351 10.4061 15.2433 10.82 15.133C10.8752 14.8482 10.9855 14.5633 10.9671 14.2877C10.9211 13.6537 11.0867 13.084 11.2706 12.4868C11.5006 11.7242 11.8777 11.0534 12.2272 10.3551C12.8894 9.02283 13.9747 8.20508 15.3727 7.76405C16.2372 7.4884 17.1018 7.20357 17.9939 6.91873C18.417 6.04585 19.0792 5.3843 19.9162 4.89733C20.7991 4.38279 21.7464 4.59412 22.7214 4.67681C22.9237 4.42873 23.1444 4.18065 23.3376 3.92338C24.1653 2.82079 25.269 2.21437 26.6302 2.03061C27.5776 1.90197 28.5065 1.90197 29.4354 2.15924C29.9045 2.28788 30.3828 2.39813 30.8058 2.26031C31.4129 2.4992 31.7348 3.11481 32.4154 3.10563C32.5073 3.02293 32.6177 2.94024 32.6821 2.83917C33.142 2.1133 33.8318 1.59876 34.4572 1.03828C35.1654 0.395104 36.0667 0.0735169 37.0508 0.0275759C38.1361 -0.0275534 39.203 0.11027 40.2331 0.395104C40.7574 0.542116 41.2632 0.808574 41.7323 1.09341C42.2933 1.43337 42.8268 1.55282 43.489 1.34149C44.1972 1.11178 44.9514 1.0199 45.678 0.863703C45.9907 0.790197 46.3034 0.698315 46.6161 0.62481C47.8301 0.358351 49.0718 0.284846 50.3042 0.31241C50.9205 0.330787 51.5367 0.413481 52.1161 0.670751C52.3461 0.781009 52.6036 0.845327 52.8611 0.891268C53.6337 1.03828 54.3603 1.3323 55.0593 1.66308C55.7399 1.98466 56.4021 2.33382 57.0827 2.63703C58.214 3.15157 59.0601 3.98769 59.7867 4.96164C60.6789 6.15611 60.5133 6.06423 62.0677 6.40419C62.0953 6.41338 62.132 6.42257 62.1596 6.42257C63.5852 6.52364 64.7533 7.22194 65.8938 8.00294C66.1605 8.18671 66.418 8.39804 66.6387 8.62774C67.0894 9.09634 67.5401 9.56494 67.954 10.0703C68.2207 10.3919 68.4966 10.741 68.6438 11.1269C69.0025 12.0274 69.4623 12.9003 69.6739 13.8558C69.6831 13.9201 69.7291 13.9753 69.7658 14.058C70.2349 14.4714 70.7408 14.8665 71.3294 15.1606C72.0192 15.5097 72.709 15.8864 73.2241 16.5112C73.362 16.6858 73.5828 16.7869 73.7575 16.9339C73.9323 17.0809 74.1254 17.2279 74.2358 17.4117C74.7968 18.2937 75.367 19.1574 75.6889 20.1681C75.9097 20.8664 76.0109 21.5556 75.8453 22.2814C75.7901 22.5295 75.7533 22.7868 75.6981 23.044C76.3696 23.6229 77.0042 24.1742 77.6388 24.7347C77.602 24.9368 77.5744 25.093 77.5376 25.2676C78.1262 25.9751 78.3286 26.8847 78.7241 27.6933C79.0368 28.3365 79.0092 29.0991 78.9816 29.8066C78.954 30.5784 79.0276 31.3686 78.6413 32.1036C78.5585 32.2598 78.6413 32.4987 78.5769 32.6733C78.4022 33.2246 78.255 33.8034 77.8779 34.272C77.74 34.4466 77.5744 34.6304 77.51 34.8325C77.2709 35.6135 76.7834 36.2016 76.1764 36.7161C76.0752 36.7988 75.9925 36.8907 75.8913 37.0009C75.9005 37.4971 76.0292 37.9657 76.1304 38.4435C76.3604 39.5461 76.3696 40.6578 75.9833 41.7237C75.7073 42.4771 75.2843 43.1846 74.9164 43.9105C74.8428 44.0575 74.7324 44.1769 74.6588 44.2872C74.8152 44.7466 74.9899 45.1693 75.0911 45.6011C75.2475 46.2994 75.2751 47.0069 75.1003 47.7236C74.9256 48.4219 74.8336 49.1294 74.714 49.8369C74.6404 50.2963 74.4657 50.7189 74.199 51.0956C73.5736 51.9685 72.9297 52.823 72.056 53.4846C71.9824 53.5397 71.918 53.6224 71.8169 53.7419C71.8261 53.9256 71.8077 54.1553 71.8353 54.3758C71.9364 55.1385 71.872 55.8551 71.4582 56.5443C71.2098 56.9577 71.0443 57.4263 70.8879 57.8857C70.7132 58.3911 70.4189 58.8046 70.0694 59.1996C69.1588 60.2195 68.0275 60.8995 66.7583 61.3773C66.5468 61.46 66.326 61.5243 66.0593 61.6161C65.8754 62.0847 65.7006 62.5717 65.4983 63.0403C65.2683 63.5824 65.0844 64.1521 64.7533 64.6299C64.1187 65.5395 63.5944 66.5227 62.7851 67.2945C61.525 68.5073 60.127 69.4445 58.3519 69.7753C57.4414 69.9407 56.54 69.9774 55.6295 69.9774C55.4088 69.9774 55.1696 69.9315 54.9581 69.8672C54.4614 69.7202 53.9464 69.5915 53.4681 69.3894C52.7047 69.077 52.0977 68.5257 51.5551 67.9101C51.3435 67.6712 51.1228 67.4323 50.8929 67.1658C49.5409 67.4323 48.29 67.1474 47.0484 66.6972C46.0459 66.3297 45.3469 65.6498 44.887 64.7126C44.7582 64.4553 44.6479 64.1797 44.5375 63.9132C43.7373 63.7294 42.9464 63.564 42.1646 63.3619C41.208 63.1138 40.4447 62.5901 39.9204 61.754C39.5157 61.1108 39.3226 60.4584 39.7733 59.7417C39.948 59.4661 40.0308 59.1445 40.1871 58.8597C40.3251 58.6116 40.5734 58.5289 40.8585 58.5657C41.1805 58.6024 41.2816 58.8229 41.346 59.1629C41.2264 59.3467 41.0793 59.5488 40.9597 59.7785C40.6102 60.4217 40.7206 60.9178 41.1897 61.3681C41.7323 61.8826 42.3945 62.1123 43.0843 62.3236C43.489 62.4431 43.8937 62.5533 44.4271 62.7095C44.7582 62.6544 45.2641 62.3788 45.6872 63.0311C45.8067 63.5089 45.8895 64.1337 46.3034 64.685C47.0944 65.3282 48.0693 65.6865 49.127 65.7968C49.6788 65.8611 50.2307 65.8427 50.7457 65.5671C50.8285 65.5211 50.9205 65.4752 51.0124 65.4476C51.4539 65.319 51.923 65.4752 52.0701 65.907C52.2541 66.4675 52.668 66.8259 53.0175 67.2485C53.4497 67.7814 54.0108 68.0755 54.6638 68.2317C55.142 68.3419 55.6203 68.4246 56.1078 68.5073C57.2758 68.7003 58.3795 68.3879 59.4464 67.9744C60.0166 67.7539 60.5593 67.4323 61.1111 67.1566C61.2215 67.1015 61.3411 67.028 61.4238 66.9269C62.5919 65.659 63.7692 64.391 64.321 62.7004C64.5417 62.0204 64.7349 61.3313 64.9372 60.6514C64.9832 60.4952 65.0384 60.3482 65.0752 60.2287C65.1764 60.1736 65.2316 60.1185 65.2867 60.1185C66.418 60.1552 67.3837 59.7418 68.2575 59.0618C69.0117 58.4738 69.6831 57.8306 69.9498 56.8658C70.1061 56.3054 70.3361 55.7633 70.5108 55.2028C70.6212 54.8536 70.6028 54.4953 70.4097 54.1645C70.3637 54.0818 70.3453 53.9807 70.2993 53.898C69.9866 53.3192 70.0234 52.823 70.8143 52.4831C71.403 52.235 71.8445 51.8123 72.3135 51.4172C73.0125 50.8292 73.4264 50.0482 73.6195 49.1753C73.8219 48.2565 73.969 47.3193 74.1254 46.4648C73.9506 45.9502 73.7943 45.5184 73.6379 45.0682C73.4356 44.9212 73.2333 44.765 72.9757 44.572C72.9021 44.3056 72.8102 44.0023 72.7366 43.7543C72.9205 43.0468 73.546 43.2213 74.0426 42.9549C74.6496 42.1647 75.1555 41.2551 75.1279 40.1065C75.1095 39.3256 75.0727 38.5537 74.898 37.7819C74.714 36.9826 74.2726 36.3578 73.6655 35.8432C73.4724 35.6778 73.27 35.5216 73.1045 35.3838C72.9849 35.0255 73.0309 34.759 73.2333 34.5201C73.4908 34.3639 73.7483 34.3823 73.969 34.5569C74.2542 34.7774 74.5117 35.0163 74.7784 35.2644C74.944 35.4206 75.0819 35.5951 75.2107 35.7421C75.7073 35.7054 75.9557 35.3654 76.158 35.053C76.9122 33.8678 77.5652 32.6273 77.74 31.2032C77.8411 30.3946 77.8595 29.5769 77.7308 28.7775C77.648 28.2721 77.4089 27.7943 77.2065 27.3166C76.9858 26.8112 76.7466 26.3059 76.4707 25.8281C76.2776 25.4881 76.0752 25.1298 75.7809 24.8909C74.9532 24.2109 74.1346 23.5035 73.1045 23.1175C72.4791 22.8878 72.3963 22.6214 72.663 21.9874C72.6906 21.9323 72.7366 21.8771 72.7734 21.8312C73.3988 21.5096 73.7759 22.1344 74.2818 22.2722C74.668 21.6474 74.5301 21.0502 74.2542 20.4805C73.9874 19.9201 73.6931 19.3779 73.362 18.8542C72.6538 17.7149 71.5777 16.989 70.4373 16.3366C70.2441 16.2264 70.0418 16.1069 69.821 16.0426C69.2324 15.868 68.8185 15.4546 68.469 15.0687C68.2483 14.352 68.0643 13.6996 67.8528 13.0565C67.2642 11.2923 66.1329 9.94165 64.5969 8.92176C63.9347 8.48073 63.2357 8.17752 62.4356 8.05807C61.7917 7.96619 61.1571 7.83755 60.5225 7.70892C60.265 7.66298 60.0166 7.59866 59.7683 7.51597C59.6488 7.47921 59.5476 7.38733 59.4096 7.30464C59.1337 6.58796 58.7474 5.92641 58.2048 5.33836C57.5885 4.686 56.8895 4.17146 56.0986 3.77637C55.3996 3.42721 54.6914 3.09644 53.9648 2.80242C53.367 2.56352 52.7415 2.37057 52.1161 2.18681C51.5919 2.03061 51.0492 1.93872 50.5066 1.81009C49.7708 1.63551 49.0258 1.66308 48.2808 1.73658C46.892 1.89278 45.5032 2.05817 44.1788 2.57271C43.8753 2.69216 43.5442 2.71972 43.2223 2.77485C42.6888 2.85754 42.229 2.76566 41.7507 2.45326C40.4631 1.61714 39.0375 1.22204 37.4831 1.37824C36.9037 1.43337 36.2967 1.42418 35.7816 1.72739C35.2758 2.02142 34.7975 2.37057 34.3468 2.74729C34.0065 3.04131 33.7398 3.41803 33.4639 3.73042C33.5191 4.19902 34.1077 4.40116 33.9145 4.9157C33.6846 5.19135 33.3995 5.1546 33.1236 4.9984C32.7557 4.78707 32.4062 4.54818 32.0659 4.30009C31.4864 3.85906 30.8702 3.5191 30.162 3.35371C30.0333 3.32614 29.9045 3.29858 29.7849 3.25264C28.5341 2.75647 27.2832 2.94024 26.06 3.29858C25.4806 3.46397 24.9563 3.80393 24.5332 4.30928C23.7055 5.29242 23.1904 6.37663 23.2548 7.69054C23.2824 7.87431 23.2364 8.06726 23.218 8.2694C23.1168 8.36128 23.0341 8.47154 22.9237 8.52667C22.5374 8.71043 22.2891 8.63693 22.0867 8.32453C21.8476 7.94781 21.7648 7.53434 21.9028 7.11169C22.0224 6.73497 22.0867 6.35825 22.0224 5.97235C20.7163 5.3843 19.8518 6.35825 19.2448 7.77324C18.978 7.88349 18.6561 8.02132 18.3158 8.14076C17.3593 8.47154 16.412 8.80232 15.4463 9.11472C14.83 9.31686 14.3518 9.70276 13.9931 10.2173C13.6344 10.7227 13.34 11.2648 13.0365 11.8069C12.8618 12.1193 12.7698 12.4776 12.6043 12.79C12.2732 13.424 12.2272 14.0947 12.3283 14.7838C12.3835 15.1697 12.4663 15.5465 12.5399 15.9783C12.3835 16.1621 12.1904 16.3366 12.0616 16.5572C11.9513 16.7409 11.9053 16.9706 11.8409 17.1544C11.5926 17.2555 11.5006 17.1176 11.4086 16.989C11.289 16.8052 11.1695 16.6215 11.0407 16.4285C9.99222 16.4745 9.50475 17.1636 9.16445 17.9538C8.89773 18.5786 8.74137 19.2585 8.79655 19.9476C8.82415 20.3611 8.97131 20.7654 9.08168 21.1696C9.14606 21.381 9.24722 21.5923 9.32081 21.7761C9.21964 21.969 9.12766 22.1344 9.04489 22.2814C9.12766 22.3549 9.18285 22.4284 9.22884 22.4284C9.6795 22.4101 10.1394 22.3549 10.59 22.3549C11.0407 22.3549 11.5006 22.3825 11.9512 22.4376C12.2824 22.4836 12.5675 22.6398 12.7238 23.0349C12.6227 23.1635 12.5123 23.3197 12.3927 23.4759C11.7949 23.4759 11.2155 23.4759 10.636 23.4759C9.79906 23.4759 9.03569 23.724 8.28151 24.0639C7.62849 24.358 7.15023 24.8357 6.82832 25.4605C6.46043 26.1864 6.12933 26.9398 6.35006 27.7576C5.82581 28.2078 5.82581 28.2078 5.66026 28.5662C5.40273 28.704 5.12681 28.8142 4.89688 28.9888C4.24387 29.4758 3.96794 30.1557 3.99554 30.9459C4.01393 31.3961 4.0967 31.8463 4.16109 32.3609C4.1151 32.4711 4.03233 32.6365 3.94955 32.8111C4.01393 32.8479 4.06911 32.9214 4.1151 32.9122C4.85089 32.7284 5.59588 32.7652 6.38686 32.8019C6.77314 33.0592 6.75475 33.3992 6.47883 33.8402C6.24889 33.8402 5.99136 33.8494 5.74303 33.831C4.18868 33.7116 2.58834 34.6212 1.90774 36.027C1.88014 36.0821 1.84335 36.1464 1.83415 36.2107C1.58583 37.3225 1.30071 38.4251 1.42028 39.5828C1.46626 39.9871 1.60423 40.3363 1.91694 40.667C2.64352 40.4833 3.31493 39.9044 4.29905 40.3454C4.33584 40.3822 4.51979 40.5568 4.67614 40.7038C4.72213 41.0437 4.55658 41.1908 4.31744 41.2459C4.1335 41.2918 3.93115 41.2643 3.73801 41.2918C3.0574 41.4021 2.54236 41.8707 2.4044 42.5506C2.13767 43.8094 2.41359 44.9395 3.29654 45.8951C3.4437 46.0513 3.66443 46.1708 3.87597 46.2351C4.26226 46.3545 4.58417 46.5567 4.90607 46.8966C4.90607 47.1447 4.88768 47.4296 4.89688 47.7144C4.90607 48.2565 5.10841 48.7067 5.48551 49.1202C6.23969 49.9287 7.21461 50.1217 8.24471 50.1217C9.23803 50.1217 10.0842 49.7725 10.728 48.9732C10.9487 48.6975 11.2247 48.4678 11.4178 48.2749C11.8133 48.2289 11.9513 48.4035 11.9604 48.6608C11.9972 49.258 11.9145 49.8369 11.4362 50.2963C11.9697 51.6286 13.0825 52.2901 14.361 52.6485C15.7038 53.016 16.927 52.4923 18.0583 51.8491C18.4906 51.8307 18.8677 51.8583 19.1712 52.042C19.3459 52.2901 19.3183 52.4923 19.1344 52.6025C18.4354 53.016 17.7272 53.4203 17.0098 53.7786C16.3844 54.091 15.7038 54.1737 15.014 54.0359C14.4713 53.9256 13.9195 53.8429 13.386 53.7143C12.3559 53.457 11.6201 52.7771 10.9763 51.9777C10.7464 51.6929 10.4981 51.4448 10.2405 51.1508Z" fill="black"/>
<path id="Vector_4" d="M49.7524 54.6055C49.6237 54.578 49.5041 54.5137 49.3845 54.4769C48.4464 54.1369 47.4991 53.9991 46.515 54.2839C46.1747 54.385 45.816 54.4218 45.4573 54.4677C44.5559 54.5872 43.673 54.7617 42.8084 55.0925C41.8887 55.4417 41.0057 55.8184 40.2699 56.4983C40.0124 56.7372 39.6721 56.8934 39.3686 57.0772C39.1755 57.1966 38.9547 57.2793 38.78 57.4263C37.9614 58.1246 37.1336 58.8137 36.3611 59.558C35.6345 60.2563 34.9539 60.9913 34.3469 61.8183C33.9054 62.4247 33.3811 62.9576 33.0592 63.6467C32.9948 63.7937 32.8753 63.9132 32.7833 64.051C32.2774 64.8044 31.7072 65.5211 31.3577 66.3756C31.2381 66.6696 31.0542 66.9545 30.8702 67.2209C30.1804 68.25 29.5918 69.325 28.994 70.4092C28.3962 71.4935 27.6972 72.5042 26.9706 73.5057C26.8878 73.6251 26.7498 73.6986 26.6395 73.7905C26.5475 73.7078 26.4739 73.6711 26.4463 73.6159C26.3543 73.4414 26.2716 73.2668 26.1888 73.0922C25.5818 71.668 24.6804 70.4368 23.6963 69.2607C22.5558 67.9101 21.1578 66.835 19.6587 65.8978C18.2515 65.0158 16.8075 64.1888 15.106 63.9591C14.9588 63.9408 14.8209 63.8397 14.6277 63.757C14.7105 63.4722 14.7381 63.2057 14.8668 62.9944C15.1612 62.489 15.4831 61.9929 15.8418 61.5334C16.4948 60.6789 17.1938 59.8612 17.856 59.0251C18.2147 58.5656 18.5366 58.0695 18.9045 57.6101C19.6863 56.6086 20.3761 55.5427 20.9923 54.431C21.4706 53.5765 22.0408 52.7771 22.519 51.9318C22.8777 51.3162 23.2824 50.6914 23.4572 50.0114C23.7699 48.8629 24.2573 47.7328 24.193 46.5015C24.1838 46.3086 24.2298 46.1156 24.2757 45.9227C24.4597 45.1141 24.5333 44.3147 24.1102 43.5521C24.0826 43.497 24.0642 43.4327 24.055 43.3684C23.9906 42.5874 23.5951 41.9534 23.1261 41.3653C22.9053 41.0897 22.7306 40.7497 22.4547 40.5384C21.8384 40.0606 21.1854 39.6287 20.5324 39.2061C20.1461 38.958 19.7322 38.7742 19.2724 38.7007C19.0149 38.664 18.7573 38.5813 18.5274 38.471C18.0123 38.223 17.4605 38.1678 16.9179 38.1035C16.504 38.0576 16.0717 38.0392 15.6486 38.0484C15.0324 38.0576 14.4162 38.0943 13.8 38.1403C13.5056 38.1678 13.3309 38.3516 13.2941 38.6916C13.4045 39.105 13.6804 39.3899 14.1495 39.5093C15.7314 39.1234 17.295 39.2061 18.8309 39.8401C20.0726 40.3546 21.2774 40.8783 22.142 41.9809C22.657 42.6333 23.0525 43.3224 23.1997 44.1402C23.54 46.0881 23.3652 47.9625 22.4363 49.7358C22.3719 49.846 22.3535 49.9839 22.2891 50.0941C21.9856 50.6638 21.7005 51.2518 21.3602 51.8031C20.6888 52.8781 19.9254 53.898 19.3184 55.0098C18.647 56.2135 17.7824 57.2701 16.9638 58.3543C16.0625 59.5488 15.0048 60.6146 14.2138 61.901C14.1495 62.0112 14.0667 62.1123 13.9747 62.2134C13.5148 62.7187 13.0182 63.1965 12.8802 63.9132C12.8618 64.0326 12.7331 64.1245 12.6595 64.2348C11.8593 65.3741 11.8133 66.5961 12.2548 67.8641C12.6779 69.0861 13.4413 70.1244 14.2782 71.0616C15.4923 72.4215 16.8903 73.5792 18.509 74.4796C19.7874 75.1871 21.0659 75.8395 22.4363 76.3632C23.6319 76.8134 24.7724 76.8134 25.9681 76.4735C26.4371 76.3448 26.7866 76.1059 27.0441 75.7017C27.7615 74.5807 28.5157 73.4781 29.2055 72.3296C30.1621 70.74 31.0818 69.1321 31.9923 67.515C32.7925 66.1 33.5835 64.685 34.586 63.3986C34.7699 63.1689 34.9171 62.9117 35.0918 62.682C35.3218 62.3696 35.5425 62.048 35.8092 61.7631C36.5726 60.9638 37.3452 60.1736 38.2005 59.4661C38.5041 59.218 38.7708 58.924 39.0927 58.7127C40.0124 58.0971 40.9506 57.5182 41.8887 56.9301C42.4957 56.5351 43.1671 56.2962 43.8753 56.1583C44.7031 55.993 45.54 55.8551 46.3678 55.6806C47.5451 55.4417 48.6855 55.4784 49.78 56.0481C50.2951 56.3145 50.8469 56.5075 51.3436 56.728C51.6655 56.5259 51.6471 56.2594 51.6379 55.9746C51.1872 55.2028 50.5526 54.7801 49.7524 54.6055ZM24.5517 75.2514C23.448 75.1228 22.3719 74.8472 21.3786 74.351C20.7348 74.0294 20.1093 73.6986 19.4747 73.3679C17.81 72.495 16.4028 71.3005 15.152 69.9131C14.9128 69.6466 14.6553 69.3986 14.4346 69.1229C13.6344 68.149 13.2849 67.028 13.3493 65.7876C13.4689 65.5211 13.6712 65.3557 13.9379 65.3098C14.453 65.2271 14.9772 65.172 15.4739 65.3557C17.7916 66.1919 19.861 67.4415 21.7005 69.0953C22.6938 69.9958 23.6227 70.933 24.3493 72.0723C24.9288 72.982 25.2966 73.9743 25.6002 75.0125C25.2599 75.2606 24.9196 75.2974 24.5517 75.2514Z" fill="black"/>
<path id="Vector_5" d="M57.377 28.4834C57.1931 28.6856 56.9999 28.8602 56.8528 29.0715C56.1262 30.0822 55.0593 30.5967 53.9096 30.8448C53.1278 31.0102 52.2909 30.8816 51.7022 30.2476C51.6103 29.6136 52.015 29.4666 52.438 29.2644C52.6496 29.4206 52.8611 29.5677 53.1002 29.7422C54.5442 29.6044 55.6203 28.8694 56.3101 27.5646C56.4297 27.3349 56.5309 27.096 56.4573 26.8204C56.3653 26.508 56.4941 26.2507 56.6504 25.9659C57.2666 25.681 57.6805 26.0026 58.0392 26.462C58.0208 26.5815 58.0024 26.6734 57.984 26.7653C57.9748 26.8571 57.9656 26.9398 57.9473 27.0317C58.5543 27.3992 59.0417 27.0685 59.4924 26.7744C59.8143 26.5631 60.081 26.2691 60.3662 26.0026C60.4857 25.8924 60.5685 25.7362 60.7065 25.6535C61.2675 25.3135 61.4147 24.7714 61.5342 24.1742C61.7642 23.044 61.4606 22.0609 60.8168 21.1329C60.1086 20.113 59.2073 19.3504 58.0208 18.9553C57.5334 18.7899 57.0551 18.5786 56.5768 18.3856C56.0802 18.4683 56.0802 18.9369 55.887 19.2677C55.4272 19.3779 55.1237 19.1299 54.9029 18.8083C54.8293 18.698 54.8385 18.4775 54.8937 18.3489C54.9673 18.1743 55.0961 18.0089 55.2432 17.8894C55.7215 17.5127 56.0342 17.0349 56.3101 16.4469C56.3101 16.2723 56.2825 16.0334 56.3285 15.8221C56.4665 15.1789 56.2733 14.6001 56.025 14.0304C55.6663 13.2218 55.2432 12.4592 54.5718 11.862C54.1763 11.5128 53.7441 11.228 53.2658 11.0167C52.9439 10.8788 52.7232 10.6675 52.6404 10.2816C52.714 10.1346 52.7967 9.96921 52.8795 9.80382C52.9991 9.77625 53.091 9.7395 53.183 9.7395C53.6245 9.7395 54.0108 9.91408 54.3787 10.1254C55.3996 10.6951 56.1998 11.4761 56.7332 12.5235C57.1195 13.2862 57.377 14.0947 57.5242 14.9217C57.5886 15.2616 57.515 15.6291 57.4874 15.9875C57.4598 16.401 57.2666 16.8052 57.3678 17.283C57.5242 17.3565 57.6897 17.4484 57.8553 17.5219C58.3887 17.7516 58.9498 17.9446 59.4648 18.2202C60.1638 18.5877 60.78 19.0655 61.2307 19.7271C61.5618 20.2141 61.9021 20.6918 62.1964 21.188C62.9506 22.4468 62.9874 23.7791 62.4907 25.1298C62.3068 25.6443 62.1137 26.1956 61.6814 26.5631C61.0008 27.1512 60.3018 27.7392 59.566 28.2537C59.1705 28.5294 58.6646 28.6213 58.1588 28.5661C57.9197 28.5478 57.6621 28.5202 57.377 28.4834Z" fill="black"/>
<path id="Vector_6" d="M34.2364 17.6138C34.3192 16.5755 34.871 15.8037 35.3677 14.9952C35.5976 14.6185 35.9103 14.352 36.3426 14.2326C36.5909 14.1682 36.83 14.0672 37.106 13.9753C37.4923 14.2234 37.7038 14.5266 37.5107 15.0503C37.2623 15.1054 37.014 15.1514 36.7657 15.2065C35.3861 16.4193 35.0917 17.6046 35.7448 19.3136C36.5817 20.1406 37.6578 20.306 38.8075 20.2876C38.8995 20.3703 39.0006 20.453 39.0742 20.554C39.1294 20.6275 39.1478 20.7286 39.1846 20.8297C39.1386 20.9124 39.111 21.0135 39.0558 21.087C38.6971 21.5096 38.1729 21.5923 37.6578 21.7026C37.5842 22.456 37.3911 23.1819 37.575 24.018C37.7682 23.7423 37.7406 23.4575 37.8326 23.2186C37.8969 23.0349 37.9613 22.8511 38.0625 22.6949C38.1085 22.6214 38.274 22.6306 38.3936 22.5938C38.55 23.0532 38.3844 23.4208 38.3292 23.7975C38.274 24.2201 38.1637 24.6336 38.1269 25.0471C38.0993 25.433 38.2005 25.8281 37.9797 26.2691C37.6118 26.361 37.3911 26.701 37.1336 27.0869C36.968 26.995 36.8117 26.949 36.7197 26.8388C36.6461 26.7469 36.6093 26.5999 36.6185 26.4712C36.6553 24.8174 36.4897 23.1635 36.6921 21.5096C36.6921 21.4821 36.6737 21.4453 36.6553 21.3626C35.57 20.7837 34.4387 20.1589 34.264 18.7623C34.1812 18.7164 34.1444 18.6796 34.126 18.6888C33.9421 18.744 33.7581 18.8083 33.4454 18.9094C33.0499 18.7991 32.5073 18.6796 31.9922 18.4959C31.1001 18.1835 30.4379 17.5587 29.8952 16.8144C29.5825 16.3734 29.3618 15.8497 29.1778 15.3351C29.0859 15.0779 29.1227 14.7563 29.1778 14.4714C29.2606 14.0304 29.4078 13.5894 29.5181 13.1851C30.5758 12.4776 30.5758 12.4776 31.1001 12.79C31.0265 12.9278 30.9621 13.0657 30.8886 13.2035C30.7874 13.4056 30.6494 13.5986 30.5942 13.8099C30.4747 14.2785 30.2447 14.7838 30.4563 15.2433C30.7506 15.8864 31.1093 16.5296 31.6979 16.9706C32.1302 17.2922 32.6544 17.3474 33.1603 17.4668C33.4822 17.5311 33.8133 17.5495 34.2364 17.6138Z" fill="black"/>
<path id="Vector_7" d="M35.8736 25.727C35.9748 25.7638 36.0759 25.7729 36.1495 25.8281C36.2507 25.9016 36.3335 26.0027 36.4438 26.1037C36.3795 27.3441 35.892 28.511 35.8276 29.7423C35.7724 30.9643 35.5793 32.1771 35.6529 33.3808C35.9472 33.491 36.0392 33.3073 36.1219 33.197C36.4071 32.8019 36.7106 32.416 36.9221 31.9842C37.3268 31.1664 37.6855 30.3303 38.035 29.4942C38.2097 29.0807 38.3569 28.6397 38.4581 28.2078C38.6512 27.3533 38.78 26.4804 38.9547 25.6167C39.0927 24.946 39.1203 24.2661 39.0835 23.577C39.0559 23.0716 39.1295 22.6122 39.479 22.1436C39.5801 22.1344 39.7733 22.0517 39.8745 22.1069C40.0308 22.1895 40.2148 22.3733 40.224 22.5295C40.2699 23.2738 40.4723 23.9996 40.3159 24.7622C40.1044 25.7821 39.948 26.8112 39.7641 27.8403C39.5893 28.8051 39.2122 29.7055 38.8076 30.5968C38.642 30.9551 38.4305 31.2859 38.3109 31.6534C38.0534 32.4436 37.6119 33.1143 37.1061 33.7667C36.7658 34.2077 36.4346 34.6396 36.0851 35.0806C35.5241 35.7973 34.1169 36.8631 33.2156 37.249C32.7833 37.0377 32.6637 36.6702 32.7097 36.1556C33.5283 35.834 34.2549 35.3195 34.8987 34.612C34.1813 33.7116 34.2917 32.71 34.4112 31.6993C34.448 31.4053 34.4848 31.1205 34.494 30.8265C34.5308 29.9903 34.494 29.1542 34.8067 28.3365C34.9907 27.8587 35.0091 27.3166 35.101 26.802C35.2114 26.3242 35.4045 25.9291 35.8736 25.727Z" fill="black"/>
<path id="Vector_8" d="M58.03 32.9857C56.7608 31.7085 56.3929 30.6886 57.6529 29.5401C57.9656 29.5585 58.1956 29.7055 58.3611 30.0546C58.3519 30.1281 58.3335 30.2568 58.2967 30.3762C58.0852 31.194 58.3795 31.8004 59.1521 32.0852C59.5292 32.2231 59.9063 32.2506 60.3018 32.1496C60.7064 32.0485 61.1203 31.9842 61.4606 31.9198C61.8377 32.0852 62.0033 32.3149 62.0952 32.6549C62.0217 32.8295 61.9297 33.0408 61.8193 33.2889C61.5526 33.344 61.2767 33.4083 60.9916 33.4727C60.8168 33.7759 60.7524 34.171 60.2558 34.318C60.0626 34.2536 59.7959 34.1618 59.4556 34.0515C58.9681 34.1158 58.4347 34.2077 58.076 34.7222C57.4598 35.6135 57.2022 36.6058 57.3494 37.6717C57.3954 38.0116 57.5977 38.3424 57.7173 38.6732C58.0208 39.5369 58.591 40.1617 59.2992 40.7313C59.9247 41.2367 60.6421 41.448 61.387 41.4205C62.0493 41.4021 62.6563 41.6502 63.2449 41.6042C63.5116 41.8799 63.4473 42.1004 63.2449 42.2566C62.7758 42.6333 62.2516 42.8722 61.617 42.7436C61.0743 42.6333 60.5225 42.5598 59.9798 42.4495C59.1889 42.2933 58.5267 41.935 57.9472 41.3653C56.678 40.1341 56.1721 38.5905 56.0434 36.8999C56.0066 36.4129 56.117 35.9259 56.3193 35.4757C56.4113 35.2644 56.5032 35.053 56.5584 34.8417C56.6596 34.4098 56.8895 34.0699 57.2206 33.7851C57.4782 33.5278 57.7357 33.2705 58.03 32.9857Z" fill="black"/>
<path id="Vector_9" d="M53.2474 41.0162C53.0726 41.1448 52.8979 41.2735 52.7599 41.3745C52.6312 41.3653 52.5576 41.3745 52.5024 41.347C51.7666 40.9702 51.0216 40.9243 50.2306 41.2C49.8628 41.3286 49.4673 41.347 49.0902 41.448C48.6487 41.5583 48.2164 41.6961 47.7842 41.8248C46.6253 42.1739 46.2298 43.35 46.4413 44.3239C46.5977 45.0498 46.9472 45.9686 47.8761 46.5016C49.642 46.6118 51.1412 45.9594 52.3736 44.6639C52.9071 44.1034 53.4405 43.5338 53.836 42.8446C54.0935 42.4036 54.443 42.0085 54.719 41.6226C55.0777 41.641 55.096 41.8707 55.0501 42.0453C54.9857 42.2933 54.8477 42.5231 54.7282 42.7528C54.4614 43.2765 54.2039 43.791 53.9924 44.3423C53.7992 44.8477 53.4773 45.3346 53.1002 45.7206C52.0149 46.8415 50.3502 47.7236 48.7131 47.7879C47.729 47.8247 46.938 47.5398 46.331 46.7313C45.9355 46.2075 45.6228 45.647 45.3928 45.0314C45.0709 44.1953 45.1077 43.3592 45.4204 42.5506C45.7791 41.6226 46.4873 41.007 47.4163 40.667C47.9681 40.4649 48.5383 40.3454 49.1086 40.1984C49.4213 40.1157 49.7616 40.0974 50.0559 39.9779C50.6813 39.7207 51.3343 39.8033 51.9873 39.7666C52.346 39.7482 52.6128 39.932 52.8795 40.1249C53.1186 40.3087 53.2474 40.566 53.2474 41.0162Z" fill="black"/>
<path id="Vector_10" d="M59.8603 53.797C59.989 53.5948 60.0626 53.4478 60.1638 53.3284C60.3477 53.1079 60.6144 53.0436 60.872 53.1446C61.1111 53.2273 61.3962 53.3284 61.5526 53.5122C62.1412 54.2013 62.9322 54.3207 63.714 54.385C64.3578 54.2472 64.836 53.944 65.1487 53.4019C65.2131 53.2916 65.2959 53.1814 65.3235 53.0527C65.5626 52.1615 65.6454 51.2702 65.4431 50.3514C65.3327 49.8644 65.02 49.5612 64.6889 49.3131C64.0175 48.9364 63.2817 49.3775 62.6471 49.0283C62.3895 48.5781 62.3803 48.4127 62.6563 48.2014C62.9046 47.9992 63.1897 47.843 63.4288 47.6868C64.5233 47.7052 65.3511 48.1646 66.0869 48.8262C66.51 48.9732 66.9238 49.0283 67.3193 48.7894C67.7792 48.5138 68.1195 48.1095 68.2942 47.6041C68.4598 47.1172 68.5978 46.6118 68.5334 46.1065C68.377 45.7481 68.0919 45.6011 67.816 45.4265C67.4665 45.206 67.2273 44.9212 67.3101 44.4801C67.4849 44.1769 67.7608 44.1034 68.1011 44.0942C68.2758 44.1861 68.469 44.2964 68.6713 44.4066C69.5267 44.8569 69.8486 45.5827 69.7382 46.5107C69.6555 47.2917 69.4531 48.036 68.9932 48.7067C68.5518 49.3499 68.0183 49.8277 67.2641 50.0574C67.0802 50.1125 66.9146 50.1952 66.7491 50.2595C66.7307 50.9486 66.7123 51.5918 66.7031 52.235C66.6755 53.457 65.9121 54.2656 65.112 55.0282C64.6061 55.506 63.9347 55.5427 63.2725 55.5244C62.1136 55.4876 61.1387 54.9915 60.2466 54.3207C60.1086 54.2105 60.0258 54.0175 59.8603 53.797Z" fill="black"/>
<path id="Vector_11" d="M22.3167 27.5371C22.473 27.2155 22.7306 27.1236 23.0249 27.1052C24.009 27.436 24.7172 28.0608 25.223 28.9429C25.5909 29.5952 26.0416 30.2016 26.3635 30.8724C26.7314 31.635 27.0625 32.416 27.2832 33.2246C27.596 34.3547 27.7983 35.5032 27.7615 36.6885C27.7523 36.9825 27.7431 37.2766 27.7891 37.5614C27.8903 38.2413 27.6143 38.8386 27.4396 39.4634C27.4212 39.5277 27.3844 39.5828 27.3476 39.6288C27.2189 39.8033 27.0441 39.9136 26.851 39.8309C26.7222 39.7758 26.5659 39.6379 26.5291 39.5093C26.4371 39.2061 26.4095 38.8937 26.5383 38.5629C26.7314 38.0668 26.6946 38.0484 26.5934 37.3776C26.014 37.0193 25.407 36.6518 24.8 36.2751C23.264 35.3195 22.1143 34.0331 21.3693 32.3793C21.1762 31.9566 20.9831 31.5431 21.259 31.0745C21.6453 30.8356 21.9396 31.001 22.2339 31.3226C22.4638 32.7927 23.5399 33.684 24.6528 34.5569C24.9839 34.8141 25.3426 35.0438 25.7105 35.2552C25.9312 35.3838 26.1796 35.4573 26.3911 35.54C26.6118 35.4206 26.6118 35.2552 26.575 35.0898C26.4279 34.4558 26.2899 33.8218 26.1244 33.1878C25.9128 32.3976 25.6461 31.635 25.1035 30.9918C24.8919 30.7438 24.708 30.4589 24.5884 30.1649C24.2849 29.3931 23.7239 28.8785 23.0433 28.4651C22.6754 28.2629 22.427 27.9597 22.3167 27.5371Z" fill="black"/>
<path id="Vector_12" d="M58.6646 57.8122C58.8302 57.996 58.9681 58.1338 59.0877 58.2808C59.2164 58.4278 59.3268 58.5932 59.4096 58.7035C59.5108 58.7678 59.5659 58.8045 59.6211 58.8413C60.6236 59.3834 61.5066 59.0067 62.3619 58.4738C62.7666 58.2165 63.015 57.8398 63.0241 57.3436C63.0333 57.0037 63.1253 56.7004 63.4748 56.4432C63.6588 56.4064 63.9163 56.3697 64.1554 56.3237C64.2566 56.4064 64.3578 56.4524 64.3946 56.5351C64.5417 56.8383 64.5417 57.1231 64.4405 57.4723C64.2474 58.143 63.9623 58.7494 63.4932 59.2731C63.3645 59.4202 63.2265 59.5764 63.0609 59.6591C62.1504 60.1093 61.2307 60.5136 60.173 60.4125C60.1086 60.4033 60.0442 60.44 59.9154 60.4676C59.8603 60.6422 59.7959 60.8443 59.7407 61.0557C59.5751 61.6621 59.382 62.2593 58.8577 62.6544C58.1771 63.1598 57.4597 63.61 56.6136 63.7937C56.4848 63.8213 56.3469 63.8489 56.2273 63.8305C55.1328 63.6743 54.0291 63.5273 53.0542 62.9392C52.0333 62.3328 51.3343 61.4691 50.9296 60.3114C51.0216 60.1644 51.1228 59.999 51.2055 59.8704C51.5458 59.7142 51.8218 59.8061 52.1253 59.9623C52.1897 60.0633 52.2908 60.192 52.3644 60.339C53.1186 61.7907 54.8201 62.6636 56.4388 62.4339C57.2298 62.3236 57.8 61.855 58.3151 61.2946C58.5726 61.0189 58.5818 60.6422 58.6002 60.1828C58.4899 59.9715 58.3611 59.6774 58.1863 59.411C58.0116 59.1445 57.7909 58.9056 57.5977 58.6667C57.7725 58.1154 58.1495 57.95 58.6646 57.8122Z" fill="black"/>
<path id="Vector_13" d="M28.0742 25.4054C28.3225 24.9828 28.5801 24.8358 28.9939 25.0379C29.2883 25.8924 29.4814 26.848 29.9229 27.6565C30.3735 28.4743 30.6035 29.4207 31.2749 30.0914C31.4772 30.1098 31.5416 29.9812 31.56 29.8525C31.7991 28.4467 31.9923 27.0317 31.9739 25.5984C31.9647 24.7255 31.9095 23.8434 31.6428 22.9981C31.5416 22.6581 31.4404 22.309 31.3393 21.9415C31.468 21.7853 31.5876 21.6474 31.7348 21.4821C31.9923 21.5556 32.2406 21.6291 32.4981 21.7026C32.6085 22.0058 32.7557 22.2631 32.7924 22.5479C32.9212 23.6137 33.0776 24.6796 33.1052 25.7454C33.1236 26.6183 33.0132 27.5003 32.9028 28.364C32.6729 30.1833 32.0934 31.9015 31.3301 33.5646C31.2381 33.7667 31.1001 33.9413 30.9806 34.1434C30.2816 34.024 30.2724 33.537 30.2632 33.0408C30.4471 32.5906 30.8794 32.2506 30.8058 31.6534C29.7297 29.6963 28.5617 27.7025 28.0742 25.4054Z" fill="black"/>
<path id="Vector_14" d="M48.0785 26.8939C48.0417 27.0317 48.0049 27.1787 47.9773 27.2982C47.0668 27.8219 46.1378 27.8219 45.1905 27.7208C44.1604 27.4544 43.5442 26.6091 42.7072 26.0118C42.6337 25.8097 42.5877 25.58 42.4773 25.3962C41.7507 24.165 41.9439 22.9062 42.3485 21.6382C42.5693 20.9491 43.0107 20.3703 43.3786 19.7638C43.6638 19.2861 44.1972 19.1482 44.6663 18.9277C44.9698 18.7807 44.979 18.7991 45.6596 18.9828C45.6504 19.1758 45.6412 19.3779 45.632 19.5525C45.5032 19.6444 45.4297 19.7363 45.3469 19.7547C44.3444 20.0579 43.8201 20.8205 43.5074 21.7485C43.2775 22.4284 43.1947 23.1359 43.2315 23.8618C43.2591 24.3947 43.4614 24.8174 43.8201 25.1573C44.6203 25.9108 45.5032 26.4896 46.6897 26.3059C47.2323 26.2232 47.7106 26.3885 48.0785 26.8939Z" fill="black"/>
<path id="Vector_15" d="M16.2832 25.6259C16.1177 26.1037 16.274 26.5264 16.5499 26.9123C16.8259 27.289 17.1754 27.5463 17.6352 27.6933C18.5825 27.9873 19.4379 27.73 20.2657 27.3074C20.652 27.1144 20.9279 26.7928 21.1026 26.3886C21.5073 25.4881 21.728 24.5417 21.7648 23.5862C21.5993 23.3013 21.4521 23.0532 21.305 22.796C21.2774 22.7408 21.2866 22.6673 21.2774 22.5387C21.3602 22.4193 21.4613 22.2722 21.5441 22.162C21.9304 22.015 22.1879 22.1436 22.3994 22.3733C22.6938 22.6949 22.9053 23.0808 22.8317 23.5218C22.703 24.2937 22.5282 25.0563 22.3535 25.8189C22.2891 26.1037 22.1419 26.3702 22.0867 26.655C21.8844 27.6382 21.2682 28.2813 20.3668 28.6213C19.5115 28.9429 18.6377 29.2093 17.6996 28.9245C16.6603 28.6121 15.8049 28.0792 15.4187 26.995C15.1979 26.3702 15.0508 25.7454 15.1519 25.0838C15.2163 24.6612 15.4003 24.3488 15.9153 24.2385C16.0993 24.3304 16.32 24.4499 16.5775 24.5785C16.5959 24.8817 16.6051 25.1665 16.6235 25.4697C16.4855 25.5432 16.3752 25.5984 16.2648 25.6627C16.2464 25.6443 16.228 25.6259 16.2096 25.6076C16.2372 25.5984 16.2648 25.6076 16.2832 25.6259Z" fill="black"/>
<path id="Vector_16" d="M43.6454 33.9045C43.9857 33.9045 44.0869 33.6932 44.234 33.5186C44.6203 33.0776 44.9882 32.6181 45.4021 32.2231C45.9723 31.681 46.6713 31.3318 47.4071 31.0562C47.4531 31.0378 47.5175 31.0929 47.6095 31.1205C47.6095 31.2032 47.6555 31.3134 47.6187 31.3777C47.5267 31.5431 47.4163 31.7085 47.2876 31.8555C46.3126 32.8938 45.3193 33.9229 44.3536 34.9703C44.0777 35.2644 43.7558 35.4757 43.3971 35.6135C42.7717 35.8524 42.1922 35.4206 42.2474 34.7498C42.2658 34.5293 42.3026 34.2904 42.3854 34.0883C42.7625 33.1603 43.0016 32.1771 43.4891 31.2859C43.6546 30.9735 43.7374 30.6243 43.8661 30.2935C44.0961 29.7239 44.3352 29.1542 44.5743 28.5937C44.6111 28.5018 44.6755 28.4283 44.7399 28.3548C44.8871 28.1894 45.163 28.1435 45.3653 28.2262C45.5677 28.3089 45.7056 28.5478 45.6504 28.7867C45.5677 29.1358 45.4757 29.485 45.3285 29.8066C44.933 30.7254 44.5008 31.635 44.2248 32.609C44.1605 32.8479 43.9673 33.0592 43.857 33.2889C43.765 33.4635 43.719 33.6748 43.6454 33.9045Z" fill="black"/>
<path id="Vector_17" d="M42.698 14.793C42.5416 14.4898 42.3945 14.2785 42.3025 14.0396C42.0634 13.3964 41.8058 12.7624 41.6311 12.1101C41.3736 11.1361 41.5391 10.1714 41.8058 9.22497C41.861 9.04121 41.9438 8.85744 42.0174 8.67368C42.0082 8.54504 41.9806 8.41641 41.9898 8.28778C42.0266 7.70892 41.815 7.27707 41.3092 6.98305C41.0425 6.82685 40.8585 6.62471 40.7849 6.31231C40.8493 6.03666 40.9965 5.83452 41.2908 5.77939C41.5299 5.73345 41.7415 5.79777 41.9254 5.96316C42.1645 6.18368 42.4313 6.38582 42.652 6.61552C42.9003 6.88198 43.0659 7.19438 43.1119 7.56191C43.1395 7.77324 43.1946 7.98456 43.2498 8.2694C43.9304 7.77324 44.6202 7.52515 45.4388 7.54353C45.6779 7.82836 45.6871 8.16833 45.7147 8.55423C44.841 8.93095 43.8293 8.98608 43.1487 9.69357C42.8359 10.0243 42.5784 10.3919 42.3117 10.7135C42.2565 11.5036 42.3853 12.1836 42.8084 12.8084C42.9831 13.0748 43.1395 13.3689 43.2498 13.6721C43.4062 14.1407 43.2406 14.4898 42.698 14.793Z" fill="black"/>
<path id="Vector_18" d="M23.7239 23.4759C23.8803 22.8878 24.3125 22.75 24.7908 22.8419C25.4162 22.9613 26.0232 22.8511 26.6303 22.7684C27.7983 22.603 28.6721 21.7485 28.81 20.6C28.8652 20.0946 28.8192 19.5801 28.8192 18.9553C29.086 18.6061 29.4814 18.6061 29.9045 18.8358C29.9597 18.9369 30.0149 18.992 30.0149 19.0472C29.9505 20.0395 30.0149 21.0594 29.4814 21.969C29.2699 22.3365 29.0584 22.7041 28.8468 23.0716C28.6169 23.4667 28.249 23.678 27.8443 23.8066C26.7406 24.1558 25.6186 24.2844 24.4781 24.0088C24.147 23.9169 23.8803 23.7699 23.7239 23.4759Z" fill="black"/>
<path id="Vector_19" d="M53.79 33.8585C53.5049 34.3639 52.8243 34.2996 52.6495 34.9428C52.6495 34.9703 52.6495 35.1081 52.6863 35.2276C52.953 35.9535 53.2106 36.1005 53.9279 35.9443C54.2407 35.8708 54.5534 35.7605 54.8661 35.6686C55.142 35.5859 55.4179 35.5032 55.7398 35.4114C55.8318 35.5492 55.9238 35.6686 56.0157 35.7973C55.9054 35.9351 55.841 36.0545 55.7306 36.1188C55.3811 36.3486 55.0132 36.5599 54.6545 36.7804C54.2591 37.0101 53.8452 37.3225 53.3853 37.1755C52.8978 37.0285 52.4196 36.7712 52.0057 36.4772C51.4447 36.0729 51.1779 35.0714 51.4539 34.4466C51.7574 33.7483 52.3 33.3073 53.0818 33.2154C53.4681 33.1786 53.606 33.3073 53.79 33.8585Z" fill="black"/>
<path id="Vector_20" d="M49.1177 32.0485C49.6696 31.8831 50.0375 31.4604 50.4605 31.1205C50.6629 30.9643 50.8744 30.8173 51.086 30.6794C51.1779 30.6243 51.2331 30.6611 51.4814 30.9091C50.7641 31.7361 50.0007 32.5263 49.2005 33.2705C49.0625 33.39 48.8694 33.4451 48.6763 33.5462C48.5659 33.4451 48.4647 33.3716 48.3819 33.2797C48.3176 33.2062 48.2808 33.1143 48.2164 33.0041C47.9313 33.2338 47.6645 33.4543 47.3518 33.7115C47.2231 33.6197 47.1035 33.537 46.9839 33.4543C47.0391 33.3165 47.0575 33.2062 47.1219 33.1419C47.8485 32.4068 48.5199 31.6166 49.3569 30.9918C49.4856 30.8908 49.642 30.8173 49.7799 31.0378C49.5684 31.3777 49.3477 31.7269 49.1269 32.076C48.989 32.1679 48.7682 32.1863 48.7774 32.462C48.9982 32.3884 49.0717 32.2231 49.1177 32.0485Z" fill="black"/>
<path id="Vector_21" d="M44.4271 57.7387C44.887 57.3804 45.3285 57.5366 45.7424 57.7203C46.0919 57.8765 46.3218 58.2073 46.3218 58.5657C46.3126 59.3007 46.4782 60.045 46.193 60.826C45.9815 60.826 45.7792 60.826 45.586 60.826C45.3837 60.1644 45.5032 59.5488 45.4664 58.9056C45.2181 58.8964 45.0066 58.8872 44.8134 58.8689C44.3168 58.584 44.4731 58.1338 44.4271 57.7387Z" fill="black"/>
<path id="Vector_22" d="M14.1034 41.742C14.3977 42.0085 14.3609 42.1647 14.2414 42.2933C13.8551 42.7252 13.4872 43.1754 13.0641 43.5797C12.5306 44.1034 11.9788 44.5996 11.6845 45.3071C11.5557 45.6195 11.289 45.8124 10.9027 45.8859C10.8015 45.8032 10.6728 45.7113 10.5716 45.6378C10.5624 45.5368 10.544 45.4724 10.5624 45.4081C10.6728 44.9487 10.9947 44.6088 11.3074 44.2964C12.0156 43.5889 12.7606 42.9273 13.4964 42.2474C13.6987 42.0728 13.9011 41.9166 14.1034 41.742Z" fill="black"/>
<path id="Vector_23" d="M55.1328 45.8859C54.9765 45.84 54.8109 45.794 54.5994 45.7389C54.7833 44.5077 55.6755 43.5613 55.6939 42.2841C55.8318 42.2474 55.979 42.1831 56.1261 42.1831C56.3377 42.1831 56.5032 42.3301 56.5308 42.5322C56.5584 42.7527 56.5492 42.9824 56.494 43.1938C56.3101 43.9013 55.6939 45.0865 55.1328 45.8859Z" fill="black"/>
<path id="Vector_24" d="M55.326 57.6836C55.2157 57.7755 55.1421 57.8398 55.0869 57.8857C55.0041 57.8674 54.9122 57.8857 54.8846 57.8398C54.1488 57.0128 53.4222 56.1859 52.7048 55.359C52.6036 55.2395 52.5484 55.0833 52.4473 54.8812C52.5944 54.725 52.7324 54.578 52.8428 54.4585C53.321 54.5412 54.8478 56.5534 55.326 57.6836Z" fill="black"/>
<path id="Vector_25" d="M13.5884 41.4664C13.3033 41.7696 13.0273 42.082 12.7422 42.376C12.1996 42.9273 11.6569 43.4786 11.0959 44.0115C10.8844 44.2045 10.6452 44.3699 10.3877 44.5077C10.3141 44.5444 10.1762 44.4618 10.0014 44.4158C10.1486 44.1585 10.2313 43.9472 10.3693 43.7726C11.0315 42.9549 12.6227 41.5215 13.2849 41.1172C13.3493 41.1356 13.432 41.1264 13.4596 41.1632C13.5056 41.2367 13.524 41.3286 13.5884 41.4664Z" fill="black"/>
<path id="Vector_26" d="M15.4187 32.4252C15.6946 32.5906 15.9705 32.7468 16.2372 32.9214C16.4212 33.0408 16.5867 33.1786 16.7891 33.3257C16.6787 33.4359 16.6143 33.491 16.5591 33.5554C15.2715 33.2613 14.1126 32.6917 12.963 32.0944C12.8802 32.0485 12.8066 31.975 12.7606 31.8923C12.7146 31.8188 12.6962 31.7177 12.6503 31.5891C12.7514 31.488 12.8618 31.3778 13.0089 31.2399C13.2849 31.3961 13.5608 31.5156 13.7723 31.6902C14.2598 32.0944 14.8024 32.3517 15.4279 32.4528L15.4187 32.4252Z" fill="black"/>
<path id="Vector_27" d="M52.6863 31.5615C52.7599 31.6718 52.8243 31.7729 52.9163 31.9199C52.2724 32.5722 51.647 33.2062 51.0032 33.8402C50.8928 33.9505 50.7273 34.0056 50.6169 34.0699C50.2766 33.9964 50.1571 33.7851 50.0927 33.5186C50.1203 33.4543 50.1203 33.3808 50.1571 33.3348C50.7917 32.6274 51.5918 32.122 52.3736 31.6075C52.4564 31.5615 52.5668 31.5707 52.6863 31.5615Z" fill="black"/>
<path id="Vector_28" d="M54.0751 53.9164C54.2775 53.9164 54.4062 53.8981 54.5166 53.9256C54.6086 53.944 54.7005 54.0083 54.7557 54.0726C55.3903 54.7893 56.2089 55.2303 57.0643 55.6346C57.1194 55.6622 57.1562 55.7265 57.239 55.8184C57.193 55.9287 57.1654 56.094 57.0643 56.1859C56.9907 56.2594 56.8251 56.2594 56.7056 56.2686C56.6504 56.2778 56.5768 56.241 56.5216 56.2135C55.7674 55.8368 55.05 55.3957 54.4614 54.7893C54.2867 54.578 54.0935 54.3575 54.0751 53.9164Z" fill="black"/>
<path id="Vector_29" d="M48.9799 58.2257C48.8971 58.29 48.8327 58.3543 48.7683 58.4003C48.1613 58.2257 47.5727 58.0603 46.9932 57.8674C46.6897 57.7663 46.3862 57.6101 46.3402 57.2334C46.4138 56.9577 46.6345 56.8567 46.8645 56.8934C47.6462 57.022 48.336 57.3712 48.8971 57.9409C48.9523 58.0052 48.9523 58.1246 48.9799 58.2257Z" fill="black"/>
<path id="Vector_30" d="M10.9763 37.6808C10.7924 38.0116 10.7924 38.0116 10.4429 38.2689C10.1669 38.223 9.86344 38.1586 9.58752 38.1127C9.45875 37.9473 9.35758 37.8279 9.26561 37.7084C8.87012 37.589 8.42865 37.9014 8.04236 37.543C8.27229 37.0928 8.66778 36.9917 9.10006 37.0193C9.78066 37.0652 10.3969 37.3225 10.9763 37.6808Z" fill="black"/>
<path id="Vector_31" d="M57.0551 45.6103C57.0459 45.8032 57.1011 45.9962 57.0275 46.0789C56.6136 46.5383 56.1906 46.9793 55.7399 47.402C55.5284 47.5949 55.2616 47.7603 54.8937 47.5031C54.9029 47.3928 54.8478 47.1907 54.9305 47.0988C55.4456 46.5199 55.9698 45.9411 56.7056 45.6195C56.7608 45.6011 56.8344 45.6195 57.0551 45.6103Z" fill="black"/>
<path id="Vector_32" d="M55.372 50.2503C55.5191 50.1401 55.6111 50.0206 55.7123 50.0114C55.8962 50.0023 56.1261 50.0114 56.2733 50.1033C56.8159 50.4525 57.331 50.8384 57.846 51.2243C57.938 51.2886 57.9656 51.4356 58.0116 51.5275C57.8185 51.8215 57.5793 51.7204 57.377 51.6469C56.8527 51.4724 56.0342 50.8935 55.372 50.2503Z" fill="black"/>
<path id="Vector_33" d="M19.8334 44.8017C19.8978 44.8569 19.9621 44.9212 20.0449 45.0039C19.6218 45.9503 19.4563 46.9701 19.0148 47.9073C19.0056 47.9257 18.9596 47.9257 18.9228 47.9441C18.7297 47.9625 18.6101 47.843 18.6101 47.6685C18.6193 47.3836 18.6469 47.0896 18.7205 46.8048C18.9044 46.1156 19.2999 45.5184 19.6402 44.8936C19.677 44.8477 19.7598 44.8385 19.8334 44.8017Z" fill="black"/>
<path id="Vector_34" d="M56.632 47.6409C58.2875 46.768 58.5083 46.7129 59.1061 47.0069C59.0601 47.1172 59.0417 47.2825 58.9589 47.3285C58.4715 47.5766 57.9748 47.8155 57.4598 48.0176C57.3034 48.0819 57.0827 48.0176 56.9079 47.9625C56.8159 47.9257 56.7516 47.7879 56.632 47.6409Z" fill="black"/>
<path id="Vector_35" d="M17.626 43.9105C17.488 44.4342 17.3777 44.9028 17.2489 45.3622C17.1201 45.8124 17.2029 46.327 16.8626 46.6945C16.6051 46.7037 16.5407 46.5567 16.5131 46.3913C16.4947 46.2626 16.5039 46.134 16.5131 46.0054C16.5683 45.2887 16.9178 44.6547 17.1569 43.9931C17.2121 43.8186 17.396 43.6807 17.626 43.9105Z" fill="black"/>
<path id="Vector_36" d="M11.7765 40.713C11.7949 40.86 11.8501 40.9794 11.8133 41.0345C11.3534 41.7328 10.7464 42.3117 10.1026 42.8446C9.93705 42.9824 9.7439 42.9457 9.58755 42.6884C9.67952 42.5414 9.74391 42.3393 9.89106 42.2382C10.5441 41.788 11.0131 41.0989 11.7765 40.713Z" fill="black"/>
<path id="Vector_37" d="M11.3627 33.1602C11.7766 33.197 11.9789 33.1694 12.1537 33.2338C12.9722 33.5278 13.7724 33.8494 14.591 34.1526C14.6002 34.3823 14.4254 34.4282 14.2782 34.4007C13.9287 34.3547 13.5701 34.2904 13.2297 34.1893C12.7055 34.0239 12.1996 33.8218 11.6938 33.6105C11.6018 33.5737 11.5558 33.4359 11.3627 33.1602Z" fill="black"/>
<path id="Vector_38" d="M54.5903 53.0344C54.7374 52.869 54.8018 52.8047 54.8846 52.7128C55.6204 52.8598 56.0618 53.457 56.7148 53.8337C56.5861 54.0267 56.5033 54.1369 56.4113 54.2748C55.6755 54.0083 55.1053 53.6316 54.5903 53.0344Z" fill="black"/>
<path id="Vector_39" d="M15.4278 32.4344C15.1979 32.0485 14.7288 31.8372 14.6553 31.341C14.738 31.0745 14.922 31.1113 15.1151 31.2032C15.1703 31.2399 15.2163 31.2951 15.2623 31.3318C15.6026 31.6718 15.9429 32.0026 16.32 32.3793C16.3292 32.4895 16.228 32.5538 16.09 32.5447C15.8693 32.5171 15.6394 32.462 15.4186 32.4252L15.4278 32.4344Z" fill="black"/>
<path id="Vector_40" d="M69.168 20.7378L69.0852 20.747L69.1036 20.6827L69.168 20.7378Z" fill="black"/>
<path id="Vector_41" d="M17.1754 67.8457C17.0374 67.5425 17.1202 67.2944 17.4237 67.1107C17.8284 66.9912 18.1779 67.1566 18.5366 67.3312C19.4471 67.7722 20.3025 68.2684 21.0475 69.0402C20.9739 69.1872 20.9095 69.325 20.8635 69.4077C20.4589 69.5364 19.392 69.0678 17.1754 67.8457Z" fill="black"/>
<path id="Vector_42" d="M22.6754 71.8886C22.7398 71.5394 22.9881 71.4935 23.264 71.4751C23.356 71.5302 23.4572 71.5578 23.5124 71.6313C23.6595 71.8059 23.7975 71.9896 23.8986 72.1918C24.1654 72.7155 24.4137 73.2392 24.6528 73.7813C24.8368 74.1948 24.8184 74.2775 24.616 74.792C24.2941 74.9299 24.055 74.7828 23.8986 74.5072C23.7423 74.2224 23.5951 73.9283 23.4664 73.6343C23.2088 73.083 22.9605 72.5226 22.6754 71.8886Z" fill="black"/>
<path id="Vector_43" d="M16.5039 66.3756C16.2648 66.9729 15.6118 66.8442 15.2531 67.2853C15.1887 67.4874 15.0967 67.7539 14.9863 68.0846C14.8668 68.1306 14.7196 68.2041 14.5725 68.2225C14.3977 68.2408 14.3977 68.2225 14.0206 67.8457C14.0298 67.5885 14.039 67.2945 14.039 67.1199C14.2506 66.2838 14.784 65.9989 15.4922 65.9254C15.9888 65.8795 16.0992 65.9254 16.5039 66.3756Z" fill="black"/>
<path id="Vector_44" d="M18.9228 71.3557C19.4379 71.5946 20.0633 71.2454 20.2656 71.9345C19.7046 72.6328 19.0148 72.3572 18.3986 72.1275C17.7088 71.8702 17.1937 71.3924 17.1201 70.5195C17.2765 70.4277 17.4236 70.3266 17.5708 70.2439C18.1686 70.492 18.4445 71.0617 18.9228 71.3557Z" fill="black"/>
<path id="Vector_45" d="M19.7506 70.5655C19.6954 70.6941 19.6586 70.8044 19.6034 70.9238C18.8125 70.9973 18.371 70.6114 18.0951 69.9866C18.0859 69.6558 18.2238 69.4813 18.5917 69.4629C19.0056 69.7661 19.3735 70.1612 19.7506 70.5655Z" fill="black"/>
<path id="Vector_46" d="M22.2523 72.0264C22.2063 72.3755 22.1603 72.6971 22.1328 72.9452C21.8844 73.23 21.6545 73.2944 21.3786 73.2025C21.1762 73.0463 21.1118 72.8349 21.1486 72.5961C21.1946 72.3388 21.2406 72.0723 21.4705 71.9069C21.5717 71.8334 21.7189 71.7691 21.8292 71.7967C21.9672 71.8242 22.096 71.9345 22.2523 72.0264Z" fill="black"/>
</g>
</g>
</g>
<defs>
<clipPath id="clip0_27_474">
<rect width="78.9041" height="76.7124" fill="white" transform="matrix(-1 0 0 1 79 0)"/>
</clipPath>
</defs>
</svg>
