<svg width="83" height="82" viewBox="0 0 83 82" fill="none" xmlns="http://www.w3.org/2000/svg">
<g id="Frame" opacity="0.5" clip-path="url(#clip0_27_293)">
<g id="Group">
<path id="Vector" d="M63.7597 26.4502C63.2536 25.9332 62.4765 25.7 61.8071 25.4779C60.862 25.167 59.907 24.866 58.9502 24.5946C57.9995 24.3252 57.1321 24.2937 56.17 24.397C55.645 24.0142 55.1536 23.5976 54.6049 23.2465C54.1063 22.9285 53.2828 22.6188 52.9959 22.0805C53.0851 22.0109 53.0122 21.8457 52.897 21.9017C52.5493 22.0678 52.3382 22.3867 52.1071 22.6821C51.7812 23.1004 51.3025 23.3502 50.9063 23.6961C50.5318 24.024 50.2738 24.4695 49.9275 24.8288C49.5021 25.2714 49.0164 25.6553 48.5789 26.0863C48.1394 26.5192 47.8042 27.0302 47.3507 27.4533C46.9209 27.8527 46.449 28.2069 45.9951 28.5788C44.9626 29.4279 43.8974 30.1826 42.8145 30.963C41.7773 31.7097 40.6455 32.3445 39.5619 33.0264C38.3573 33.786 37.0332 34.2882 35.7477 34.8945C34.4642 35.4989 33.1685 36.06 31.8627 36.6153C31.2665 36.8678 30.66 37.087 30.0617 37.3297C29.4793 37.5684 28.9574 37.8974 28.3911 38.1635C28.3491 38.1342 28.2932 38.1307 28.2577 38.1861C28.2421 38.2218 28.2143 38.2495 28.1906 38.2773C27.9175 38.2772 27.7039 38.5153 27.4293 38.5882C26.9856 38.7076 26.599 38.9962 26.1675 39.1589C25.6705 39.3438 25.2018 39.5955 24.7068 39.7902C24.2596 39.9688 23.7839 40.0726 23.3549 40.3004C22.92 40.5341 22.4952 40.7934 22.0583 41.0212C21.6313 41.247 21.1558 41.3745 20.7126 41.5649C20.3091 41.7393 19.9562 42.0059 19.5911 42.2411C19.1168 42.5461 18.5739 42.7332 18.0815 43.0127C17.1582 43.5338 16.2229 44.0352 15.2714 44.5091C14.89 44.701 14.5207 44.9086 14.1817 45.1693C13.7851 45.4757 13.3839 45.6836 12.9431 45.9193C12.2619 46.2809 11.5803 46.8653 11.1943 47.5345C10.9619 47.9344 10.6077 48.0236 10.331 48.3529C10.2717 48.4242 10.1984 48.5017 10.1752 48.5965C10.1113 48.8631 9.91524 49.0439 9.7793 49.2716C9.75566 49.3112 9.76389 49.3466 9.786 49.3721C8.97485 50.2414 8.29459 51.2971 7.92985 52.4294C7.71915 53.0776 7.61635 53.7606 7.43961 54.4184C7.24341 55.1434 7.09528 55.8996 7.02482 56.6455C6.95976 57.3104 6.82323 58.0153 6.83593 58.6817C6.85134 59.4486 6.96443 60.2168 7.00975 60.9855C7.04361 61.5432 7.01842 62.2079 7.31696 62.7027C7.5409 63.0778 7.74448 63.3938 7.8492 63.8249C7.86562 63.8919 7.8782 63.9785 7.90468 64.0592C7.90282 64.0769 7.90295 64.0967 7.91308 64.1183C8.16154 64.5799 8.31657 65.0757 8.58488 65.5254C8.86531 65.9947 9.13398 66.4957 9.45011 66.9411C9.78638 67.4139 10.2575 67.7952 10.6157 68.258C10.9335 68.666 11.289 69.044 11.6842 69.3824C12.5326 70.112 13.6238 70.5146 14.6748 70.8583C15.8437 71.2386 17.0978 71.2752 18.2899 71.5568C19.476 71.8365 20.5936 72.0101 21.8213 71.97C23.1227 71.9275 24.4404 71.9322 25.7332 71.799C26.3826 71.7314 27.0361 71.6795 27.6812 71.5685C28.2407 71.472 28.7215 71.2439 29.2402 71.0253C29.7947 70.7947 30.2948 70.4718 30.8473 70.2353C31.2925 70.043 31.7675 69.8405 32.15 69.5322C32.166 69.5321 32.1799 69.53 32.1958 69.522C33.0859 69.0979 33.9818 68.6559 34.8314 68.157C35.7843 67.5983 36.6266 66.9004 37.5473 66.3025C38.3271 65.7942 39.2411 65.3659 39.9143 64.7185C40.037 64.5993 40.1216 64.4469 40.2063 64.3024C40.4013 63.9717 40.607 63.7337 40.9244 63.5146C41.3469 63.2218 41.7758 62.9783 42.1561 62.6325C42.4948 62.3285 42.7753 61.9716 43.1221 61.6754C43.4847 61.3673 43.9299 61.1788 44.2965 60.8746C44.6354 60.5942 44.8435 60.1432 45.0722 59.7788C45.3758 59.2996 45.7076 58.8674 46.1656 58.5231C46.5503 58.2365 46.8715 57.9898 47.1438 57.5896C47.4259 57.1716 47.5942 56.7287 47.9463 56.3477C48.6743 55.5579 49.5311 54.9328 50.2108 54.0881C50.2286 54.0663 50.2324 54.0426 50.2323 54.0229C50.6097 53.2749 51.2299 52.7481 51.8661 52.2172C52.3992 51.7738 52.8196 51.1853 53.2083 50.6167C53.4628 50.2462 53.6512 49.8347 53.8677 49.4428C53.8977 49.4446 53.9275 49.4345 53.9512 49.4068C54.1013 49.2085 54.3578 49.1101 54.4979 48.914C54.6361 48.7198 54.7343 48.514 54.8125 48.2926C54.8381 48.2511 54.8677 48.2094 54.8973 48.1718C55.1508 47.9373 55.3903 47.6971 55.5476 47.3845C55.6264 47.2538 55.6992 47.1172 55.776 46.9925C56.4068 45.9864 57.1115 45.0094 57.8004 44.0405C58.4379 43.1428 58.7409 42.0128 59.5027 41.2129C59.841 40.8576 60.0895 40.4813 60.3157 40.0518C60.6088 39.4957 61.0335 38.9387 61.4106 38.4333C61.4284 38.4075 61.4362 38.3799 61.43 38.3543C61.5989 37.9903 61.7938 37.6478 61.9446 37.2702C62.1131 36.851 62.4337 36.5214 62.5881 36.0846C62.7385 35.6596 62.8513 35.2526 63.0757 34.8567C63.2943 34.4707 63.5628 34.11 63.7854 33.7279C64.7032 32.1559 64.4171 30.0442 64.3929 28.317C64.3918 27.5993 64.2737 26.9751 63.7597 26.4502Z" fill="white"/>
<path id="Vector_2" d="M67.0528 10.1404C66.9718 9.96744 66.8153 8.97672 66.3863 9.1966C66.1122 9.33652 65.9163 9.55281 65.606 9.64566C65.4747 9.68601 65.1102 9.72206 65.0516 9.89598C64.8739 10.4197 65.0595 11.012 64.874 11.5594C64.7725 11.8598 64.5348 11.5105 64.3791 11.484C64.2215 11.4595 64.1292 11.6553 64.0741 11.7622C63.9187 12.057 63.9013 12.416 63.7739 12.7225C63.5995 13.1437 63.3855 13.6007 63.125 13.9732C62.6375 14.6687 62.0444 15.359 61.4807 15.9958C61.1287 16.3926 60.6201 16.6367 60.2239 16.9826C59.8831 17.2807 59.6203 17.6039 59.1809 17.7706C59.1432 17.7847 59.1254 17.8104 59.1196 17.8401C58.9088 17.9046 58.7141 18.0006 58.5014 18.0829C58.0819 18.2456 57.5364 18.066 57.1055 18.0177C56.3713 17.936 55.5484 17.9832 54.8175 18.0888C54.2121 18.1758 53.5704 18.2039 53.0969 18.6154C52.8255 18.8519 52.4794 18.9647 52.1717 19.1384C51.8163 19.34 51.4669 19.5475 51.1095 19.7472C50.8375 19.9009 50.6222 20.1843 50.3944 20.389C50.1587 20.6016 49.8888 20.7652 49.653 20.9778C49.4391 21.1686 49.2574 21.4064 49.0555 21.609C48.8081 21.8611 48.5164 22.0544 48.2871 22.3241C48.1013 22.5423 48.0195 22.8229 47.9277 23.0858C47.8105 23.4218 47.5614 23.7114 47.3761 24.0163C46.919 24.7727 46.5857 25.5519 45.9242 26.1678C45.3856 26.6723 44.863 26.9106 44.1486 27.0911C43.868 27.162 43.3618 27.1774 43.4186 27.6009C43.4713 27.9929 43.6888 28.3069 44.0981 28.3967C44.6212 28.5114 45.2606 28.7239 45.7899 28.5901C46.0526 28.5251 46.2877 28.2297 46.4979 28.0745C46.7716 27.8714 47.0553 27.6861 47.3169 27.4674C47.5071 27.3083 47.6593 27.1199 47.7854 26.9101C48.0514 26.4685 48.3505 26.2081 48.7469 25.8859C49.2068 25.5121 49.6387 25.1423 49.9201 24.6178C50.1345 24.22 50.2891 23.8108 50.6618 23.5203C51.0147 23.2458 51.4612 22.9568 51.9094 22.9122C52.754 22.8314 53.9307 23.4621 54.1301 24.3145C54.1814 24.5291 54.2605 24.708 54.3734 24.8965C54.6135 25.303 54.639 25.8096 54.6384 26.2749C54.6285 26.2888 54.6206 26.3046 54.6168 26.3244C54.5324 27.0683 54.1423 27.7256 53.7961 28.3787C53.4046 29.1169 52.8729 29.7496 52.4233 30.4468C52.2005 30.7934 52.0132 31.0806 51.654 31.3099C51.4496 31.4395 51.217 31.5259 51.0388 31.6967C50.5121 32.2051 49.8645 32.5172 49.3117 32.9962C48.8817 33.3679 48.598 33.8313 48.4044 34.3591C48.2225 34.8592 48.021 35.3989 47.941 35.924C47.922 36.0542 47.9839 36.3496 48.1906 36.2614C48.5364 36.1131 48.6084 35.5881 48.8338 35.3184C49.0354 35.0725 49.3174 34.9206 49.5431 34.7022C49.8262 34.4261 50.0632 34.113 50.4206 33.9212C51.1792 33.5097 52.0743 33.2393 52.9164 33.0777C53.5873 32.9488 54.2295 32.7137 54.878 32.512C55.6239 32.28 56.1617 31.947 56.8166 31.5324C58.0252 30.7688 58.6372 29.3606 59.8157 28.5755C60.5221 28.1053 61.3066 27.9816 62.1426 28.0881C62.5776 28.1443 62.8528 28.448 63.1697 28.71C63.2258 28.757 63.5221 28.9284 63.5361 28.9382C63.7404 29.0748 63.7799 29.5872 63.8314 29.8254C63.9099 30.2034 63.9288 30.6292 63.8917 31.012C63.86 31.3297 63.7086 31.6206 63.6251 31.9268C63.4677 32.5017 63.5484 33.1991 63.6342 33.7763C63.745 34.507 63.9912 35.2092 64.0542 35.9443C64.0586 35.9916 64.0589 36.0389 64.0592 36.0862C64.0032 36.0551 63.9196 36.0754 63.9062 36.1563C63.8737 36.3399 63.8331 36.5235 63.7865 36.7053C63.7786 36.7132 63.7707 36.7172 63.7648 36.7271C63.6841 36.8756 63.6574 37.0414 63.6586 37.2109C63.5694 37.5744 63.4883 37.9377 63.463 38.3126C63.4539 38.429 63.6078 38.4811 63.6628 38.3703C63.6766 38.3446 63.6883 38.3169 63.7041 38.2892C63.942 38.3881 64.4497 38.0178 64.6614 37.7975C65.5038 37.3973 65.721 36.262 65.8986 35.4366C65.9449 35.2233 65.9594 35.0142 65.9539 34.8013C66.0198 34.8264 66.1113 34.7903 66.1027 34.6997C66.0367 34.1106 65.9528 33.5275 65.855 32.9426C65.7925 32.5684 65.7673 32.1091 65.6292 31.7433C65.6431 31.4514 65.6908 31.1573 65.7207 30.8692C65.8156 29.9201 66.1188 29.1036 66.4634 28.2218C67.0782 26.648 67.1042 24.9738 66.3797 23.4448C66.3635 23.4133 66.3394 23.3938 66.3135 23.388C66.2663 23.1971 66.1795 23.0459 66.0606 22.8712C65.8411 22.5513 65.6612 22.2036 65.4873 21.8578C65.275 21.4353 65.1126 21.0223 65.2109 20.5425C65.2936 20.1259 65.3744 19.7113 65.4532 19.2947C65.6031 18.5049 65.9008 17.7575 65.9968 16.9583C66.0984 16.1136 66.1185 15.2952 66.3878 14.477C66.4017 14.4671 66.4116 14.4532 66.4194 14.4334C66.5111 14.1508 66.6347 13.8759 66.7164 13.5914C66.8176 13.2397 66.8648 12.8707 66.994 12.5267C67.1817 12.0206 67.6387 11.5264 67.6188 10.9666C67.6605 10.6666 67.1782 10.3998 67.0528 10.1404Z" fill="white"/>
<path id="Vector_3" d="M12.3993 70.4482C12.3887 70.3517 12.3822 70.2827 12.3759 70.2335C12.0891 69.9929 11.8242 69.7503 11.5376 69.5294C11.1207 69.2129 10.7652 68.8387 10.4315 68.4428C10.3652 68.3663 10.3028 68.2859 10.2246 68.2214C9.77348 67.8558 9.39365 67.4227 9.00191 66.9975C8.80104 66.782 8.69544 66.5106 8.56009 66.2572C8.35804 65.8761 8.17584 65.483 7.99565 65.0919C7.92478 64.9366 7.87774 64.7693 7.82276 64.606C7.60891 63.9667 7.39108 63.3274 7.18521 62.688C7.09348 62.4027 6.98179 62.1136 6.9478 61.8181C6.87148 61.1758 6.65579 60.5582 6.6412 59.9056C6.6386 59.8208 6.62204 59.7342 6.60152 59.6515C6.53354 59.3424 6.48156 59.0411 6.565 58.7191C6.61351 58.5315 6.56017 58.3189 6.57469 58.1177C6.6148 57.5889 6.66288 57.0602 6.72093 56.5333C6.73777 56.3774 6.78653 56.2252 6.82132 56.0712C6.93338 55.5696 6.93365 55.0451 7.15952 54.5683C7.19968 54.0475 7.37962 53.5612 7.52163 53.0653C7.57418 52.8855 7.61674 52.7038 7.67331 52.5279C7.75719 52.269 7.84905 52.0101 7.93893 51.7531C7.96825 51.6721 7.98958 51.5871 8.02691 51.51C8.17809 51.1836 8.31326 50.8494 8.49046 50.5366C8.65778 50.2377 8.85912 49.9563 9.05644 49.671C9.44907 49.0985 9.88785 48.567 10.3747 48.0707C10.6162 47.8245 10.8175 47.5392 11.0489 47.2792C11.1636 47.1523 11.3024 47.0448 11.4311 46.9315C11.5064 46.864 11.5897 46.8082 11.663 46.7387C12.0689 46.3474 12.505 46.0013 13.0054 45.7257C13.2695 45.5799 13.4972 45.3674 13.7532 45.2059C14.1065 44.9826 14.4698 44.773 14.8352 44.5694C15.2263 44.3478 15.6195 44.1321 16.0187 43.9262C16.5589 43.6464 17.1033 43.3824 17.6435 43.1026C17.8084 43.0167 17.9771 42.9228 18.1238 42.8074C18.4351 42.5667 18.7767 42.3829 19.1465 42.2463C19.389 42.1539 19.6235 42.0418 19.8356 41.8806C19.9823 41.7692 20.1612 41.6891 20.3341 41.6189C21.1411 41.2899 21.9097 40.8882 22.6743 40.4787C23.1629 40.219 23.6738 40.0281 24.1908 39.8353C24.4751 39.7288 24.7493 39.6007 25.0295 39.4824C25.1348 39.4363 25.2421 39.3883 25.3474 39.3422C26.0548 39.0139 26.7742 38.7052 27.421 38.263C27.4567 38.2391 27.4923 38.2034 27.5321 38.1952C27.8825 38.1297 28.16 37.9069 28.4739 37.7588C28.8792 37.5707 29.2785 37.3648 29.6878 37.1845C30.2701 36.9261 30.8482 36.648 31.4508 36.4486C32.1847 36.2049 32.8498 35.8277 33.5614 35.5388C33.8953 35.4024 34.2353 35.2758 34.5693 35.1434C35.2829 34.8604 35.9945 34.5715 36.6697 34.204C36.8842 34.0882 37.1269 34.0194 37.3494 33.9154C37.6375 33.7812 37.9195 33.6334 38.2036 33.4875C38.3327 33.4215 38.4557 33.3457 38.5909 33.2896C39.1574 33.0589 39.6754 32.7418 40.1995 32.4345C40.4099 32.3108 40.6183 32.1812 40.8368 32.0692C41.1606 31.9033 41.4159 31.6432 41.7115 31.4381C41.9138 31.2987 42.1061 31.1416 42.3125 31.0139C42.9535 30.6171 43.5322 30.1359 44.1572 29.7195C44.5203 29.4784 44.8613 29.2197 45.142 28.8865C45.1334 28.7879 45.0556 28.7786 44.9858 28.7771C44.5431 28.7644 44.1412 28.5878 43.7237 28.4704C43.6399 28.4473 43.5618 28.4065 43.4877 28.3616C42.859 27.9716 42.2442 27.5677 41.6865 27.0787C41.6645 27.0611 41.6543 27.0316 41.6402 27.006C41.6988 26.8479 41.6988 26.8479 41.8278 26.7543C42.1207 26.7385 42.3019 26.9935 42.6176 27.1018C42.4908 26.9193 42.4061 26.7937 42.3256 26.6759C42.4273 26.4071 42.5306 26.3472 42.7365 26.4345C42.8684 26.4888 42.9965 26.5549 43.1165 26.6132C43.2458 26.567 43.3531 26.5268 43.4704 26.4846C43.5465 26.5314 43.6226 26.5703 43.6927 26.6191C44.0614 26.8926 44.5381 26.9228 44.9069 26.656C45.3016 26.3674 45.7062 26.0806 46.0325 25.7136C46.2719 25.4457 46.4891 25.1564 46.7083 24.8729C46.7696 24.7955 46.8148 24.7026 46.854 24.6076C47.148 23.8997 47.5421 23.2502 48.0283 22.6593C48.2121 22.4352 48.3678 22.1955 48.5176 21.95C48.7422 21.5777 49.013 21.2544 49.3599 20.9779C49.7306 20.6816 50.0651 20.3421 50.4156 20.0182C50.479 19.9587 50.5383 19.8951 50.6098 19.8473C50.8975 19.6541 51.1891 19.4647 51.4808 19.2754C51.6019 19.1976 51.7249 19.1179 51.852 19.05C52.2214 18.8542 52.5948 18.6584 52.9703 18.4763C53.1908 18.3703 53.4315 18.2996 53.648 18.1857C54.1584 17.9199 54.7139 17.8273 55.2736 17.7584C55.4907 17.7312 55.7058 17.71 55.9229 17.6829C56.1978 17.6494 56.4709 17.6456 56.7481 17.6732C57.0633 17.7065 57.3825 17.7319 57.6996 17.7514C57.7993 17.7586 57.9028 17.7382 58.0024 17.7296C58.2057 17.7164 58.4069 17.7051 58.6799 17.6855C59.3155 17.3656 59.9986 16.9901 60.601 16.4812C61.1182 16.0418 61.6173 15.5809 62.0621 15.0671C62.1749 14.9382 62.2775 14.7994 62.3782 14.6587C62.5361 14.4368 62.686 14.207 62.8399 13.9812C62.98 13.7771 63.0901 13.5634 63.1581 13.3243C63.2009 13.1742 63.2697 13.0298 63.3404 12.8873C63.4741 12.6182 63.6477 12.3607 63.7494 12.08C63.937 11.5542 64.1666 11.038 64.2344 10.4775C64.2531 10.3078 64.2698 10.1401 64.2168 9.96693C64.1801 9.84888 64.1931 9.71668 64.1864 9.61616C64.2752 9.49133 64.3728 9.4729 64.4785 9.48991C64.5783 9.505 64.6762 9.52995 64.778 9.55093C65.2192 9.64449 65.581 9.50001 65.8758 9.18445C66.0716 8.97606 66.2595 8.75588 66.4393 8.53182C66.542 8.40492 66.6613 8.35677 66.8051 8.3952C66.9332 8.46924 66.952 8.58545 66.9667 8.69774C66.992 8.88291 67.0072 9.07012 67.0424 9.25326C67.0633 9.37931 67.108 9.50125 67.1447 9.62324C67.2468 9.95774 67.4598 10.2008 67.766 10.3662C67.778 10.374 67.792 10.3799 67.804 10.3877C68.1965 10.6334 68.2147 10.6747 68.1424 11.1642C68.1345 11.1761 68.1327 11.1938 68.1207 11.2018C68.0751 11.2356 68.0275 11.2675 67.9561 11.3193C67.6736 11.9561 67.3773 12.6227 67.087 13.2912C66.8104 13.926 66.5958 14.5782 66.5349 15.2747C66.5183 15.4582 66.4638 15.6399 66.4332 15.8216C66.326 16.4572 66.3087 17.1061 66.1517 17.7322C66.0645 18.0818 65.9852 18.4314 65.878 18.7732C65.7668 19.1191 65.7075 19.4685 65.6462 19.8238C65.6136 20.0074 65.591 20.1929 65.5365 20.3708C65.4858 20.5328 65.4012 20.6852 65.3266 20.8553C65.3316 20.9973 65.438 21.101 65.5106 21.2228C65.7285 21.5801 65.9502 21.9335 66.0866 22.3328C66.1334 22.4686 66.1803 22.6043 66.233 22.738C66.4401 23.2611 66.7186 23.7481 66.9753 24.2452C67.0623 24.4161 67.1232 24.5814 67.1505 24.7724C67.1778 24.9714 67.241 25.1622 67.3046 25.4161C67.2102 25.8802 67.212 26.4106 67.1858 26.9412C67.1632 27.4007 67.0327 27.8453 66.8544 28.2744C66.7388 28.5532 66.6331 28.834 66.5395 29.1225C66.4419 29.4229 66.3464 29.7252 66.2868 30.0352C66.2021 30.4696 66.0796 30.8983 66.0968 31.3497C66.0992 31.4069 66.0936 31.4641 66.082 31.5194C65.9526 32.098 66.0861 32.6591 66.1978 33.2222C66.3218 33.8445 66.4259 34.4708 66.3327 35.1043C66.2851 35.4261 66.1558 35.7385 66.0544 36.0547C65.9568 36.3551 65.8673 36.6594 65.7438 36.9501C65.5575 37.3871 65.3311 37.7969 64.9467 38.115C64.6712 38.3437 64.45 38.637 64.2067 38.901C64.1671 38.9446 64.1336 38.9902 64.09 39.03C63.9494 39.163 63.8458 39.1677 63.6636 39.0526C63.6275 39.0292 63.5974 38.9959 63.5432 38.9509C63.4104 39.0524 63.2796 39.1637 63.1428 39.2613C62.9543 39.3947 62.7639 39.5262 62.5714 39.6518C62.5119 39.6916 62.4403 39.7118 62.3706 39.73C62.3169 39.7442 62.255 39.7348 62.2152 39.7351C62.0651 39.6592 62.0502 39.5272 62.0132 39.3658C62.1436 39.2032 62.2678 39.0032 62.4362 38.8541C62.7274 38.5938 62.8925 38.2653 63.0496 37.9251C63.1458 37.7174 63.2359 37.5038 63.3241 37.2922C63.4221 37.0549 63.5481 36.8214 63.5242 36.5514C63.5198 36.4962 63.5334 36.435 63.5569 36.3836C63.7062 36.0749 63.6879 35.7438 63.6996 35.4144C63.7044 35.2508 63.6636 35.1209 63.5342 34.8733C63.4869 34.9407 63.4374 34.9904 63.4079 35.0517C63.3038 35.2713 63.2038 35.4948 63.1017 35.7163C62.9564 36.0289 62.8111 36.3414 62.6658 36.654C62.5048 37.0061 62.3479 37.3621 62.1829 37.7142C62.0553 37.9892 61.8956 38.2446 61.7079 38.4845C61.4037 38.8692 61.0974 39.2518 60.8212 39.6521C60.3318 40.3614 59.8485 41.0765 59.4693 41.858C59.0292 42.7641 58.495 43.6216 57.9288 44.4557C57.5501 45.0183 57.1633 45.5731 56.7465 46.1064C56.5864 46.3106 56.4645 46.5402 56.3205 46.7561C55.8531 47.4633 55.4257 48.1978 54.8982 48.8659C54.6295 49.2069 54.3447 49.5323 54.086 49.8791C53.778 50.2953 53.4579 50.6998 53.1098 51.0808C53.0702 51.1245 53.0287 51.1662 53.0031 51.2156C52.8182 51.5679 52.535 51.8321 52.2399 52.0925C52.1646 52.16 52.0994 52.2374 52.0281 52.3089C51.846 52.4955 51.6639 52.6781 51.4878 52.8667C51.3711 52.9917 51.2624 53.1285 51.1517 53.2594C50.9225 53.5371 50.6892 53.8108 50.4479 54.0806C50.1888 54.3683 49.9197 54.6462 49.6666 54.9398C49.4016 55.2453 49.1446 55.5508 48.8476 55.8249C48.7941 55.8746 48.7446 55.9282 48.7032 55.9856C48.2134 56.6279 47.6734 57.2291 47.1996 57.887C46.7476 58.5152 46.2655 59.1259 45.7153 59.6818C45.2799 60.1225 44.8585 60.577 44.425 61.0197C44.2548 61.1944 44.0686 61.3574 43.8864 61.5203C43.5001 61.8681 43.1139 62.2158 42.7236 62.5557C42.4957 62.7564 42.2498 62.9356 42.0602 63.1775C42.0167 63.233 41.9633 63.2866 41.9098 63.3323C41.5907 63.6047 41.2717 63.877 40.9487 64.1415C40.7366 64.3145 40.5245 64.4875 40.3024 64.6468C39.9592 64.8878 39.6422 65.1582 39.3553 65.4618C39.2386 65.5869 39.0817 65.6767 38.9349 65.7684C38.1966 66.227 37.4522 66.6759 36.7159 67.1325C36.2117 67.4436 35.7157 67.7665 35.1974 68.0599C34.7587 68.3094 34.3179 68.557 33.9074 68.8576C33.6535 69.0447 33.3493 69.1592 33.0673 69.311C32.7377 69.4908 32.4121 69.6784 32.0805 69.8601C31.9276 69.942 31.7686 70.0102 31.6157 70.0921C31.2602 70.2858 30.9108 70.4854 30.5533 70.6732C29.9913 70.9709 29.4494 71.3079 28.8145 71.4444C28.5179 71.5076 28.2275 71.6003 27.931 71.6753C27.8196 71.7037 27.7021 71.7183 27.5866 71.7349C27.2281 71.7847 26.8696 71.8266 26.5151 71.8804C26.2722 71.9175 26.0314 71.9685 25.7884 72.0096C25.0299 72.1391 24.2565 72.1484 23.4937 72.2543C23.0178 72.3227 22.5391 72.2865 22.0606 72.2741C21.9449 72.2709 21.8293 72.2639 21.7137 72.2765C21.0903 72.3459 20.4683 72.3423 19.8477 72.25C19.7898 72.2406 19.7319 72.235 19.6741 72.2335C19.1897 72.227 18.7303 72.1 18.2727 71.9553C17.7213 71.7817 17.1659 71.612 16.6028 71.474C16.2973 71.3992 15.9704 71.4014 15.6551 71.3602C15.3259 71.3172 14.9966 71.2623 14.6673 71.2113C14.322 71.1566 14.0061 71.0247 13.694 70.8651C13.4259 70.729 13.1263 70.6482 12.8406 70.5497C12.6729 70.5232 12.5351 70.4867 12.3993 70.4482ZM9.06657 65.9954C9.09866 66.0228 9.13272 66.0482 9.16481 66.0755C9.27948 66.2226 9.42791 66.3517 9.46316 66.5428C9.51479 66.7968 9.66958 66.9791 9.85219 67.1493C10.1271 67.4057 10.3902 67.674 10.6572 67.9384C10.6973 67.9775 10.7455 68.0206 10.7677 68.0697C10.8448 68.2506 11.001 68.3599 11.1434 68.4792C11.2637 68.5809 11.3742 68.6965 11.4985 68.7982C11.8214 69.0661 12.1363 69.3458 12.4769 69.584C12.7714 69.789 13.0679 69.996 13.4077 70.1316C13.5937 70.2073 13.7995 70.2788 13.94 70.4119C14.1888 70.6468 14.4943 70.7137 14.8017 70.7746C15.1152 70.8375 15.4304 70.8787 15.7457 70.9239C16.2905 71.0049 16.8449 71.0444 17.3686 71.234C17.7203 71.3617 18.0974 71.4044 18.4454 71.5598C18.6273 71.6393 18.8426 71.6378 19.0402 71.6779C19.6811 71.8134 20.335 71.8168 20.9832 71.8655C21.0271 71.8692 21.0689 71.859 21.1127 71.8548C21.2422 71.8479 21.3697 71.8352 21.4993 71.8324C21.9338 71.8254 22.3704 71.8362 22.8028 71.8075C23.2213 71.781 23.6419 71.784 24.0558 71.6865C24.1951 71.6539 24.3466 71.6411 24.4882 71.6539C24.9431 71.7059 25.3931 71.6397 25.829 71.544C26.2291 71.4564 26.6294 71.4044 27.0317 71.3543C27.2906 71.3209 27.5536 71.3073 27.8084 71.2503C28.1328 71.179 28.4531 71.0881 28.7693 70.9814C29.0557 70.8847 29.346 70.7762 29.6101 70.6344C30.1443 70.3487 30.6543 70.0159 31.2107 69.7676C31.3418 69.7075 31.4709 69.6376 31.5899 69.5579C31.8419 69.3885 32.1161 69.2565 32.3842 69.1146C32.7536 68.9188 33.1108 68.6955 33.4984 68.5292C33.5639 68.4991 33.6234 68.4553 33.6809 68.4135C34.1054 68.1109 34.5783 67.8907 35.0249 67.6254C35.4954 67.3441 35.9658 67.0549 36.4302 66.7638C36.8589 66.4966 37.2694 66.2039 37.7263 65.9799C38.1951 65.7479 38.5934 65.408 39.0279 65.119C39.0637 65.0951 39.0913 65.0595 39.117 65.0258C39.2354 64.8593 39.394 64.736 39.5566 64.6126C39.8401 64.3917 40.1115 64.1552 40.389 63.9246C40.599 63.7496 40.801 63.5589 41.0232 63.3996C41.3524 63.1647 41.6656 62.918 41.9627 62.6438C42.7351 61.9286 43.5396 61.2447 44.2697 60.4845C44.531 60.2145 44.8063 59.9622 45.0414 59.6667C45.2014 59.4625 45.3955 59.2877 45.5656 59.0893C45.7732 58.8493 45.9687 58.5975 46.1684 58.3536C46.4154 58.0541 46.6605 57.7567 46.9055 57.4553C47.1486 57.1558 47.4819 56.9287 47.6287 56.5511C47.6561 56.476 47.7394 56.4202 47.7968 56.3587C47.8937 56.2535 47.9987 56.1522 48.0896 56.0412C48.2556 55.8428 48.4016 55.6249 48.5797 55.4383C49.1535 54.831 49.6892 54.1904 50.2369 53.5615C50.4742 53.2917 50.7516 53.0571 50.9388 52.7423C51.0018 52.6354 51.1168 52.5557 51.2159 52.4722C51.4597 52.2714 51.7295 52.0921 51.8689 51.7933C51.8866 51.7558 51.9243 51.7259 51.958 51.7001C52.2037 51.4933 52.3813 51.2318 52.5528 50.9644C52.6455 50.8198 52.7521 50.681 52.8769 50.5638C53.2254 50.2341 53.5178 49.8574 53.7881 49.4671C53.9676 49.2036 54.1592 48.9519 54.3708 48.7158C54.4282 48.6503 54.4895 48.5888 54.5389 48.5194C54.9534 47.9329 55.3678 47.3464 55.7843 46.7578C55.8 46.7341 55.8158 46.7103 55.8316 46.6865C56.1371 46.1974 56.4607 45.7219 56.8403 45.2855C56.9708 45.1347 57.0732 44.9565 57.1797 44.7862C57.3788 44.4713 57.5598 44.1428 57.7689 43.8337C58.0727 43.382 58.3866 42.9402 58.6342 42.4455C58.9684 41.7806 59.2925 41.106 59.7027 40.4761C59.89 40.1889 60.0253 39.8666 60.2166 39.5794C60.4848 39.1713 60.7851 38.7828 61.0633 38.3806C61.3337 37.9902 61.616 37.6077 61.7762 37.1531C61.829 37.0049 61.8977 36.8565 61.9885 36.7297C62.1188 36.5474 62.1972 36.3575 62.2315 36.1404C62.2563 35.9844 62.3251 35.844 62.3999 35.7015C62.7009 35.1453 62.982 34.5775 63.2494 34.0551C63.2037 33.799 63.1623 33.5903 63.1289 33.3776C63.0934 33.1511 63.05 32.9246 63.0324 32.696C62.9997 32.3039 63.1027 31.9266 63.2037 31.5512C63.3591 30.9704 63.5264 30.3975 63.5121 29.7804C63.5026 29.2934 63.299 28.9616 62.8985 28.7159C62.7884 28.6477 62.6743 28.5834 62.5622 28.5171C62.29 28.3573 62.0044 28.2824 61.6858 28.3359C61.4588 28.373 61.2299 28.416 60.9923 28.3644C60.9004 28.3453 60.789 28.3776 60.6956 28.4078C60.3754 28.5146 60.0856 28.6901 59.8279 28.893C59.3402 29.2789 58.9028 29.7217 58.4975 30.1918C58.2622 30.4636 58.0169 30.7295 57.7816 31.0012C57.0659 31.8383 56.1287 32.3575 55.1248 32.7568C54.3873 33.0518 53.6032 33.2347 52.8146 33.3545C52.3666 33.4227 51.9368 33.5322 51.5112 33.681C50.7019 33.9607 50.0474 34.4346 49.572 35.1378C49.3609 35.4528 49.2358 35.8047 49.2386 36.1911C49.2392 36.2739 49.2258 36.3588 49.2165 36.4515C49.0972 36.4957 48.9918 36.5339 48.9024 36.5681C48.6105 36.4479 48.7221 36.173 48.6387 35.9271C48.3872 36.4455 48.2212 36.9297 48.2068 37.4366C48.0879 37.532 47.9888 37.6116 47.8897 37.6911C47.7717 37.6466 47.7134 37.5701 47.6947 37.4657C47.6382 37.0856 47.5478 36.7076 47.6307 36.3147C47.677 36.0896 47.6893 35.8588 47.7276 35.6337C47.7602 35.4501 47.7967 35.2665 47.8533 35.0906C47.9489 34.804 48.0646 34.5252 48.1682 34.2425C48.2289 34.0784 48.3195 33.9358 48.4342 33.801C48.5449 33.6701 48.6396 33.5235 48.7322 33.3789C49.0024 32.9649 49.3287 32.6018 49.7213 32.3033C50.0663 32.0407 50.4355 31.8133 50.7946 31.5683C50.9017 31.4966 51.0488 31.4364 51.0999 31.3335C51.2316 31.0743 51.4558 30.9249 51.6719 30.7558C51.7611 30.6861 51.8362 30.5949 51.9093 30.5057C52.105 30.2736 52.2928 30.0377 52.4905 29.8076C52.9511 29.2661 53.3657 28.6953 53.6741 28.0563C53.8922 27.6032 54.0902 27.1385 54.2923 26.6777C54.3276 26.5986 54.3649 26.5135 54.3643 26.4307C54.3658 26.0876 54.4412 25.746 54.3371 25.4016C54.2758 25.197 54.2583 24.9763 54.1891 24.7756C53.9916 24.1953 53.7207 23.6609 53.1441 23.3139C52.9187 23.2859 52.6772 23.254 52.4278 23.2222C52.1417 23.0724 51.8551 22.8634 51.5224 23.1615C51.5471 23.2796 51.5698 23.3879 51.5864 23.4745C51.5138 23.6466 51.3867 23.7106 51.2476 23.7668C50.9613 23.8831 50.7255 24.076 50.5077 24.2865C50.28 24.507 50.0724 24.747 49.8487 24.9714C49.6449 25.1759 49.435 25.3745 49.221 25.5653C48.9278 25.8236 48.6587 26.1016 48.4277 26.4167C48.2934 26.603 48.1332 26.7717 47.9729 26.9364C47.7334 27.1846 47.4779 27.4171 47.2244 27.6515C46.9195 27.9375 46.6185 28.2275 46.2874 28.4842C46.1764 28.5717 46.0775 28.6749 45.9745 28.7703C45.8932 28.828 45.8495 28.8599 45.6713 29.0188C45.5781 29.0885 45.457 29.1662 45.35 29.2616C44.4347 30.0606 43.441 30.7596 42.4331 31.437C42.1117 31.6522 41.7419 31.8007 41.4669 32.0846C41.4174 32.1342 41.3458 32.1623 41.2863 32.2022C41.1295 32.3038 40.9728 32.4055 40.814 32.5051C40.6552 32.6048 40.4965 32.7085 40.3297 32.7964C39.561 33.1981 38.7925 33.6037 38.0178 33.9916C37.5927 34.2035 37.1474 34.3801 36.7122 34.5744C36.6327 34.6105 36.5432 34.6328 36.4757 34.6806C36.1762 34.8936 35.818 34.9789 35.4861 35.1212C34.8481 35.3918 34.1899 35.6153 33.5984 35.9822C33.5488 36.0121 33.4931 36.0322 33.4394 36.0503C32.9523 36.2331 32.4693 36.4278 32.0066 36.6735C31.9311 36.7135 31.8436 36.7338 31.762 36.76C31.6248 36.8063 31.4835 36.8408 31.3523 36.8969C31.1655 36.9771 30.9929 37.0907 30.804 37.157C30.1995 37.3663 29.6212 37.6326 29.045 37.9008C28.5344 38.139 28.0218 38.3752 27.5152 38.6212C27.1914 38.7793 26.8859 38.9864 26.5479 39.111C26.1522 39.2577 25.7828 39.4535 25.4053 39.6336C25.1451 39.7596 24.8848 39.8857 24.6185 40.0019C24.0621 40.2463 23.4936 40.4711 22.9472 40.7332C22.53 40.9332 22.125 41.1608 21.6895 41.3196C21.268 41.4724 20.9092 41.7529 20.4836 41.9018C20.0024 42.0708 19.594 42.3812 19.1451 42.613C18.9524 42.711 18.7537 42.8031 18.5671 42.9108C18.2812 43.0784 18.0055 43.2637 17.7196 43.4314C17.4456 43.591 17.1616 43.7369 16.8836 43.8887C16.5798 44.0545 16.2901 44.2458 15.9721 44.382C15.7157 44.4923 15.4774 44.6162 15.2493 44.7735C15.1778 44.8214 15.0923 44.8476 15.0168 44.8875C14.7528 45.0373 14.4626 45.1576 14.2347 45.3504C13.9672 45.5751 13.6775 45.7624 13.3898 45.9557C12.9454 46.2546 12.511 46.5671 12.0766 46.8758C11.9457 46.9674 11.8048 47.0492 11.6999 47.1663C11.3261 47.581 10.86 47.9096 10.5805 48.4084C10.547 48.4697 10.4815 48.5116 10.4321 48.5652C10.345 48.6604 10.252 48.7538 10.175 48.8549C9.90036 49.2058 9.62977 49.5606 9.35918 49.9154C9.26239 50.0403 9.14363 50.1594 9.08684 50.3038C8.94779 50.6537 8.74868 50.9686 8.56358 51.2894C8.47102 51.4497 8.40843 51.6197 8.36389 51.8034C8.30961 52.0207 8.26741 52.2536 8.11725 52.444C8.08366 52.4856 8.07613 52.5488 8.06058 52.6041C7.92688 53.1473 7.79318 53.6904 7.66147 54.2316C7.65957 54.2454 7.6537 54.2593 7.64781 54.2731C7.52811 54.5401 7.49226 54.8263 7.44841 55.1086C7.43317 55.2072 7.41791 55.306 7.39469 55.4047C7.23599 56.0762 7.13317 56.7552 7.08423 57.4437C7.06611 57.7002 7.07793 57.9623 7.03587 58.215C6.97284 58.6039 6.97556 58.9864 7.0381 59.3724C7.09852 59.7407 7.09123 60.1174 7.22731 60.4733C7.26593 60.5776 7.28876 60.7056 7.2656 60.8122C7.21347 61.0512 7.28875 61.2656 7.35209 61.484C7.49318 61.9819 7.6223 62.4799 7.77531 62.9737C7.90788 63.3967 8.07229 63.8116 8.21284 64.2346C8.31675 64.5513 8.43056 64.8581 8.60004 65.1448C8.67468 65.2685 8.71951 65.4063 8.7862 65.534C8.83875 65.6361 8.9052 65.7283 8.96369 65.8246C8.99603 65.8874 9.0323 65.9424 9.06657 65.9954ZM67.4198 10.7413C67.0229 10.4404 66.6816 10.0997 66.5803 9.58575C66.5596 9.47942 66.5249 9.35938 66.373 9.31311C66.1947 9.46815 66.0105 9.6252 65.8322 9.79206C65.7015 9.91522 65.5505 9.98331 65.3713 10.0122C65.2498 10.0307 65.1042 10.018 65.0056 10.1606C65.0448 10.3555 65.1081 10.5621 65.1275 10.773C65.1469 10.9759 65.0447 11.1857 65.0961 11.4042C65.1638 11.3879 65.2117 11.3915 65.2454 11.3696C65.3624 11.284 65.4934 11.2082 65.5824 11.0991C65.7009 10.9563 65.858 10.8902 66.017 10.822C66.1501 10.7679 66.2894 10.7275 66.359 10.7053C66.7618 10.7183 67.0947 10.7258 67.4277 10.7373C67.4377 10.7432 67.4477 10.749 67.4577 10.7548C67.4418 10.751 67.4298 10.7472 67.4198 10.7413ZM64.4395 11.5783C64.4454 11.5684 64.4533 11.5605 64.4573 11.5526C64.4534 11.5644 64.4494 11.5723 64.4455 11.5842C64.4062 11.6594 64.3609 11.7327 64.3295 11.8117C64.2336 12.051 64.1596 12.3039 64.0436 12.5354C63.8097 12.9964 63.5877 13.4653 63.3918 13.9438C63.3271 14.1001 63.2365 14.2584 63.1198 14.3795C62.9239 14.58 62.786 14.8137 62.6501 15.0492C62.5044 15.3026 62.3225 15.5208 62.1127 15.7234C61.8216 16.0034 61.5326 16.2854 61.2395 16.5635C61.1128 16.6827 60.982 16.794 60.8512 16.9053C60.4747 17.2234 60.07 17.5023 59.6472 17.7556C59.5777 17.7975 59.5184 17.8571 59.4371 17.9227C59.7999 18.2061 60.2701 18.1713 60.601 18.451C60.6764 18.6772 60.6359 18.8688 60.4675 19.0218C60.0557 18.8629 59.664 18.7197 59.2801 18.5607C58.8443 18.3823 58.405 18.271 57.9271 18.3532C57.6384 18.4006 57.3491 18.3651 57.0616 18.304C56.6044 18.2066 56.1457 18.1782 55.6777 18.2426C55.2595 18.3007 54.8411 18.3352 54.4228 18.3815C54.3372 18.3919 54.2495 18.4044 54.166 18.4247C53.591 18.5844 53.0627 18.8562 52.5322 19.1143C51.8807 19.4343 51.3238 19.9015 50.7266 20.3059C50.3338 20.5729 49.9773 20.8948 49.6207 21.2088C49.3711 21.4274 49.1315 21.6598 48.9481 21.9391C48.7982 22.1689 48.6423 22.3927 48.4724 22.6069C48.0872 23.0966 47.77 23.6253 47.4788 24.1715C47.3175 24.4763 47.1782 24.7947 47.0069 25.0936C46.8573 25.3549 46.7198 25.6398 46.5059 25.8464C46.0921 26.2456 45.6804 26.6546 45.1923 26.9735C44.8232 27.2127 44.4399 27.4145 43.9726 27.2994C43.9307 27.2898 43.8848 27.2842 43.8449 27.2885C43.821 27.2926 43.8013 27.3203 43.7696 27.3442C43.798 27.415 43.8304 27.4897 43.8649 27.5782C43.8053 27.6062 43.7537 27.6302 43.6921 27.6602C43.6548 27.7492 43.6137 27.8501 43.5725 27.9509C44.3009 28.3323 45.0566 28.3606 45.879 28.2425C46.152 27.9448 46.519 27.6879 46.8256 27.3565C47.2727 26.8683 47.7458 26.4017 48.1668 25.8881C48.2023 25.8445 48.2419 25.8008 48.2855 25.7611C48.6161 25.4413 48.9507 25.1215 49.2453 24.7665C49.3085 24.6912 49.3777 24.6059 49.4631 24.56C49.6697 24.456 49.786 24.2758 49.8983 24.0916C49.9594 23.9946 50.0025 23.8838 50.0676 23.7907C50.2787 23.4836 50.4277 23.1316 50.7209 22.8693C51.1923 22.7181 51.649 22.4705 52.0921 22.5384C52.348 22.6431 52.5162 22.7484 52.6958 22.7787C53.071 22.8431 53.4227 22.9669 53.7946 23.126C53.9818 23.3751 54.191 23.6339 54.3743 23.9067C54.5758 24.209 54.7117 24.5373 54.7641 24.9018C54.8039 25.1716 54.8855 25.4353 54.9093 25.7052C54.9332 25.9752 54.9032 26.2475 54.8991 26.5098C54.8283 26.6444 54.7514 26.7691 54.6985 26.9016C54.483 27.4355 54.2335 27.9519 53.946 28.4507C53.7531 28.7873 53.6081 29.1511 53.311 29.4213C53.2576 29.471 53.2382 29.55 53.2007 29.6114C52.986 29.9658 52.7832 30.3281 52.5184 30.6572C52.3643 30.8476 52.198 31.0183 52.0298 31.191C51.9071 31.3181 51.7763 31.4215 51.6315 31.5191C51.2009 31.808 50.7523 32.0753 50.348 32.4055C50.2806 32.4611 50.2072 32.507 50.1357 32.5548C49.598 32.8997 49.2088 33.3934 48.8835 33.9142C48.5563 34.437 48.3452 35.0261 48.2 35.6324C48.1671 35.7726 48.1501 35.9088 48.2054 36.1076C48.3151 35.8426 48.3913 35.6271 48.4916 35.4234C48.5937 35.2136 48.754 35.0489 48.9446 34.9292C49.0323 34.9286 49.102 34.9262 49.1578 34.9258C49.3574 34.674 49.5411 34.4381 49.7288 34.2021C49.7545 34.1684 49.7962 34.1464 49.8279 34.1186C49.9389 34.0271 50.0458 33.9318 50.1628 33.8462C50.3156 33.7366 50.4663 33.6252 50.6291 33.5334C50.8038 33.4336 50.9926 33.3553 51.1754 33.2673C51.241 33.2373 51.3086 33.2092 51.3762 33.189C51.5552 33.1326 51.7342 33.0761 51.9173 33.0275C52.0983 32.9809 52.2814 32.9323 52.4646 32.8995C52.9483 32.8074 53.4423 32.7527 53.9159 32.6272C54.9744 32.3477 55.9681 31.9228 56.8445 31.2542C57.1101 31.0513 57.3558 30.8327 57.5632 30.569C57.7687 30.3073 57.9742 30.0456 58.1977 29.8015C58.4905 29.484 58.8013 29.1801 59.1081 28.8763C59.1794 28.8048 59.2667 28.749 59.348 28.6913C59.582 28.5201 59.8241 28.3607 60.0501 28.1816C60.1908 28.0722 60.3358 27.9943 60.5048 27.9359C61.1015 27.7386 61.7116 27.7619 62.3105 27.8761C62.7357 27.9579 63.1357 28.1523 63.4707 28.4438C63.7395 28.6746 63.9248 28.9533 64.0309 29.2957C64.1595 29.7227 64.1466 30.1486 64.0619 30.5712C63.9714 31.0194 63.825 31.4601 63.7165 31.9065C63.6177 32.3114 63.5629 32.7239 63.6754 33.1392C63.7901 33.5682 63.9187 33.9952 64.0414 34.4203C64.0843 34.5718 64.1352 34.7233 64.1682 34.8768C64.2301 35.1722 64.2661 35.4697 64.2164 35.7737C64.1114 36.4271 63.9844 37.0707 63.7036 37.678C63.6389 37.8185 63.6181 37.9783 63.5753 38.1285C63.5436 38.1563 63.4899 38.1823 63.5601 38.243C63.5638 38.1956 63.5675 38.1601 63.5713 38.1246C63.6268 38.0847 63.6923 38.0508 63.7378 38.0012C63.8842 37.8424 64.0206 37.6778 64.167 37.519C64.1927 37.4893 64.2405 37.4811 64.2842 37.461C64.396 37.4839 64.5078 37.5068 64.6276 37.5296C64.7358 37.3376 64.8382 37.1516 64.9287 36.9893C65.0481 36.9608 65.1297 36.9425 65.2253 36.9221C65.3932 36.428 65.5592 35.9398 65.7252 35.4517C65.8521 35.0781 65.8234 34.6859 65.8566 34.3032C65.8621 34.2341 65.8436 34.1613 65.8271 34.0904C65.6669 33.4211 65.5624 32.7396 65.5356 32.0516C65.5261 31.8388 65.5365 31.6218 65.5529 31.4067C65.5785 31.0793 65.5781 30.7421 65.6556 30.4261C65.7971 29.8552 65.9406 29.2824 66.1779 28.7425C66.3721 28.2935 66.5223 27.8291 66.6345 27.3512C66.6713 27.1991 66.7061 27.0411 66.721 26.8872C66.7505 26.5597 66.788 26.2282 66.7777 25.9009C66.7673 25.5579 66.7091 25.2152 66.6648 24.8744C66.6585 24.8212 66.6103 24.7742 66.586 24.7231C66.4282 24.4008 66.2625 24.0826 66.1167 23.7562C65.9891 23.4712 65.929 23.1581 65.712 22.9112C65.6497 22.8387 65.6111 22.7344 65.5884 22.638C65.5328 22.38 65.4016 22.1542 65.2744 21.9323C64.9515 21.3706 64.6087 20.8169 64.0381 20.4758C63.9836 20.0897 63.9973 20.064 64.3792 19.9391C64.5779 20.125 64.7549 20.3565 65.043 20.5004C65.0704 20.4253 65.1019 20.3659 65.1154 20.3007C65.1403 20.1606 65.1592 20.0185 65.1741 19.8764C65.2081 19.6001 65.3619 19.3624 65.4258 19.0997C65.575 18.5013 65.7043 17.899 65.8376 17.2966C65.8685 17.1584 65.8755 17.0124 65.8864 16.8704C65.9085 16.6139 65.9227 16.3575 65.9448 16.101C65.9615 15.9293 66.0021 15.7575 66.0009 15.5879C65.997 15.3099 66.0649 15.0472 66.1208 14.7807C66.1748 14.5279 66.2588 14.2848 66.3188 14.0339C66.406 13.6764 66.573 13.3381 66.7101 12.9941C66.8943 12.5393 67.1245 12.1098 67.3727 11.6861C67.4357 11.5792 67.4787 11.4606 67.5278 11.3597C67.4997 11.3244 67.4896 11.3067 67.4796 11.3048C67.1223 11.2343 66.7633 11.2171 66.4009 11.2709C66.3312 11.2812 66.2576 11.2995 66.196 11.3334C65.8087 11.5313 65.4918 11.8214 65.157 12.1136C65.2805 12.3868 65.2465 12.6552 65.1906 12.9257C65.1598 13.0798 65.141 13.2376 65.1102 13.3916C65.0735 13.5595 65.0348 13.7254 64.9822 13.8894C64.7912 14.5099 64.4763 15.0799 64.1894 15.6577C64.0282 15.9782 63.835 16.2832 63.6518 16.5901C63.6183 16.6436 63.571 16.7228 63.4586 16.625C63.5875 16.2455 63.6883 15.8386 63.8631 15.4687C64.1007 14.9603 64.2883 14.4345 64.496 13.9165C64.5332 13.8235 64.5504 13.7228 64.5696 13.6241C64.6022 13.4405 64.6308 13.2569 64.6574 13.0714C64.6953 12.7872 64.7272 12.509 64.6136 12.2258C64.5225 12.0312 64.4929 11.7988 64.4395 11.5783ZM64.5872 11.037C64.5932 11.0468 64.5973 11.0547 64.6013 11.0665C64.6073 11.0566 64.6152 11.0486 64.6171 11.0388C64.617 11.0309 64.609 11.0191 64.6029 11.0093C64.597 11.0192 64.5911 11.0291 64.5872 11.037Z" fill="black"/>
<path id="Vector_4" d="M10.8618 66.9786C10.7597 67.1962 10.6306 67.2622 10.4509 67.2121C10.311 67.1737 10.1771 67.1253 10.0473 67.0848C9.96703 67.0144 9.89081 66.9479 9.81656 66.8794C9.60585 66.6817 9.51557 66.3195 9.62936 66.0624C9.66664 65.9773 9.74782 65.8999 9.82719 65.848C9.90854 65.7942 10.0121 65.7738 10.0956 65.7417C10.3033 65.8033 10.4278 65.9326 10.5029 66.1115C10.6245 66.4025 10.7422 66.6896 10.8618 66.9786ZM10.1709 66.5279C10.1523 66.4354 10.1379 66.3664 10.1192 66.27C10.0068 66.4383 10.0068 66.4383 10.1709 66.5279Z" fill="black"/>
<path id="Vector_5" d="M64.0551 22.0156C63.8858 22.0345 63.7444 22.0493 63.6249 22.0619C63.5008 21.9958 63.4564 21.9132 63.4536 21.8048C63.4507 21.6806 63.3803 21.5924 63.292 21.5102C63.1676 21.3888 63.0471 21.2674 62.9246 21.144C62.3947 20.6192 62.3429 20.6235 61.6009 20.2836C60.8429 19.9399 60.0519 19.7127 59.2608 19.4816C59.0951 19.4334 58.9214 19.409 58.7499 19.3865C58.5463 19.3603 58.5464 19.3643 58.258 19.177C58.2655 19.1099 58.2468 19.0095 58.2903 18.9579C58.3378 18.9024 58.4431 18.8602 58.5169 18.8696C58.7604 18.8994 59.0059 18.9431 59.2396 19.0105C59.5312 19.0952 59.8033 19.2313 60.1126 19.2706C60.2363 19.2855 60.3505 19.3774 60.4724 19.418C60.8561 19.5454 61.2182 19.7381 61.6234 19.8043C61.6513 19.8081 61.6793 19.8197 61.7053 19.8333C62.2995 20.1348 62.9055 20.4126 63.3754 20.9023C63.5843 21.1217 63.8031 21.3311 64.0179 21.5406C64.1685 21.6914 64.1748 21.7367 64.0551 22.0156Z" fill="black"/>
<path id="Vector_6" d="M57.3747 30.3967C57.2906 30.3381 57.2445 30.3049 57.2004 30.2737C57.1988 30.041 57.2691 29.8394 57.3554 29.6416C57.5829 29.1116 57.8464 28.5971 58.1679 28.1197C58.4401 27.7155 58.7664 27.3406 59.0987 26.9794C59.2807 26.781 59.5168 26.6236 59.739 26.4643C59.9591 26.3031 60.1873 26.1496 60.4255 26.0139C60.6002 25.9141 60.789 25.832 60.9799 25.7675C61.1669 25.7031 61.3465 25.7334 61.4891 25.8803C61.4544 26.0502 61.3191 26.0866 61.2079 26.1465C61.0173 26.2504 60.8165 26.3365 60.6279 26.4424C60.4651 26.5342 60.2983 26.626 60.1516 26.7414C59.6639 27.1273 59.1623 27.5035 58.8011 28.0167C58.4952 28.4506 58.1452 28.8573 57.9555 29.3653C57.8498 29.6461 57.7022 29.9133 57.5646 30.1824C57.5272 30.2517 57.4578 30.3054 57.3747 30.3967Z" fill="black"/>
<path id="Vector_7" d="M46.6532 26.6359C46.5885 26.5102 46.6497 26.425 46.7169 26.3496C46.9582 26.0837 47.2076 25.8256 47.4489 25.5637C47.4766 25.5319 47.5023 25.4943 47.5219 25.4587C47.9199 24.7894 48.426 24.1983 48.9181 23.5975C49.2818 23.1533 49.6534 22.7129 50.0511 22.2941C50.2767 22.056 50.5363 21.8392 50.8746 21.758C50.9144 21.7499 50.9563 21.7555 50.9882 21.7553C51.0784 21.8236 51.043 21.8949 51.0016 21.9523C50.97 21.9959 50.9184 22.0318 50.8728 22.0617C50.4044 22.3607 50.0084 22.7341 49.6726 23.1703C49.1906 23.7967 48.6926 24.4114 48.2247 25.0515C47.9878 25.3766 47.7669 25.7133 47.498 26.0149C47.3536 26.1756 47.2172 26.3441 47.0708 26.499C46.956 26.6181 46.821 26.6939 46.6532 26.6359Z" fill="black"/>
<path id="Vector_8" d="M54.7123 28.2659C54.702 28.2127 54.6697 28.1538 54.6833 28.1123C54.7927 27.7882 54.886 27.4602 55.0093 27.1379C55.2148 26.5903 55.4181 26.0289 55.4618 25.445C55.4983 24.9676 55.5566 24.4762 55.4236 23.9861C55.2274 23.8692 55.0133 23.7583 55.0332 23.4762C55.0424 23.3598 55.0363 23.35 55.2205 23.1811C55.3384 23.2177 55.4722 23.2621 55.5681 23.293C55.8473 23.5849 55.9133 23.8999 55.8859 24.2412C55.8549 24.6535 55.8399 25.0697 55.769 25.4783C55.7058 25.8436 55.6007 26.2032 55.4797 26.555C55.3137 27.0432 55.1217 27.5217 54.9338 28.0041C54.8966 28.101 54.8735 28.2273 54.7123 28.2659Z" fill="black"/>
<path id="Vector_9" d="M66.1799 11.5721C66.2717 11.5911 66.3516 11.6064 66.4194 11.6177C66.5424 11.8042 66.5318 11.9975 66.5111 12.1771C66.4812 12.4612 66.4314 12.7455 66.3576 13.0221C66.183 13.7016 65.9445 14.3657 65.8558 15.0663C65.8482 15.1177 65.8127 15.1731 65.7771 15.2128C65.7534 15.2406 65.7036 15.2468 65.638 15.2729C65.5956 15.2002 65.5334 15.1356 65.5169 15.0608C65.459 14.7694 65.5348 14.4908 65.6086 14.2143C65.7541 13.6592 65.9117 13.108 66.0533 12.5529C66.0862 12.4166 66.0911 12.2687 66.0822 12.1268C66.073 11.9533 66.0798 11.7877 66.1799 11.5721Z" fill="black"/>
<path id="Vector_10" d="M55.5101 31.1431C55.5186 31.2141 55.5209 31.2554 55.5292 31.3066C55.2197 31.506 54.8431 31.5342 54.5213 31.6942C54.1955 31.8542 53.8677 32.0083 53.5499 32.1761C53.2321 32.344 52.9205 32.5256 52.5909 32.7132C52.5286 32.6446 52.4743 32.5839 52.4241 32.527C52.4942 32.286 52.6889 32.2058 52.8657 32.1158C53.3683 31.8619 53.8768 31.6139 54.3834 31.3718C54.7252 31.2077 55.0852 31.1007 55.5101 31.1431Z" fill="black"/>
<path id="Vector_11" d="M64.6706 35.7113C64.7152 35.5355 64.7538 35.3577 64.8084 35.1838C64.8805 34.9566 64.865 34.7457 64.7956 34.5135C64.6691 34.1043 64.5565 33.689 64.5296 33.2593C64.516 33.0347 64.5203 32.796 64.5786 32.5787C64.6504 32.3121 64.6924 32.0475 64.6985 31.7754C64.7049 31.5545 64.7792 31.3568 64.8615 31.1591C64.8694 31.1393 64.9092 31.1311 64.9449 31.1112C64.9591 31.1485 64.9833 31.1839 64.9836 31.2193C64.9728 31.6631 64.932 32.1011 64.8254 32.5337C64.7808 32.7094 64.7662 32.8988 64.8493 33.0816C64.8817 33.1563 64.8943 33.2548 64.877 33.3358C64.8173 33.63 64.9129 33.8995 64.9846 34.177C65.1014 34.6277 65.1226 35.0791 64.9204 35.5163C64.8791 35.6014 64.8098 35.6709 64.7526 35.7482C64.7246 35.7365 64.6985 35.7229 64.6706 35.7113Z" fill="black"/>
<path id="Vector_12" d="M56.1273 20.0633C55.9642 20.1157 55.8331 20.1758 55.6977 20.2004C55.1562 20.2988 54.6495 20.529 54.0958 20.596C53.7492 20.6378 53.4232 20.7702 53.178 21.0519C53.0723 21.0388 52.9746 21.0297 52.8967 21.0203C52.8079 20.8632 52.871 20.7642 52.9843 20.7141C53.1949 20.618 53.4096 20.5298 53.6324 20.4651C53.9248 20.3783 54.2111 20.2777 54.5221 20.2716C54.6078 20.2691 54.6974 20.2546 54.7769 20.2225C55.1745 20.0699 55.6012 20.0788 56.0091 19.9833C56.033 19.9752 56.0692 20.0223 56.1273 20.0633Z" fill="black"/>
<path id="Vector_13" d="M63.4363 17.1082C63.239 17.3974 63.0297 17.671 62.7802 17.9093C62.604 18.0781 62.4337 18.2489 62.2515 18.4118C62.1901 18.4655 62.1046 18.5036 62.0251 18.5278C61.9355 18.554 61.8556 18.5191 61.817 18.4228C61.8201 18.2926 61.9192 18.2209 62.0044 18.1513C62.272 17.9345 62.5135 17.6923 62.7449 17.4363C62.8873 17.2776 63.0658 17.1502 63.2364 17.0228C63.2958 16.9711 63.3736 16.9804 63.4363 17.1082Z" fill="black"/>
<path id="Vector_14" d="M63.5732 19.8263C63.6222 19.9877 63.649 20.1235 63.4343 20.2039C63.3864 20.1884 63.3145 20.1732 63.2525 20.144C62.8784 19.9554 62.5121 19.7469 62.1124 19.6077C61.9945 19.5671 61.8843 19.4831 61.788 19.397C61.7178 19.3364 61.7132 19.2457 61.8123 19.174C62.4173 19.3138 62.9676 19.5998 63.5732 19.8263Z" fill="black"/>
<path id="Vector_15" d="M65.2185 16.5634C65.287 16.6655 65.3211 16.6948 65.3132 16.7106C65.0493 17.4361 64.8073 18.1752 64.2895 18.8098C64.2074 18.7532 64.1433 18.7103 64.0592 18.6517C64.501 17.9901 64.809 17.284 65.2185 16.5634Z" fill="black"/>
<path id="Vector_16" d="M64.6426 29.2263C64.6086 29.2088 64.5567 29.1973 64.5405 29.1698C64.4921 29.0834 64.4396 28.993 64.423 28.8985C64.3463 28.483 64.1563 28.1215 63.8949 27.796C63.8768 27.7744 63.8726 27.7429 63.8624 27.7173C63.8576 27.5991 63.9209 27.5316 64.0384 27.5209C64.1341 27.5124 64.2142 27.567 64.2447 27.6476C64.3891 28.0627 64.5316 28.4797 64.6622 28.9008C64.6928 28.9972 64.7415 29.1152 64.6426 29.2263Z" fill="black"/>
<path id="Vector_17" d="M65.5827 10.5706C65.5286 10.5295 65.4966 10.5179 65.4865 10.4963C65.4683 10.459 65.464 10.4156 65.4516 10.3566C65.5562 10.2119 65.6848 10.075 65.8336 9.96547C66.0973 9.77238 66.3288 9.81021 66.6099 10.0922C66.5684 10.1378 66.5291 10.2249 66.4833 10.2311C66.1547 10.2669 65.8725 10.4029 65.5827 10.5706Z" fill="black"/>
</g>
</g>
<defs>
<clipPath id="clip0_27_293">
<rect width="33.34" height="82.398" fill="white" transform="matrix(0.715875 0.698228 -0.706009 0.708203 58.1738 0)"/>
</clipPath>
</defs>
</svg>
