<svg width="63" height="93" viewBox="0 0 63 93" fill="none" xmlns="http://www.w3.org/2000/svg">
<g id="Frame" opacity="0.5" clip-path="url(#clip0_27_312)">
<g id="Group">
<path id="Vector" d="M55.4452 4.43609C53.2492 2.79487 50.8667 1.86095 48.1597 1.49014C46.8407 1.30473 45.4734 1.04378 44.1406 1.07125C42.6351 1.10558 41.2333 1.80602 39.7969 2.14937C36.7101 2.88414 33.5818 3.53651 30.6123 4.69703C29.1276 5.28073 27.8639 6.1185 26.2756 6.42752C24.853 6.7022 23.6652 7.54684 22.5051 8.37089C19.9154 10.2112 17.2015 11.8937 14.6188 13.7478C13.4724 14.5718 12.6645 15.7255 11.7598 16.7898C10.724 18.0053 9.6743 19.2002 8.65226 20.4294C6.8775 22.5719 5.86926 24.9067 5.51017 27.6672C5.37896 28.6561 5.33753 29.638 5.65519 30.5926C5.97976 31.5539 6.86368 32.2818 7.49901 33.0303C8.35531 34.0329 9.1909 35.008 9.79169 36.196C10.1232 36.8484 9.7986 37.0544 9.12875 37.0475C8.67297 37.0407 8.27935 37.0819 7.83048 37.1918C6.79463 37.4458 5.84855 38.0707 4.89556 38.524C3.71469 39.0802 2.49239 39.5952 1.35985 40.2338C0.627851 40.6459 0.227321 41.2296 -0.00747299 42.0124C-0.359663 43.2004 -1.21597 43.9832 -1.81676 45.0408C-1.81676 45.0476 -1.81676 45.0545 -1.82367 45.0545C-2.48661 45.5558 -2.76284 46.4073 -3.19099 47.1009C-3.9299 48.2888 -4.6619 49.3601 -5.09006 50.706C-5.47678 51.9421 -5.93946 53.2468 -6.20187 54.5104C-6.53335 56.076 -7.25844 57.4495 -7.65207 58.9945C-8.01116 60.3954 -8.28048 61.7963 -8.49456 63.2246C-8.72245 64.7628 -9.07464 66.2804 -9.2749 67.8255C-9.44064 69.1165 -9.28181 70.4693 -9.08154 71.7466C-8.85366 73.2436 -8.28048 74.6994 -8.1769 76.2033C-7.96973 79.1424 -6.98222 82.0883 -5.22127 84.4712C-4.39949 85.5836 -3.78488 86.6549 -2.63163 87.472C-1.41623 88.3304 -0.33204 89.3605 0.938606 90.1433C1.87778 90.727 2.93435 91.0566 4.02545 91.2214C5.71043 91.4755 7.33327 91.5717 8.99063 91.9837C11.6769 92.6566 14.6326 92.5056 17.3189 91.9425C18.631 91.6678 19.9016 91.2283 21.1377 90.7064C22.5879 90.0952 24.1624 89.5322 25.5505 88.8043C26.6692 88.2206 27.6153 87.0394 28.4025 86.078C29.4522 84.7939 30.5985 83.6403 31.6827 82.3905C33.4575 80.3441 33.5542 77.6247 34.5831 75.2282C35.1563 73.9028 35.9159 72.6874 36.4269 71.3346C36.6065 70.8607 36.7515 70.38 36.931 69.9131C37.083 69.5217 37.2832 69.2127 37.5871 68.9242C38.0912 68.4436 38.7956 68.9242 39.279 69.0959C40.3908 69.4805 41.6821 68.8899 42.7456 68.6358C44.2303 68.2856 45.6736 67.9285 47.11 67.4066C48.3945 66.9397 49.8654 66.4521 50.9772 65.6349C52.2409 64.7079 53.0627 63.3002 54.14 62.1808C55.1482 61.1302 56.0874 60.0521 56.9644 58.8915C57.8138 57.7653 58.7668 56.5705 59.3055 55.2657C59.782 54.119 59.7612 52.8211 59.8994 51.6125C60.0858 50.0125 60.4587 48.4399 60.6797 46.8468C60.7971 46.009 60.6797 45.1232 60.6521 44.2785C60.6175 43.3789 60.6728 42.4794 60.659 41.5729C60.6244 39.8905 60.0098 38.4003 59.5264 36.8141C58.4768 33.3188 57.4824 29.8097 55.7352 26.5822C55.3485 25.8749 54.8444 25.2431 54.43 24.5564C53.8085 23.5401 53.8983 22.4963 54.2712 21.4114C54.7891 19.9006 55.9079 18.1564 56.9782 16.9615C57.3788 16.522 57.8207 16.2542 58.0624 15.6911C58.3456 15.0182 58.6563 14.4207 59.0776 13.8233C59.5955 13.0885 59.8096 12.4018 59.2709 11.6808C59.2916 11.6465 59.2986 11.5984 59.2847 11.5434C58.5942 8.79664 57.8069 6.20091 55.4452 4.43609Z" fill="white"/>
<path id="Vector_2" d="M58.9532 12.5186C58.9049 12.601 58.8703 12.6834 58.8289 12.7658C58.746 12.7452 58.6424 12.7726 58.601 12.8482C58.4767 13.0405 58.4767 13.2465 58.525 13.4525C58.4007 13.7546 58.2764 14.0568 58.0969 14.3452C57.6549 15.0456 57.1715 15.7049 56.695 16.3778C55.6592 17.8474 54.7822 19.31 53.3458 20.45C52.6414 21.0131 51.8334 21.4663 50.9012 21.4663C50.0794 21.4732 49.1471 20.4843 48.4427 20.0792C47.8419 19.7358 47.179 19.5229 46.523 19.2963C45.6667 19.0079 44.9001 18.5341 44.0507 18.2182C41.2056 17.1469 37.7113 17.0714 34.7695 17.7306C34.072 17.8886 33.3676 18.3349 32.6978 18.5959C31.9451 18.8912 31.2614 19.3787 30.6054 19.8319C29.825 20.3744 29.0792 20.9581 28.2643 21.4457C27.6221 21.8371 26.9039 22.0431 26.3584 22.5787C26.2617 22.668 26.2548 22.8328 26.3791 22.9152C27.0075 23.3135 27.9812 22.7024 28.5267 22.4139C28.9618 22.1805 29.3692 21.9058 29.7767 21.6174C30.7849 20.9032 31.731 20.6354 32.9257 20.45C33.782 20.3195 34.5899 20.0173 35.4531 19.9212C36.4821 19.8113 37.5939 20.0517 38.6298 20.0585C40.6877 20.0723 42.8768 19.9899 44.8794 20.5255C46.592 20.9787 48.132 22.6268 49.4372 23.7461C51.0945 25.1607 52.3583 26.8569 53.7256 28.5324C54.3402 29.281 54.9755 30.0157 55.6177 30.7436C56.3636 31.5951 56.771 32.6321 57.2406 33.6484C58.0485 35.372 58.4215 37.2604 59.0292 39.0527C59.0499 39.3274 59.0361 39.6021 59.0637 39.8699C59.112 40.3849 59.2087 40.8931 59.264 41.4081C59.409 42.6991 59.5195 44.0107 59.5609 45.3086C59.63 47.6022 59.3537 49.8339 58.8634 52.0657C58.7046 52.8005 58.2281 54.3044 58.5596 55.0803C58.8358 55.7258 59.3952 55.0941 59.4642 54.6683C59.5747 53.9885 59.5195 53.3086 59.7612 52.6631C60.1133 51.7155 60.728 50.9464 60.9627 49.9507C61.4392 47.9455 61.7293 45.8511 61.9779 43.8047C62.0953 42.8296 61.9503 41.8545 61.9295 40.8725C61.9088 39.966 61.7569 39.1351 61.4254 38.2905C60.6589 36.3402 60.1686 34.3625 59.3261 32.4466C59.3675 32.3917 59.3883 32.3162 59.3606 32.2338C59.0015 31.3342 58.7875 30.5033 58.311 29.638C57.7999 28.711 57.1163 27.8869 56.4879 27.0354C55.8871 26.2183 54.4507 24.6182 55.4244 23.6637C56.0459 23.0526 56.7365 22.5581 57.3165 21.892C57.9864 21.1229 58.6424 20.3813 59.3675 19.6671C59.8855 19.1521 60.21 18.5959 60.2998 17.868C60.3896 17.1675 60.0581 16.4053 59.8233 15.7667C59.7957 15.6911 59.7335 15.5607 59.6576 15.389C59.6645 15.3615 59.6714 15.3272 59.6645 15.2928C59.6092 14.9426 59.554 14.5581 59.4642 14.1735C59.5333 14.1323 59.5885 14.0636 59.5816 13.9606C59.5333 13.5418 59.4987 13.1915 59.2847 12.8276C59.2916 12.8138 59.2985 12.8001 59.3054 12.7864C59.4435 12.5186 59.0913 12.2851 58.9532 12.5186Z" fill="white"/>
<path id="Vector_3" d="M35.6603 49.7859C34.7557 48.2614 33.561 46.9429 32.7185 45.3772C32.7185 45.336 32.7047 45.288 32.6701 45.2468C32.6425 45.2124 32.6218 45.185 32.5942 45.1506C32.5804 45.1163 32.5596 45.0957 32.5389 45.0751C31.8898 44.2716 31.2821 43.4339 30.5708 42.6716C29.8733 41.9231 29.0447 41.312 28.3541 40.5497C27.0075 39.0664 24.8322 38.0089 23.085 37.0613C22.2287 36.5943 21.3379 36.2853 20.3849 36.0793C19.4319 35.8664 18.5825 35.4269 17.6503 35.1522C16.7042 34.8776 15.7029 34.802 14.7223 34.7402C13.714 34.6784 12.7472 34.8776 11.739 34.8707L11.7321 34.8638C10.717 34.3557 9.64658 34.1771 8.68669 33.5248C8.18258 33.1814 7.6094 32.8175 6.98099 32.8999C6.86359 32.9136 6.79453 33.0372 6.80834 33.1471C6.91193 33.8887 7.40223 34.7814 7.87182 35.3583C8.29997 35.887 8.26544 36.0999 7.61631 36.3814C7.02242 36.6424 6.42163 36.869 5.82083 37.1094C4.63305 37.5763 3.65245 38.4278 2.70637 39.2519C1.73957 40.0965 0.648473 40.7969 -0.311417 41.6416C-0.608362 41.9025 -1.08485 42.651 -0.73957 43.0493C-0.456437 43.3721 0.116736 43.015 0.392963 42.8845C1.56693 42.3077 2.31965 41.5935 3.24501 40.6939C4.34301 39.6227 5.93823 39.0321 7.34008 38.4553C8.63144 37.9197 10.1162 37.9471 11.4835 37.8098C12.8025 37.6724 14.0869 37.4046 15.4197 37.4252C18.4168 37.4802 20.8683 39.1077 23.2301 40.7214C25.6263 42.3557 27.919 44.0107 29.5971 46.4279C30.3913 47.5678 31.1233 48.7283 31.945 49.8545C32.7323 50.9258 33.2709 52.0794 33.8234 53.2606C33.8165 53.3018 33.8165 53.343 33.8372 53.391C35.2943 56.5018 36.0608 59.8872 35.7017 63.3208C35.536 64.9345 35.2874 66.5276 35.2252 68.1483C35.1976 68.8693 35.3012 69.5972 35.2805 70.3182C35.2529 71.156 34.8109 71.9389 34.4794 72.6874C33.8027 74.2462 33.3331 75.8187 32.5389 77.3363C31.9174 78.5243 31.2476 79.7398 30.9575 81.0583C30.9023 81.3192 30.6951 82.6239 31.3166 82.5141C31.7448 82.4385 32.2075 81.7999 32.4353 81.278C32.4768 81.2574 32.5113 81.2231 32.5251 81.1613C32.7392 80.399 33.2226 79.8222 33.7129 79.2179C34.2032 78.6205 34.5692 77.9338 34.9421 77.2608C35.6879 75.9149 35.9158 74.3698 36.6133 73.017C37.3315 71.6161 37.8425 70.4212 38.0497 68.8418C38.2361 67.4272 39.1753 65.6349 38.8783 64.186C38.6919 63.2727 38.388 62.5104 38.4226 61.5559C38.4433 60.7868 38.4019 60.0864 38.2292 59.331C37.8494 57.6555 37.4627 56.028 37.1934 54.3318C36.9448 52.7043 36.5028 51.2073 35.6603 49.7859Z" fill="white"/>
<path id="Vector_4" d="M55.8388 24.4191C55.9769 24.6594 56.0528 24.8861 56.2048 25.0509C56.7987 25.7032 57.2406 26.4517 57.724 27.1796C58.898 28.9376 59.6783 30.8878 60.5692 32.7831C61.1216 33.9643 61.5705 35.2003 61.9503 36.4501C62.3439 37.7548 62.7583 39.0527 62.8964 40.433C62.9862 41.3326 63.0207 42.2184 62.9862 43.1248C62.9447 44.1137 62.9378 45.1026 62.779 46.0777C62.5994 47.1901 62.4682 48.3232 62.0263 49.3807C61.971 49.518 61.902 49.6485 61.8812 49.7927C61.6534 51.1593 61.0595 52.3953 60.5415 53.6589C60.4725 53.8237 60.3896 53.9747 60.3413 54.1464C60.0927 54.9911 59.6783 55.7602 59.2295 56.5087C58.6287 57.5044 58.0141 58.4932 57.3856 59.4752C56.9437 60.1619 56.3912 60.7525 55.7697 61.3018C54.7684 62.1877 53.7671 63.0804 52.8831 64.0967C52.1373 64.9551 51.3017 65.7311 50.4316 66.6169C49.9068 66.6581 49.3889 66.9465 48.9124 67.3654C48.2909 67.9148 47.5796 68.3062 46.7509 68.4641C46.4678 68.5191 46.1846 68.6221 45.9153 68.7251C45.0314 69.0684 44.0853 69.1028 43.1737 69.2813C42.5177 69.4049 41.8893 69.6315 41.2263 69.7345C40.3769 69.8581 39.5483 69.8925 38.6643 69.6109C38.6022 69.762 38.5124 69.9062 38.4779 70.0573C38.1947 71.2453 37.8564 72.4058 37.3799 73.5457C36.8274 74.8642 36.1921 76.1415 35.6535 77.4599C35.5775 77.6453 35.4808 77.8307 35.3703 78.0024C34.0099 80.2411 32.6219 82.4729 30.8402 84.4231C30.5225 84.7664 30.2256 85.1304 29.9701 85.5149C29.535 86.1536 28.9135 86.5931 28.3818 87.1356C28.3403 87.1768 28.292 87.2317 28.2436 87.2386C27.5531 87.3484 27.1664 87.9115 26.6899 88.3098C25.7852 89.0583 24.8391 89.7244 23.7619 90.2051C23.4442 90.3493 23.1542 90.5485 22.8503 90.727C22.726 90.8025 22.6017 90.8918 22.4705 90.9399C21.3794 91.345 20.3021 91.8257 19.1765 92.1279C17.747 92.5124 16.3037 92.9519 14.7776 92.8077C14.3494 92.7665 13.9005 92.7528 13.4931 92.9794C13.4033 93.0275 13.2652 93 13.1547 92.9931C12.7197 92.9588 12.2777 92.9245 11.8426 92.8832C11.67 92.8695 11.4766 92.8008 11.3247 92.842C10.7585 93.0137 10.2267 92.8352 9.68807 92.7116C8.92154 92.533 8.1481 92.3614 7.36086 92.3064C6.75315 92.2652 6.15236 92.1347 5.56538 91.9493C4.56405 91.6403 3.51439 91.4618 2.51997 91.1322C1.69129 90.8644 0.821171 90.6927 0.0615454 90.2257C-0.111096 90.1227 -0.304455 90.0334 -0.463286 89.9098C-1.07099 89.4154 -1.6925 88.921 -2.27258 88.3922C-2.94243 87.7811 -3.57775 87.1356 -4.21998 86.5038C-4.34428 86.3802 -4.46168 86.2497 -4.55836 86.1055C-4.80006 85.7415 -5.04866 85.3845 -5.26274 85.0068C-5.77376 84.1278 -6.27097 83.242 -6.77508 82.3561C-6.85795 82.205 -6.9201 82.0334 -7.02369 81.896C-7.54852 81.2162 -7.8938 80.4608 -8.10788 79.6299C-8.25981 79.0393 -8.51532 78.4831 -8.68796 77.8994C-8.79845 77.5423 -8.88822 77.1646 -8.90894 76.7938C-8.978 75.7775 -9.14373 74.7749 -9.31638 73.7723C-9.49592 72.7423 -9.60641 71.6985 -9.71691 70.6547C-9.79977 69.8719 -9.84811 69.089 -9.91026 68.3062C-9.92408 68.1002 -9.97242 67.901 -9.9586 67.695C-9.91717 66.9122 -9.86192 66.1293 -9.80668 65.3534C-9.76524 64.7697 -9.71 64.1929 -9.50283 63.6435C-9.44068 63.4856 -9.44068 63.3001 -9.41305 63.1285C-9.32328 62.4967 -9.2197 61.8718 -9.01253 61.2606C-8.88132 60.8761 -8.83298 60.4709 -8.7363 60.0726C-8.66034 59.7636 -8.57056 59.4546 -8.4946 59.1525C-8.43245 58.9259 -8.35649 58.7061 -8.31505 58.4795C-8.23218 58.0194 -8.15622 57.5662 -7.87999 57.1679C-7.78331 57.0306 -7.75569 56.8451 -7.70735 56.6735C-7.54161 56.0211 -7.32063 55.3962 -7.0444 54.785C-6.89248 54.4486 -6.83723 54.064 -6.75437 53.7001C-6.51957 52.6151 -6.08451 51.5919 -5.76685 50.5344C-5.66327 50.2047 -5.5804 49.8614 -5.49063 49.5249C-5.463 49.415 -5.44229 49.2983 -5.39395 49.1884C-4.95889 48.1721 -4.51692 47.1627 -4.06805 46.1532C-4.01281 46.0227 -3.94375 45.8854 -3.86088 45.7687C-3.28771 44.9995 -2.79741 44.1686 -2.23114 43.3927C-1.64416 42.5892 -0.974307 41.8613 -0.34589 41.1059C0.517321 40.069 1.50483 39.1832 2.54759 38.3317C3.4108 37.6244 4.33617 37.0269 5.3513 36.5668C5.58609 36.457 5.8416 36.3883 6.09021 36.299C6.31119 36.2166 6.53217 36.1342 6.73934 36.045C6.89817 35.9763 7.04319 35.887 7.25036 35.7771C7.13987 35.6535 7.08463 35.5643 7.00176 35.5025C6.50455 35.111 6.18689 34.6235 6.00734 34.0123C5.68277 32.9273 5.29606 31.8698 4.93005 30.7986C4.861 30.5925 4.72288 28.8689 4.75051 28.6492C4.78504 28.3882 4.81956 28.1342 4.81956 27.8732C4.81266 27.4337 4.87481 27.008 5.01983 26.5891C5.16485 26.1771 5.25462 25.7513 5.37202 25.3324C5.68968 24.2062 6.13855 23.135 6.78768 22.153C7.13987 21.6174 7.49897 21.0817 7.85806 20.5598C8.42433 19.7427 9.16324 19.0697 9.83309 18.3418C10.206 17.9366 10.5582 17.5109 10.9311 17.0989C11.1037 16.9066 11.2764 16.6937 11.4766 16.5358C12.0705 16.0619 12.5885 15.5126 13.0788 14.9289C13.2997 14.6611 13.5622 14.4207 13.8384 14.201C14.232 13.892 14.598 13.5692 14.8742 13.1435C14.9985 12.9512 15.1919 12.8001 15.3715 12.6559C16.138 12.031 16.9459 11.4542 17.7677 10.9048C18.8657 10.1838 19.9637 9.4696 21.0617 8.74857C21.186 8.66616 21.2896 8.57003 21.4001 8.47389C21.8697 8.0756 22.3738 7.74598 22.9263 7.46444C23.4718 7.18289 23.969 6.81894 24.487 6.50305C24.9358 6.22837 25.3778 5.94683 25.8474 5.71335C26.683 5.29446 27.5462 4.92364 28.3887 4.51849C29.2104 4.12707 30.0806 3.87299 30.9438 3.60517C32.0003 3.28242 33.05 2.9116 34.1135 2.58885C35.3703 2.2043 36.6341 1.84722 37.9254 1.59314C39.5344 1.27039 41.1366 0.940771 42.7663 0.782829C43.229 0.741627 43.6917 0.638622 44.1544 0.563085C44.9968 0.418877 45.8393 0.377675 46.6887 0.480681C47.9387 0.631755 49.161 0.927037 50.3626 1.29786C50.6388 1.38026 50.9288 1.42833 51.212 1.4764C52.1719 1.64121 53.0696 1.99142 53.9604 2.35538C54.2228 2.45838 54.4507 2.67126 54.6579 2.8704C55.4037 3.56397 56.1081 4.30561 56.8884 4.95797C57.2959 5.30133 57.6204 5.69961 57.9588 6.0979C58.2005 6.38631 58.4698 6.66099 58.7599 6.89447C59.0844 7.14855 59.2295 7.45757 59.2847 7.85586C59.5471 9.81295 59.92 11.7632 60.4932 13.6516C60.6935 14.3177 60.9006 14.9838 61.0249 15.6705C61.1631 16.4259 61.1631 17.1881 60.8592 17.9023C60.6175 18.4654 60.3551 19.0216 60.0167 19.5298C59.4988 20.2989 58.9532 21.0543 58.3179 21.741C57.6066 22.5032 56.9161 23.286 56.1357 23.9865C55.9976 24.062 55.9562 24.2131 55.8388 24.4191ZM58.5182 55.2657C58.5458 55.1833 58.5734 55.1078 58.601 55.0254C58.8773 54.9018 58.9394 54.6408 59.0361 54.4005C59.4574 53.343 59.8786 52.2923 60.286 51.2348C61.0526 49.2159 61.5912 47.1352 61.8191 44.9858C62.0263 43.0081 62.0194 41.0304 61.5636 39.087C61.3357 38.0982 61.0664 37.1231 60.7004 36.1617C60.1203 34.6372 59.5747 33.1059 58.8358 31.6501C58.5596 31.1076 58.2765 30.5651 57.9726 30.0363C57.7309 29.6174 57.5583 29.1573 57.289 28.7453C56.626 27.7153 55.9838 26.6852 55.1965 25.7444C54.4991 24.9135 53.7533 24.1513 52.8486 23.5401C52.0268 22.9839 51.2189 22.4071 50.4109 21.8302C49.2922 21.0199 48.063 20.4156 46.7923 19.88C45.715 19.4268 44.5963 19.0834 43.4776 18.7401C42.5591 18.4585 41.6683 18.0877 40.6946 17.9847C39.6518 17.8748 38.6091 17.71 37.5525 17.9023C37.2349 17.9572 36.9103 17.9572 36.5926 17.9778C35.6189 18.0534 34.6936 18.2731 33.8511 18.8087C33.4091 19.0903 32.9533 19.3581 32.4837 19.5916C31.6965 19.983 30.8954 20.3401 30.1013 20.7109C29.5488 20.9719 29.0102 21.2671 28.5268 21.6517C28.1884 21.9264 27.8086 22.1461 27.4564 22.4071C27.2838 22.5375 27.1456 22.7023 26.8763 22.9633C27.3528 22.8191 27.6152 22.6474 27.85 22.4208C28.4715 21.8371 29.2588 21.4869 29.9424 20.9993C30.198 20.8139 30.5087 20.6903 30.8126 20.5942C31.9865 20.2302 33.1605 19.8869 34.3897 19.7701C34.9698 19.7152 35.5499 19.6534 36.123 19.5435C37.3661 19.3032 38.6022 19.1658 39.8659 19.3444C40.8189 19.4748 41.7995 19.4611 42.7387 19.6603C43.7607 19.88 44.7897 20.1272 45.7565 20.5667C45.9429 20.6491 46.1294 20.7452 46.3227 20.7864C46.6197 20.8482 46.8545 20.9925 47.0824 21.1847C47.4553 21.5075 47.8627 21.7959 48.277 22.0706C49.0574 22.5856 49.8032 23.1418 50.5007 23.7599C51.6608 24.783 52.7036 25.9161 53.622 27.1659C54.0364 27.729 54.4922 28.2578 54.9272 28.8003C55.1275 29.0475 55.3278 29.2947 55.5211 29.5488C55.6592 29.7342 55.7697 29.947 55.9078 30.1325C56.702 31.1831 57.3028 32.3368 57.7516 33.5728C58.0279 34.3351 58.2972 35.1042 58.5803 35.8595C58.8496 36.5668 59.0775 37.2879 59.2226 38.0295C59.409 38.9978 59.5955 39.9729 59.7819 40.9411C59.8303 41.1952 59.8579 41.463 59.8786 41.724C59.9546 42.8502 59.9753 43.9901 60.1134 45.1094C60.2515 46.2493 60.0996 47.3687 60.0512 48.4949C60.0167 49.4288 59.8026 50.3352 59.6093 51.2485C59.5057 51.7292 59.3745 52.2099 59.2226 52.6769C58.974 53.4528 58.6563 54.2082 58.6079 55.0323C58.5803 55.1147 58.5527 55.1902 58.5251 55.2726L58.4975 55.3275L58.5182 55.2657ZM-0.442569 43.1592C-0.497814 43.2073 -0.55306 43.2485 -0.470192 43.1867C-0.518532 43.2759 -0.484003 43.2141 -0.456381 43.1523C-0.373512 43.0493 -0.29755 42.9463 -0.214682 42.8433C0.0753574 42.6854 0.330868 42.4931 0.427547 42.1497C0.745209 41.9506 1.13883 41.8133 1.37363 41.5386C1.96061 40.8725 2.69952 40.4055 3.34175 39.8081C3.74918 39.4235 4.24639 39.1763 4.76432 38.9703C5.49632 38.675 6.24213 38.4415 6.98795 38.2012C8.47958 37.7342 9.99883 37.5008 11.5526 37.4458C12.2017 37.4252 12.8371 37.4184 13.4448 37.1437C13.5483 37.0956 13.6727 37.0956 13.79 37.075C14.5704 36.9377 15.3438 36.9651 16.1449 37.0407C17.6296 37.1917 18.9969 37.6106 20.3159 38.2699C20.8891 38.5583 21.4899 38.7918 22.07 39.0596C22.3048 39.1694 22.5465 39.2862 22.7605 39.4373C23.8102 40.172 24.8806 40.8793 25.951 41.5798C26.9523 42.2321 27.7879 43.015 28.513 43.9283C29.3624 44.9995 30.1289 46.1257 30.93 47.2313C30.8471 47.3961 30.8954 47.506 31.0819 47.5472C31.2752 47.9386 31.441 48.3438 31.662 48.7215C32.0003 49.2914 32.3318 49.8614 32.5321 50.5069C32.6288 50.8296 32.8636 51.07 33.1467 51.276C33.1743 51.1799 33.2019 51.0837 33.2365 50.967C33.4989 51.3103 33.5886 51.6605 33.5127 52.0176C33.6439 52.1138 33.7406 52.1824 33.8096 52.2374C33.9063 52.5052 33.9685 52.7661 34.0928 52.9928C34.6107 53.9473 34.9214 54.9773 35.1493 56.028C35.3565 56.9894 35.5775 57.9576 35.7156 58.9327C35.8261 59.7087 35.9021 60.4847 35.8813 61.2744C35.8606 61.9954 35.9228 62.7233 35.9642 63.4512C36.0954 65.5113 36.1368 67.5646 35.7916 69.6109C35.7363 69.9268 35.7156 70.2427 35.6742 70.5586C35.6535 70.7028 35.6258 70.847 35.5775 70.9843C35.1355 72.2753 34.7212 73.5801 34.224 74.8505C33.6646 76.2857 33.0293 77.6865 32.4216 79.108C32.1937 79.6368 31.9658 80.1724 31.731 80.6943C31.4893 81.2231 31.2338 81.7381 30.9852 82.26L30.9645 82.308L30.9714 82.2531C31.4341 81.848 31.8553 81.4085 32.1868 80.8866C32.7393 80.0007 33.2917 79.1012 33.8511 78.2222C34.6936 76.89 35.391 75.4822 36.0402 74.0539C36.1023 73.9234 36.1161 73.7723 36.1645 73.635C36.2612 73.3603 36.3509 73.0856 36.4614 72.8247C36.7307 72.1517 37.0553 71.4925 37.2832 70.8058C37.518 70.0916 37.663 69.35 37.8495 68.6152C38.0843 67.6882 38.4295 66.7817 38.2983 65.7929C38.4848 64.6323 38.3329 63.4718 38.3121 62.3113C38.3052 61.9336 38.2707 61.5422 38.1533 61.192C37.8909 60.4091 37.8978 59.5851 37.7321 58.7954C37.5456 57.9164 37.4766 57.0168 37.3384 56.131C37.1865 55.1559 36.9793 54.1945 36.8619 53.2125C36.7929 52.6769 36.6203 52.1893 36.3509 51.743C35.9987 51.1799 35.7294 50.5687 35.3979 49.9987C35.0181 49.3464 34.6659 48.6803 34.2171 48.0691C34.079 47.8837 33.9132 47.712 33.7958 47.5129C33.2986 46.6202 32.684 45.8099 32.028 45.027C31.6827 44.6219 31.3029 44.2854 30.8678 43.9764C30.4673 43.6879 30.0737 43.3721 29.7491 43.0012C29.0033 42.1429 28.2367 41.3188 27.3666 40.5841C27.2078 40.4536 27.0766 40.2956 26.9316 40.1514C26.7865 40.0141 26.6484 39.8562 26.4758 39.7463C25.6885 39.245 24.9565 38.6613 24.0657 38.3248C23.9069 38.263 23.755 38.16 23.6099 38.0707C22.8296 37.6106 22.0354 37.178 21.1722 36.9033C19.9223 36.505 18.6655 36.1274 17.4155 35.7222C16.8562 35.5437 16.2899 35.4407 15.696 35.4613C14.9364 35.4887 14.1768 35.4681 13.4171 35.4956C12.9199 35.5093 12.4089 35.4956 11.9324 35.6055C11.2557 35.7634 10.5927 36.0038 9.94358 36.2578C9.53615 36.4158 9.12871 36.5737 8.70056 36.6767C8.27931 36.7797 7.86497 36.9239 7.45063 37.0613C7.03629 37.1986 6.61504 37.3291 6.21451 37.5076C5.65515 37.7548 5.07507 37.9883 4.57786 38.3317C3.93564 38.7712 3.25197 39.1763 2.73405 39.7806C2.64427 39.8905 2.49925 39.9523 2.38876 40.0484C1.67057 40.6047 1.1043 41.312 0.489698 41.9712C0.45517 42.0055 0.45517 42.0811 0.441359 42.136C0.137508 42.2871 -0.104191 42.4931 -0.200871 42.8296C-0.276833 42.9532 -0.359701 43.0562 -0.442569 43.1592ZM47.2205 67.0221C47.3931 67.1045 47.4967 67.0495 47.5381 66.871C47.9525 66.6032 48.3875 66.356 48.7812 66.0607C49.3889 65.6075 50.0173 65.168 50.5421 64.6255C51.5089 63.6229 52.4205 62.5585 53.3251 61.4941C53.8361 60.8967 54.2436 60.2169 54.7546 59.6194C55.5349 58.6992 56.0874 57.6417 56.7296 56.6391C56.8056 56.5155 56.8815 56.3851 56.9299 56.2546C57.358 55.046 57.8276 53.8511 58.1798 52.6219C58.5665 51.2829 58.822 49.9095 58.9463 48.5155C59.0016 47.9043 59.0568 47.3 59.0499 46.6888C59.043 45.7892 58.9878 44.8897 58.9325 43.9901C58.8013 41.9506 58.4491 39.9523 58.0003 37.9609C57.7516 36.8827 57.5099 35.7977 57.0473 34.7952C56.5708 33.772 56.2807 32.6733 55.6316 31.7119C54.9963 30.778 54.4714 29.7616 53.6566 28.9513C53.553 28.8483 53.4563 28.7385 53.3665 28.6217C52.4757 27.4337 51.5365 26.2869 50.4731 25.2431C49.6996 24.4809 48.8917 23.7805 47.987 23.183C47.2343 22.6817 46.4816 22.1805 45.7288 21.6792C45.5838 21.583 45.425 21.5006 45.2593 21.4594C44.327 21.2328 43.3809 21.0405 42.4556 20.7864C41.9652 20.6491 41.468 20.6903 40.9777 20.656C40.1629 20.5873 39.348 20.5392 38.5331 20.5804C36.344 20.6903 34.1756 21.0268 32.0072 21.3358C31.296 21.4388 30.6192 21.7547 29.9286 21.9813C29.7905 22.0294 29.6524 22.098 29.5488 22.1942C29.1828 22.5513 28.727 22.7504 28.2782 22.9633C27.8984 23.1418 27.5669 23.3684 27.3459 23.7324C27.1664 24.0139 26.9247 24.2131 26.6208 24.3367C26.462 24.4054 26.2824 24.4672 26.1581 24.5839C25.3847 25.2981 24.3696 25.6895 23.6514 26.4792C23.5547 26.5822 23.4028 26.6303 23.2923 26.7195C23.0437 26.9187 22.7812 27.111 22.5603 27.3376C22.3807 27.523 22.2771 27.7908 22.0907 27.9625C21.3725 28.6217 20.896 29.4664 20.2676 30.1943C20.1916 30.2835 20.0949 30.3659 20.0604 30.4689C19.8671 30.984 19.4665 31.3204 19.0453 31.6363C18.8864 31.7599 18.7276 31.9041 18.6378 32.0827C18.2028 32.8999 17.7953 33.7308 17.3672 34.5823C17.8299 34.7677 18.2511 34.96 18.6793 35.111C19.2041 35.2896 19.7428 35.4338 20.2676 35.6055C21.0755 35.8664 21.8973 36.0724 22.6362 36.505C23.2646 36.8759 23.8931 37.2536 24.5491 37.5763C25.7645 38.1669 26.8901 38.8879 27.8638 39.8287C28.513 40.4536 29.2035 41.051 29.8112 41.7171C30.3637 42.3214 30.93 42.9051 31.5791 43.4133C32.1799 43.8802 32.684 44.4433 33.1743 45.0339C34.0859 46.1326 34.7833 47.3824 35.6189 48.5361C35.9573 49.003 36.2473 49.5112 36.5305 50.0193C36.7998 50.5 37.0208 51.015 37.2832 51.5026C37.7942 52.464 38.1119 53.4803 38.2155 54.5722C38.2638 55.1215 38.326 55.6778 38.4364 56.2134C38.7334 57.6074 38.9475 59.0151 39.0718 60.4297C39.0856 60.6014 39.0994 60.7799 39.1477 60.9448C39.4516 61.9954 39.4723 63.0667 39.4447 64.1448C39.4378 64.3439 39.4654 64.5499 39.4792 64.7491C39.5414 65.8341 39.5206 66.8985 39.0994 67.9285C39.0234 68.1139 38.9751 68.3062 38.8991 68.5603C39.0925 68.4916 39.2237 68.4435 39.4032 68.3817C39.8521 68.6152 40.3631 68.6633 40.9018 68.5671C41.3921 68.4779 41.8824 68.4367 42.3727 68.3543C42.9804 68.2513 43.5743 68.1002 44.182 68.0041C45.2178 67.8186 46.2468 67.5096 47.2205 67.0221ZM10.7515 91.1047C10.9242 91.1734 11.0278 91.2146 11.1383 91.2558C11.9946 91.5923 12.8647 91.7914 13.79 91.606C13.9903 91.5648 14.1975 91.5785 14.4047 91.5785C15.4612 91.5648 16.504 91.4618 17.5398 91.2558C18.6033 91.0429 19.653 90.7957 20.6612 90.4111C21.7523 89.9991 22.8158 89.5253 23.8033 88.8798C24.2936 88.5639 24.7977 88.2686 25.2604 87.9115C25.7438 87.5407 26.1788 87.1081 26.6346 86.6961C27.0973 86.2772 28.5613 84.4093 28.7754 83.8531C28.9757 83.3312 29.245 82.8505 29.5419 82.3904C30.0806 81.5458 30.4811 80.6462 30.7642 79.6917C30.8816 79.2934 31.075 78.9432 31.3374 78.6205C31.5169 78.3938 31.6758 78.1398 31.7932 77.8788C32.0556 77.2951 32.3111 76.7046 32.5183 76.1071C32.8221 75.2213 33.2019 74.3835 33.6784 73.5801C33.7544 73.4565 33.8027 73.3191 33.8511 73.1818C34.3897 71.7603 34.811 70.3114 34.7626 68.7663C34.7557 68.5328 34.7764 68.2993 34.7833 68.0659C34.7971 67.4272 34.811 66.7886 34.8248 66.15C34.8317 65.8615 34.8662 65.5731 34.8524 65.2847C34.8179 64.2135 34.7695 63.1422 34.7281 62.0641C34.7143 61.6315 34.7143 61.192 34.6936 60.7593C34.6383 59.5096 34.4864 58.2666 34.2309 57.0443C33.9547 55.6984 33.6163 54.3799 32.9395 53.1713C32.5252 52.4365 32.1108 51.7018 31.7034 50.967C31.5377 50.658 31.4065 50.3284 31.22 50.0331C30.5363 48.9481 29.8181 47.8906 29.1483 46.7987C28.5061 45.7549 27.7879 44.7729 26.9454 43.8871C26.828 43.7635 26.7106 43.6193 26.5725 43.5231C25.8819 43.0356 25.1775 42.5618 24.487 42.0811C24.0795 41.7995 23.679 41.5042 23.2716 41.2296C22.7398 40.8725 22.215 40.4948 21.6556 40.1858C21.2275 39.9454 20.7441 39.8012 20.2883 39.6089C19.2939 39.19 18.334 38.6956 17.2636 38.4553C16.3728 38.2561 15.4888 38.1257 14.6187 38.16C14.4254 38.3317 14.2734 38.4621 14.1146 38.5995C13.3343 38.5239 12.5746 38.5239 11.8426 38.7712C11.5595 38.8673 11.2695 38.7986 10.9794 38.7574C10.5513 38.6888 10.0886 38.6064 9.67426 38.6819C8.52792 38.8879 7.36776 39.1008 6.29047 39.5746C5.41345 39.9592 4.51571 40.3094 3.75609 40.9343C3.46605 41.1746 3.15529 41.3806 2.89288 41.6622C2.63737 41.9369 2.33352 42.1703 2.02967 42.3969C1.00762 43.1798 0.0546398 44.0382 -0.74642 45.0476C-1.07099 45.4596 -1.36793 45.8923 -1.71321 46.2905C-2.70073 47.4511 -3.43964 48.7764 -4.17164 50.1017C-4.33047 50.3833 -4.50311 50.658 -4.6067 50.9532C-5.10391 52.4159 -5.67017 53.8511 -6.27787 55.2657C-7.13418 57.2572 -7.56924 59.3722 -8.11479 61.4529C-8.3772 62.4898 -8.57056 63.5474 -8.7363 64.6117C-8.8606 65.4221 -8.978 66.2255 -8.97109 67.0427C-8.96419 67.6813 -8.91585 68.3199 -8.86751 68.9586C-8.79154 70.0023 -8.72939 71.0461 -8.59818 72.0899C-8.41173 73.5595 -8.17003 75.029 -7.94905 76.4917C-7.79712 77.5011 -7.47256 78.4694 -7.13418 79.4308C-6.98225 79.8634 -6.71984 80.2617 -6.49886 80.6737C-6.33312 80.9758 -6.13285 81.2643 -5.96021 81.5664C-5.829 81.793 -5.73232 82.0402 -5.59421 82.2668C-5.15225 82.981 -4.65504 83.6746 -4.2476 84.4093C-3.79873 85.2128 -3.19103 85.872 -2.53499 86.4969C-1.75465 87.2386 -0.932873 87.9459 -0.131813 88.6669C0.15132 88.921 0.45517 89.1476 0.828077 89.2712C2.02276 89.6558 3.21744 90.0403 4.41903 90.4249C4.52952 90.4592 4.64692 90.4592 4.76432 90.4729C6.01425 90.6171 7.23655 90.9193 8.46576 91.1802C8.94916 91.2832 9.43256 91.4068 9.85381 91.503C10.1784 91.3519 10.4408 91.2352 10.7515 91.1047ZM22.4774 8.90651C22.4291 9.07132 22.4291 9.19492 22.3807 9.22239C21.6004 9.72368 20.8062 10.2112 20.019 10.7057C19.2041 11.2207 18.403 11.7495 17.5813 12.2439C17.0012 12.5941 16.5178 13.0542 16.0068 13.4868C15.7167 13.7272 15.4198 13.9675 15.1505 14.2284C14.2596 15.1074 13.3895 16.0139 12.4849 16.886C11.8772 17.4765 11.2764 18.074 10.7792 18.7607C10.5582 19.0628 10.2751 19.3306 10.0472 19.6259C9.49471 20.3401 8.7558 20.8895 8.28622 21.6723C7.55421 22.8946 6.72553 24.0483 6.40787 25.4766C6.20761 26.3831 5.9521 27.2758 5.82779 28.196C5.73802 28.8415 5.87613 29.4389 6.13855 29.9676C6.55289 30.7986 7.10534 31.5677 7.8995 32.1102C8.25859 32.3574 8.64531 32.5702 8.9906 32.8381C9.39113 33.1471 9.84 33.3531 10.3234 33.4904C11.083 33.7033 11.8703 33.8406 12.6023 34.1153C13.1685 34.3282 13.721 34.4037 14.308 34.4106C14.7499 34.4175 15.185 34.4381 15.627 34.4381C15.8272 34.4381 16.0206 34.4106 16.1932 34.3969C17.0979 32.5977 17.747 31.5333 18.9417 29.9814C19.5425 29.1985 20.1295 28.3951 20.7855 27.6603C21.3034 27.0766 21.7178 26.3899 22.3324 25.9024C22.9815 25.3942 23.4718 24.7418 24.0726 24.1925C24.3074 23.9727 24.5698 23.7667 24.7494 23.5127C25.2604 22.7779 25.9717 22.2629 26.6761 21.7478C27.8569 20.8963 29.0723 20.0929 30.2808 19.2826C30.4742 19.1521 30.6952 19.0422 30.9161 19.001C31.8829 18.8019 32.6771 18.2457 33.713 17.7924C32.9948 17.6276 32.4078 17.504 32.0487 17.0027C31.6965 16.5152 31.3236 16.0207 31.586 15.3546C31.8208 15.2791 31.9796 15.334 32.0556 15.5194C32.1385 15.7323 32.1799 15.9658 32.2489 16.1855C32.3456 16.5014 32.4976 16.7898 32.7876 16.9547C33.3124 17.2499 33.9063 17.4216 34.4726 17.2362C35.2598 16.9684 36.0816 16.9203 36.8827 16.8036C37.6561 16.6937 38.4503 16.5907 39.2444 16.6594C39.8245 16.7074 40.4115 16.7074 40.9985 16.7555C41.2885 16.783 41.5716 16.8654 41.8479 16.9478C42.5729 17.1675 43.2842 17.4491 44.0231 17.6345C45.6115 18.0396 47.1376 18.6302 48.65 19.2482C49.0505 19.413 49.4441 19.6191 49.817 19.8388C50.1899 20.0585 50.5352 20.3332 50.9081 20.5667C51.0738 20.6697 51.2741 20.7246 51.3915 20.7727C51.7092 20.5873 51.944 20.4088 52.2064 20.292C52.9384 19.9693 53.6013 19.5641 54.14 18.9667C54.3955 18.6851 54.6993 18.4517 54.9479 18.1632C55.3278 17.7238 55.7145 17.2774 56.0252 16.7898C56.5293 15.9727 56.9851 15.128 57.434 14.2834C57.8829 13.4525 58.1107 12.5392 58.2834 11.6327C58.4767 10.5958 58.3041 9.54514 58.0624 8.52196C58.0141 8.32968 57.9174 8.14427 57.8138 7.96573C57.2268 6.99061 56.481 6.1391 55.6385 5.37C55.162 4.93737 54.6717 4.52535 54.2159 4.079C53.5668 3.44036 52.7519 3.13822 51.9094 2.88414C51.3225 2.70559 50.7217 2.58199 50.1278 2.43778C49.0505 2.17683 47.9732 1.90215 46.889 1.65494C46.2261 1.50387 45.5493 1.5176 44.8794 1.6C43.9817 1.70988 43.0771 1.83348 42.1793 1.94335C41.2194 2.06009 40.2526 2.1219 39.3066 2.30044C37.587 2.62319 35.8813 3.02148 34.224 3.63264C33.5127 3.89359 32.7738 4.079 32.0487 4.29874C31.6896 4.40861 31.3167 4.50475 30.9645 4.64209C30.5018 4.82063 30.0529 5.04038 29.5972 5.23952C28.8237 5.58287 28.0986 6.04296 27.2561 6.22151C27.1525 6.25584 27.0421 6.31764 26.9523 6.38631C26.4344 6.83267 25.7921 7.05928 25.1913 7.35456C24.6389 7.62924 24.1071 7.93826 23.6514 8.35028C23.313 8.6593 22.947 8.85844 22.4774 8.90651ZM54.9134 23.5539C55.2034 23.2723 55.4382 22.9564 55.749 22.7504C56.3015 22.3865 56.6951 21.892 57.1301 21.4182C57.3304 21.2053 57.5169 20.9787 57.7033 20.759C58.3732 19.9487 58.967 19.0903 59.4781 18.1701C59.7543 17.6757 59.8786 17.1469 59.7888 16.577C59.6921 15.9795 59.6507 15.3684 59.5264 14.7778C59.4366 14.3589 59.409 13.9057 59.0775 13.5417C58.9256 13.9263 58.822 14.3246 58.6287 14.6679C58.1107 15.6156 57.5859 16.5564 57.0196 17.4697C56.3567 18.5409 55.4797 19.4405 54.4853 20.2234C53.8914 20.6903 53.2768 21.1229 52.6483 21.583C52.7796 21.844 52.9798 22.0637 53.2491 22.256C53.6773 22.565 54.0709 22.9084 54.4853 23.238C54.6234 23.341 54.7615 23.444 54.9134 23.5539ZM9.92286 34.9256C9.34969 34.6097 8.88701 34.3763 8.44505 34.1085C7.97546 33.82 7.5335 33.5042 7.07082 33.202C7.0501 33.1883 6.98795 33.2363 6.93961 33.2638C7.05701 33.7102 7.40919 33.9917 7.65089 34.3419C7.89259 34.6922 8.15501 35.0424 8.39671 35.3789C8.96988 35.4887 9.3566 35.1316 9.92286 34.9256Z" fill="black"/>
<path id="Vector_5" d="M48.7466 0.185402C48.4773 0.391412 48.3461 0.336476 48.2632 0.0755293C48.4427 -0.0892791 48.567 0.0411942 48.7466 0.185402Z" fill="black"/>
<path id="Vector_6" d="M-0.898374 70.6616C-0.290673 70.8882 -0.290674 70.8882 -0.359731 71.7191C-0.463316 71.7054 -0.566901 71.6985 -0.698109 71.6848C-0.939808 71.9595 -1.14007 72.2547 -1.11245 72.6668C-1.09864 72.811 -1.12626 72.9552 -1.14698 73.0994C-1.25056 73.8479 -1.05721 74.5209 -0.684298 75.1801C-0.339014 75.7913 0.192724 76.0179 0.834953 76.0041C1.78794 75.9835 2.66496 75.6882 3.42459 75.0977C3.65247 74.9191 3.88036 74.7406 4.30161 74.6857C4.21183 74.8161 4.17731 74.8917 4.12206 74.9535C3.48674 75.647 2.75473 76.2239 1.8639 76.5466C1.04903 76.8488 0.241064 76.7114 -0.511656 76.3543C-0.967431 76.1346 -1.27128 75.702 -1.4163 75.2213C-1.87898 73.6556 -1.85826 72.138 -0.898374 70.6616Z" fill="black"/>
<path id="Vector_7" d="M26.2065 64.2135C26.3446 64.5156 26.2134 64.7834 26.0615 65.0306C25.4607 66.0264 24.777 66.9534 23.8378 67.6744C23.7481 67.7431 23.6721 67.8255 23.5547 67.9217C23.6445 68.1483 23.7411 68.3474 23.8171 68.5603C24.0657 69.2813 24.2315 70.0024 23.8793 70.7371H23.8862C23.8447 70.5105 23.8102 70.277 23.755 70.0573C23.6721 69.7208 23.5823 69.3843 23.4718 69.0547C23.3061 68.574 22.9953 68.2856 22.436 68.265C22.1874 68.2581 21.9388 68.1208 21.6073 68.0178C21.0825 68.0659 20.6267 68.4504 20.1571 68.7594C19.8671 68.6427 19.8671 68.4367 19.9775 68.2513C20.385 67.5989 21.0134 67.338 21.7592 67.3448C21.8766 67.3448 22.0009 67.3586 22.1045 67.4066C22.802 67.7225 23.3337 67.441 23.8516 66.9877C24.5077 66.4041 25.1361 65.8066 25.5573 65.0169C25.7231 64.7148 25.8612 64.3851 26.1996 64.2066L26.2065 64.2135Z" fill="black"/>
<path id="Vector_8" d="M21.0756 81.9441C21.0203 82.466 20.6543 82.7475 20.2538 82.9948C20.0881 83.0978 19.9016 83.1664 19.7152 83.2557C19.653 83.2214 19.5771 83.187 19.5011 83.1458C19.2732 83.2214 19.0591 83.3106 18.8381 83.3724C18.1338 83.5647 18.1338 83.5578 17.747 84.2102C17.7194 83.9561 17.7056 83.7776 17.6849 83.5922C17.1739 83.5647 16.6836 83.5441 16.1933 83.5029C15.993 83.4823 15.7927 83.4274 15.5994 83.3724C14.9641 83.1802 14.674 82.7132 14.605 82.0883C14.5981 82.0402 14.6533 81.9853 14.7016 81.8892C14.7983 81.9372 14.8881 81.9853 14.9779 82.0334C14.9986 82.0471 15.0055 82.0814 15.0193 82.1089C15.4475 82.8162 16.0828 83.0428 16.8838 82.9329C17.7747 82.8093 18.6724 82.7201 19.5632 82.5827C19.8188 82.5415 20.0535 82.4111 20.2952 82.308C20.5646 82.1982 20.827 82.0746 21.0894 81.951L21.0756 81.9441Z" fill="black"/>
<path id="Vector_9" d="M24.2936 54.6065C24.2936 54.4348 24.2867 54.2632 24.3075 54.0984C24.3627 53.6039 24.342 53.1164 24.2936 52.6219C24.2384 52.0588 24.1003 51.537 23.6859 51.1181C23.6031 51.0357 23.5409 50.9327 23.4926 50.8297C23.2647 50.3284 22.878 49.9919 22.3808 49.7172C21.7316 49.5936 21.2068 49.9026 20.7096 50.2803C20.5231 50.4176 20.3643 50.5962 20.1848 50.7404C20.1019 50.8022 19.9845 50.8159 19.8464 50.8571C19.8119 50.5069 19.9776 50.294 20.1571 50.1223C20.4886 49.7996 20.8339 49.4837 21.2828 49.2983C21.9733 49.0099 22.7399 49.0923 23.2233 49.6348C24.3489 50.8846 24.929 52.3335 24.6735 54.0366C24.6389 54.2563 24.5353 54.4554 24.4663 54.6683C24.4041 54.6408 24.3489 54.6202 24.2936 54.6065Z" fill="black"/>
<path id="Vector_10" d="M8.41747 82.6102C7.99622 82.6239 7.64403 82.4248 7.35399 82.1433C6.80844 81.6076 6.40791 80.9965 6.23527 80.2205C5.97285 79.0119 6.09025 77.8514 6.53222 76.7252C6.66342 76.3887 6.93965 76.1003 7.11229 75.8531C7.55426 75.6951 7.82358 75.7638 7.9686 76.1209C7.85811 76.4299 7.58188 76.1689 7.34018 76.4024C7.0018 76.7801 6.78773 77.3363 6.7532 77.9612C6.71867 78.5724 6.68414 79.1767 6.64961 79.7879C6.6289 80.0831 6.67724 80.3647 6.82916 80.6256C7.19516 81.2574 7.6095 81.848 8.25864 82.2325C8.38985 82.3012 8.50724 82.3905 8.41747 82.6102Z" fill="black"/>
<path id="Vector_11" d="M0.178903 56.2271C0.254865 56.0142 0.275583 55.7464 0.413696 55.5885C0.910906 55.0323 1.33906 54.4005 1.9951 53.9885C2.3611 53.755 2.7271 53.5215 3.0931 53.2812C3.75605 52.8417 4.45352 52.9653 5.09575 53.2468C6.1316 53.6932 6.80146 54.531 7.25723 55.5404C7.32629 55.6984 7.40225 55.8632 7.2227 56.0348C6.89123 55.8975 6.7324 55.6022 6.53904 55.3138C6.10398 54.6546 5.57915 54.0777 4.85405 53.7069C4.29469 53.4185 3.74914 53.4048 3.17597 53.6451C2.18155 54.064 1.42883 54.7782 0.752075 55.5885C0.565621 55.8082 0.365356 56.0142 0.171997 56.2271H0.178903Z" fill="black"/>
<path id="Vector_12" d="M13.8384 65.2641C13.6451 65.6555 13.3619 65.6281 13.1133 65.6212C12.4504 65.6006 11.8151 65.5525 11.2074 65.1474C10.5582 64.7147 10.3165 64.1173 10.1232 63.4787C10.3856 62.4967 10.5582 62.3388 11.1521 62.5173C11.0485 62.7508 10.9449 62.9843 10.8275 63.2521C10.8621 63.4787 10.9035 63.7328 10.9311 63.9456C11.2695 64.4675 11.746 64.7422 12.2363 65.01C12.7197 65.2641 13.2722 65.0718 13.8384 65.2641Z" fill="black"/>
<path id="Vector_13" d="M8.68672 64.495C8.88007 64.3028 9.03891 64.3714 9.16321 64.5088C9.34276 64.7148 9.41872 64.962 9.42562 65.2298C9.43943 65.8959 9.50849 66.5689 9.46706 67.2281C9.398 68.4161 9.25298 69.6041 8.7834 70.7165C8.71434 70.8676 8.65909 71.053 8.38977 71.0324C8.50717 70.4693 8.60385 69.9131 8.75577 69.3637C8.9146 68.8007 8.98366 68.2307 8.99747 67.647C9.01819 66.8916 9.05272 66.1362 8.90079 65.3877C8.83864 65.0925 8.75577 64.7834 8.68672 64.495Z" fill="black"/>
<path id="Vector_14" d="M26.1996 64.2135C26.2065 64.0761 26.1788 63.9182 26.2341 63.8014C26.4205 63.3894 26.4896 62.9774 26.4205 62.531C26.3998 62.4143 26.386 62.2976 26.3998 62.1808C26.4827 61.4117 26.096 60.7799 25.7714 60.1344C25.5919 59.7842 25.2604 59.5851 24.8875 59.3928C24.6941 59.3928 24.4662 59.3997 24.2383 59.3997C24.0657 59.1319 24.1693 58.9465 24.335 58.761C24.9358 58.5688 25.3571 58.9053 25.7231 59.2829C26.4482 60.0177 26.8004 60.9173 26.8073 61.9473C26.8142 62.2976 26.8073 62.6478 26.7727 62.9911C26.7244 63.4581 26.6277 63.9113 26.2065 64.2135H26.1996Z" fill="black"/>
<path id="Vector_15" d="M13.2169 67.4822C12.9959 67.6676 12.8854 67.7912 12.7473 67.8667C12.0291 68.2719 11.5319 68.835 11.2902 69.6315C11.1383 70.126 10.9587 70.6135 10.7861 71.1217C10.5996 71.2659 10.4339 71.211 10.282 71.0256C10.2682 70.9706 10.2336 70.9088 10.2405 70.8607C10.427 69.7964 11.0485 68.9517 11.6976 68.1345C11.8496 67.9354 12.0982 67.7981 12.3191 67.6745C12.5401 67.5508 12.7542 67.3723 13.2169 67.4822Z" fill="black"/>
<path id="Vector_16" d="M9.93668 50.6168C9.85381 50.8571 9.78475 51.1043 9.68807 51.3447C9.51543 51.7429 9.29445 52.1206 9.14943 52.5258C8.90082 53.2194 8.88701 53.9335 8.96297 54.6614C8.97678 54.8262 8.98369 54.9911 8.9975 55.2039C8.61769 54.8743 8.32074 54.3318 8.35527 53.9473C8.3829 53.6039 8.45195 53.2606 8.56935 52.9378C8.7558 52.4228 9.01131 51.9352 9.21158 51.4271C9.3566 51.0494 9.57758 50.7747 9.95739 50.6374L9.93668 50.6168Z" fill="black"/>
<path id="Vector_17" d="M24.2521 55.0391C24.1969 55.1696 24.1416 55.3069 24.0795 55.4717C23.893 55.2383 23.9966 55.1215 24.2521 55.0391Z" fill="black"/>
<path id="Vector_18" d="M21.0963 81.1613C21.0065 81.0514 20.7994 80.9759 20.972 80.7767C21.1861 80.8523 21.1515 81.0033 21.0825 81.1613H21.0963Z" fill="black"/>
<path id="Vector_19" d="M21.0824 81.1544C21.0824 81.2849 21.0756 81.4154 21.0756 81.5458L21.0892 81.5527C21.0892 81.4222 21.0961 81.2918 21.0961 81.1613L21.0824 81.1544Z" fill="black"/>
<path id="Vector_20" d="M21.0756 81.5458C21.0756 81.6763 21.0756 81.8068 21.0756 81.9441L21.0892 81.951C21.0892 81.8205 21.0892 81.69 21.0892 81.5527L21.0756 81.5458Z" fill="black"/>
<path id="Vector_21" d="M19.2795 83.4343L19.3068 83.4961H19.2317L19.2795 83.4343Z" fill="black"/>
<path id="Vector_22" d="M0.164663 56.2271C0.151002 56.2614 0.144171 56.2958 0.13051 56.3301C0.123679 56.3095 0.116848 56.2889 0.123679 56.2752C0.13734 56.2546 0.157832 56.2408 0.178324 56.2271H0.164663Z" fill="black"/>
<path id="Vector_23" d="M23.7755 55.8769C23.7755 55.8563 23.7755 55.8288 23.7755 55.8082C23.7687 55.8288 23.7618 55.8494 23.7618 55.87L23.7755 55.8769Z" fill="black"/>
<path id="Vector_24" d="M23.7618 55.8769C23.7618 55.9044 23.7618 55.925 23.7618 55.9524C23.7687 55.9318 23.7755 55.9044 23.7755 55.8838L23.7618 55.8769Z" fill="black"/>
<path id="Vector_25" d="M46.9856 59.5851C46.9442 60.1756 46.6887 60.6014 46.3641 60.9585C45.8324 61.5353 45.2937 62.1053 44.6377 62.5585C43.8297 63.1285 42.5798 63.204 41.7304 62.7027C40.8672 62.1946 40.2595 60.9448 40.3562 59.8735C40.515 59.6675 40.7015 59.5782 40.9432 59.7293C40.9777 59.7842 41.026 59.8323 41.0398 59.8804C41.0744 60.0795 41.0813 60.2855 41.1296 60.4847C41.2056 60.7937 41.2746 61.1096 41.4127 61.3911C41.7304 62.0572 42.2552 62.3182 42.9941 62.2083C43.664 62.1053 44.2993 61.9061 44.8242 61.4392C45.4319 60.8898 46.0465 60.3611 46.6611 59.8254C46.7647 59.7362 46.882 59.6675 46.9856 59.5851Z" fill="black"/>
<path id="Vector_26" d="M49.8377 48.9C49.8516 48.6322 49.817 48.4605 49.8654 48.3094C50.2107 47.2519 50.1071 46.1875 50.0035 45.1163C49.8861 43.894 48.3806 42.6716 47.1721 42.6579C46.4194 42.651 45.7565 42.9738 45.2247 43.5163C45.1004 43.6399 45.0176 43.8047 44.8864 43.9146C44.7828 43.997 44.6309 44.0176 44.4582 44.0862C44.3546 43.9146 44.2787 43.7772 44.1958 43.6399C44.4168 43.1729 44.7206 42.8364 45.1557 42.6236C45.3905 42.5068 45.6322 42.3969 45.8601 42.2733C46.5852 41.8888 47.3241 41.9163 48.063 42.1909C48.795 42.4588 49.3889 42.912 49.8308 43.5643C49.962 43.7566 50.114 43.9352 50.2245 44.1412C50.335 44.3403 50.4593 44.5532 50.5007 44.7798C50.7493 46.1601 50.5905 47.4991 50.0449 48.7901C50.038 48.7901 49.9966 48.8039 49.8377 48.9Z" fill="black"/>
<path id="Vector_27" d="M43.8298 39.1076C43.9127 39.0184 43.961 38.9428 44.0301 38.8948C44.8311 38.3179 45.4112 37.5488 45.8601 36.6973C46.378 35.7153 46.4816 34.6716 46.1639 33.5797C45.9498 32.8381 45.5355 32.22 45.1626 31.5677C44.2994 30.984 43.5536 31.3548 42.8008 31.8011C42.7525 31.9797 42.718 32.1514 42.6765 32.3093C42.2622 32.5359 42.2622 32.5359 41.8755 32.3368C41.9031 32.2406 41.9031 32.117 41.9584 32.0346C42.4832 31.1968 43.3395 30.8741 44.2441 30.7505C44.9416 30.6612 45.4733 31.1213 45.8324 31.6707C46.1501 32.1582 46.4056 32.687 46.5161 33.2707C46.5437 33.4149 46.5852 33.5522 46.6266 33.6896C46.9443 34.7471 46.7854 35.7565 46.3297 36.7385C45.936 37.59 45.4872 38.4003 44.7621 39.0252C44.6516 39.1214 44.5411 39.2244 44.4099 39.2793C44.2165 39.3686 44.0093 39.3961 43.8298 39.1076Z" fill="black"/>
<path id="Vector_28" d="M53.1939 49.0099C52.9937 49.0305 52.7243 49.0236 52.4757 49.0786C52.234 49.1335 52.0269 49.3601 51.7644 49.2022C51.647 49.0305 51.6885 48.8726 51.8128 48.8039C52.089 48.646 52.3721 48.4674 52.676 48.3987C53.3044 48.2477 54.0364 48.6803 54.2781 49.3395C54.4231 49.7447 54.506 50.1636 54.4991 50.6168C54.4577 52.155 54.0295 53.6039 53.4218 54.9911C52.9384 56.0829 52.1995 57.0374 51.281 57.8272C51.0462 58.0263 50.7769 58.1087 50.4869 58.1636C50.3557 58.1842 50.2176 58.1293 49.9966 58.095C51.136 57.4083 51.8749 56.4538 52.6484 55.5336C53.0903 55.0117 53.3873 54.4211 53.5944 53.7825C53.9535 52.6632 54.14 51.5301 54.0364 50.349C53.9812 49.779 53.8776 49.5936 53.1939 49.0099Z" fill="black"/>
<path id="Vector_29" d="M36.4407 42.1566C36.4614 42.445 36.4821 42.6991 36.5028 42.9806C37.3039 43.9214 38.2776 43.9489 39.3756 43.4888C39.3341 43.633 39.3341 43.7429 39.2858 43.7841C38.8231 44.1686 38.2983 44.4227 37.6768 44.2991C37.2279 44.2098 36.7583 44.1755 36.3509 43.9008C35.8122 43.5369 35.6534 42.9944 35.5429 42.4244C35.5222 42.3283 35.6189 42.2184 35.6603 42.1154C35.7639 42.0879 35.8537 42.033 35.9296 42.0467C36.0954 42.0536 36.2611 42.1085 36.4407 42.1566Z" fill="black"/>
<path id="Vector_30" d="M34.8455 26.6097C35.3081 26.2663 35.8261 26.2938 36.3509 26.4174C36.8757 26.5341 37.3177 26.7745 37.6837 27.1865C38.098 27.6603 38.4088 28.1547 38.4157 28.8071C38.4226 29.0612 38.4986 29.3153 38.54 29.5282C38.4019 29.8303 38.2085 29.8784 37.9806 29.7891C37.8011 29.5213 37.8287 29.2466 37.8701 28.9994C38.0428 27.9419 36.6133 26.6165 35.6051 26.6852C35.3565 26.6989 35.0803 26.7745 34.8455 26.6028V26.6097Z" fill="black"/>
<path id="Vector_31" d="M25.9579 34.8845C25.9441 34.7677 25.8958 34.6441 25.9303 34.548C26.1858 33.7171 26.5932 33.0029 27.4288 32.6183C27.9053 32.3986 28.3749 32.1651 28.9135 32.1308C29.1621 32.117 29.3969 32.1514 29.5558 32.3368C29.6594 32.4604 29.7284 32.6321 29.7629 32.79C29.7975 32.9342 29.7353 33.0784 29.5143 33.1402C29.3831 32.9892 29.2381 32.8243 29.0378 32.5977C28.1263 32.4741 27.3874 32.8518 26.8142 33.5866C26.6001 33.8613 26.4758 34.1977 26.2894 34.493C26.1996 34.6372 26.0753 34.754 25.9648 34.8913L25.9579 34.8845Z" fill="black"/>
<path id="Vector_32" d="M29.2795 30.414C29.314 29.8852 29.4797 29.4045 29.749 28.9445C29.901 28.6904 30.1772 28.5599 30.3429 28.3539C30.5432 28.0998 30.778 28.0243 31.0335 27.9007C31.3373 27.7565 31.6757 27.6878 31.9589 27.468C32.166 27.3101 32.4975 27.317 32.8083 27.3307C32.5942 27.4406 32.387 27.5642 32.1729 27.6672C31.9381 27.7839 31.6964 27.8801 31.4686 28.0037C31.1923 28.1547 30.923 28.3196 30.6537 28.4912C30.1772 28.8071 29.8872 29.2603 29.6731 29.7754C29.5764 30.0157 29.5073 30.2767 29.2518 30.4071L29.2795 30.414Z" fill="black"/>
<path id="Vector_33" d="M25.9717 34.8913C25.8819 35.2484 25.7853 35.6055 25.7024 35.9694C25.6264 36.3196 25.5505 36.6767 25.4814 37.1917C25.2466 36.5462 25.2535 36.402 25.3778 35.7977C25.4538 35.4132 25.6057 35.0904 25.951 34.8844L25.9717 34.8913Z" fill="black"/>
<path id="Vector_34" d="M34.8454 26.6028C34.5002 26.747 34.1687 26.9049 33.8165 27.0286C33.6646 27.0835 33.485 27.0629 33.1674 27.0904C33.7612 26.6783 34.2585 26.4861 34.8454 26.6165V26.6028Z" fill="black"/>
<path id="Vector_35" d="M47.5519 66.871C47.4414 66.9259 47.3309 66.974 47.2205 67.029C47.2619 66.8435 47.3724 66.7886 47.5519 66.871Z" fill="black"/>
<path id="Vector_36" d="M29.2655 30.4071C29.2587 30.4415 29.2518 30.4758 29.2518 30.4689C29.2518 30.4758 29.2655 30.4483 29.2792 30.414L29.2655 30.4071Z" fill="black"/>
<path id="Vector_37" d="M48.8502 9.35974C48.7535 8.98892 48.9606 8.78291 49.1678 8.64557C50.0586 8.07561 50.984 7.58805 52.1096 7.67732C52.8693 7.73912 53.546 7.9932 54.0916 8.50823C54.865 9.22927 54.8788 9.99837 54.3816 10.7057C53.8222 11.4954 53.111 12.1409 52.2685 12.6353C52.2477 12.649 52.1787 12.5872 52.0751 12.5323C52.3859 12.189 52.6759 11.8387 53.0074 11.5229C53.3043 11.2413 53.5875 10.946 53.8292 10.6164C54.3402 9.93657 54.2297 9.31167 53.5667 8.79664C52.7242 8.15114 51.8196 8.06874 50.8459 8.46703C50.3832 8.65244 49.9413 8.85158 49.5476 9.16746C49.4164 9.27047 49.2369 9.3254 49.0711 9.38721C49.0159 9.40781 48.9537 9.37347 48.8502 9.35974Z" fill="black"/>
<path id="Vector_38" d="M21.0065 21.0543C20.972 21.0955 20.9443 21.171 20.9029 21.1847C20.1226 21.3839 19.4044 21.1023 19.0177 20.45C18.7207 19.9555 18.5895 19.4131 18.7276 18.8568C19.0936 17.3461 19.943 16.1718 21.3103 15.3958C21.407 15.3409 21.5313 15.3134 21.6418 15.286C21.7799 15.2516 21.8835 15.3203 22.1321 15.6156C21.9595 16.1512 21.6971 16.5976 21.0065 16.6113C20.6612 16.6182 20.3919 16.8105 20.2192 17.0989C19.9292 17.5727 19.6323 18.0396 19.4182 18.5409C19.2455 18.9461 19.2594 19.3993 19.3837 19.8251C19.5356 20.3401 19.9016 20.6491 20.4264 20.7865C20.6198 20.8345 20.7993 20.9169 20.9858 20.9856C20.9927 20.9856 20.9927 21.0268 21.0065 21.0543Z" fill="black"/>
<path id="Vector_39" d="M24.2314 14.668C24.0381 14.6199 23.9138 14.5924 23.7618 14.5512C23.8033 13.9332 23.8792 13.3632 24.2107 12.8619C24.7217 12.0791 25.3294 11.3649 26.0407 10.7675C27.0904 9.87478 28.3334 9.39408 29.7284 9.38722C30.4811 9.38035 31.2338 9.45589 31.9865 9.50396C32.097 9.51082 32.2075 9.55889 32.318 9.59323C32.3594 9.68937 32.4009 9.7649 32.4147 9.84731C32.4285 9.92971 32.4078 10.019 32.4078 10.1083C31.8346 10.0052 31.3512 9.87478 30.8678 9.84044C29.7284 9.75804 28.5958 9.79237 27.5393 10.3211C27.118 10.534 26.7313 10.7881 26.386 11.104C26.1305 11.3443 25.8957 11.6053 25.6264 11.825C25.0463 12.3057 24.7079 12.9443 24.4386 13.6242C24.3212 13.9057 24.3074 14.2353 24.2314 14.668Z" fill="black"/>
<path id="Vector_40" d="M47.0754 10.9186C46.9649 10.8568 46.9166 10.8293 46.8475 10.7881C46.8337 10.7194 46.813 10.6439 46.8061 10.5615C46.7923 10.3005 46.8337 10.0327 46.7716 9.7855C46.5022 8.72798 45.9774 8.20609 44.8863 8.17862C44.175 8.15802 43.5052 8.28849 42.9113 8.75545C42.4348 9.13314 41.9031 9.42842 41.4266 9.73744C41.0606 9.65503 41.0122 9.46275 41.1227 9.13314C41.7511 8.70738 42.4417 8.26789 43.1875 7.95201C43.6364 7.75973 44.1405 7.71167 44.6239 7.60179C45.5838 7.38205 46.7301 8.03442 47.0685 9.0164C47.2066 9.42842 47.2964 9.85418 47.3793 10.2799C47.4207 10.4585 47.3862 10.4791 47.0754 10.9186Z" fill="black"/>
<path id="Vector_41" d="M15.9308 21.6723C16.5178 21.9882 16.5178 21.9882 16.3866 22.5581C16.2001 22.5032 16.0137 22.4551 15.8134 22.4002C15.2264 22.7024 14.8397 23.1899 14.5704 23.7805C14.4116 24.1238 14.2666 24.474 14.1423 24.8243C13.9834 25.2569 14.018 25.3805 14.3563 25.8406C14.8397 26.0947 15.3231 25.6552 15.8687 25.8406C15.8341 25.9436 15.8341 26.0741 15.7651 26.1221C15.3853 26.4243 14.9226 26.5273 14.453 26.5204C13.8039 26.5067 13.279 26.0809 13.4517 25.3187C13.5346 24.9547 13.7141 24.6114 13.8246 24.2612C14.0732 23.5058 14.5083 22.8603 15.0193 22.256C15.2541 21.9813 15.5027 21.7547 15.9308 21.6723Z" fill="black"/>
<path id="Vector_42" d="M38.9957 12.5872C38.9612 12.2507 38.9405 11.9074 38.8991 11.564C38.8231 11.0215 38.7609 10.4722 38.6436 9.93656C38.5331 9.44213 38.2568 9.03011 37.808 8.71423C37.1657 8.57002 36.6409 8.8859 36.1368 9.24299C35.9227 9.39406 35.7501 9.59321 35.536 9.74428C35.4669 9.79235 35.3357 9.75115 35.1631 9.75801C35.315 9.21552 35.612 8.8859 36.0194 8.63869C36.268 8.48762 36.5304 8.35714 36.7997 8.2404C37.9737 7.73224 38.4502 8.2404 38.83 9.07131C39.3203 10.1288 39.4239 11.1383 39.3272 12.2988C39.3203 12.4018 39.2443 12.5048 39.1891 12.601C39.1753 12.6284 39.0855 12.601 38.9957 12.5872Z" fill="black"/>
<path id="Vector_43" d="M24.4248 21.7478C24.9842 21.1573 25.5435 20.5736 26.1029 19.983C26.5172 19.5367 26.9385 19.0972 27.3321 18.6302C27.4978 18.4379 27.6083 18.1907 27.705 17.9504C27.8086 17.6963 27.9467 17.4903 28.1815 17.353C28.3541 17.2568 28.513 17.2637 28.658 17.4285C28.7616 17.7306 28.6235 17.9916 28.4508 18.2319C27.781 19.1521 27.0628 20.0242 26.1305 20.7041C25.6609 21.0474 25.2328 21.4388 24.777 21.8028C24.701 21.8646 24.5905 21.8715 24.4939 21.9058C24.4662 21.844 24.4455 21.7959 24.4248 21.7478Z" fill="black"/>
<path id="Vector_44" d="M11.152 31.5471C11.1106 31.6844 11.0968 31.7325 11.083 31.7805C11.0277 31.808 10.9725 31.8561 10.9242 31.8492C10.1783 31.7874 9.90902 31.2518 9.69495 30.5651C9.95736 29.3771 10.3303 28.1616 11.0554 27.0835C11.152 26.9393 11.2763 26.8088 11.4007 26.6852C11.518 26.5685 11.6562 26.4723 11.7667 26.3762C12.0636 26.5135 11.9669 26.6921 11.8771 26.8363C11.67 27.1865 11.4076 27.5024 11.2211 27.8595C10.9173 28.4569 10.6272 29.0612 10.3993 29.6861C10.2957 29.9745 10.3096 30.3179 10.3441 30.6337C10.3648 30.8123 10.5167 30.9908 10.6479 31.135C10.786 31.2861 10.9656 31.396 11.152 31.5471Z" fill="black"/>
<path id="Vector_45" d="M50.3833 17.1195C49.8239 17.092 49.7963 16.6044 49.527 16.3778C49.2438 16.1443 48.9676 15.8971 48.6569 15.6225C48.7052 15.5332 48.7328 15.4096 48.8157 15.3546C48.8986 15.2997 49.0298 15.3134 49.1403 15.3203C49.1955 15.3203 49.2507 15.3546 49.2922 15.3958C49.748 15.801 50.1692 16.2267 50.3971 16.8104C50.4247 16.8722 50.3971 16.9615 50.3833 17.1195Z" fill="black"/>
<path id="Vector_46" d="M17.4501 22.3865C17.5468 22.2285 17.6089 22.0568 17.7263 21.9607C17.8161 21.8852 17.9818 21.892 18.0923 21.8646C18.3202 22.1186 18.258 22.3247 18.0716 22.4963C17.8989 22.6474 17.7056 22.6337 17.4501 22.3865Z" fill="black"/>
<path id="Vector_47" d="M31.075 47.5815C31.0197 47.4717 30.9714 47.3618 30.9161 47.2519C31.1164 47.2931 31.1647 47.403 31.075 47.5815Z" fill="black"/>
</g>
</g>
<defs>
<clipPath id="clip0_27_312">
<rect width="73" height="93" fill="white" transform="translate(-10)"/>
</clipPath>
</defs>
</svg>
