<svg width="29" height="29" viewBox="0 0 29 29" fill="none" xmlns="http://www.w3.org/2000/svg">
<g id="healthicons:agriculture-outline">
<g id="Group">
<path id="Vector" fill-rule="evenodd" clip-rule="evenodd" d="M25.0077 4.4777L24.4192 4.38409L24.2647 3.80809L25.1526 3.56958L25.0077 4.4777ZM17.125 12.7242L16.6175 13.0366L16.6163 13.0354L16.6145 13.0324L16.6086 13.0229L16.5883 12.9889C16.5716 12.9603 16.5466 12.9185 16.5168 12.8655C16.4332 12.7195 16.3527 12.5718 16.2753 12.4225C16.0302 11.953 15.8163 11.468 15.6349 10.9705C15.4333 10.4076 15.2604 9.76307 15.2336 9.13937C15.2073 8.51805 15.323 7.84367 15.7857 7.31477C16.2013 6.84014 16.9848 6.40307 17.8083 6.02503C18.6616 5.63209 19.6657 5.25524 20.6167 4.92908C21.7948 4.52676 22.9847 4.16009 24.1848 3.82956L24.2445 3.81286L24.2653 3.8069L24.4204 4.38349L25.0089 4.47711L25.0053 4.49917L24.9952 4.56238C24.9356 4.92818 24.8732 5.29351 24.8079 5.65833C24.6491 6.55548 24.4758 7.45001 24.288 8.34156C24.0757 9.34389 23.8289 10.3945 23.5671 11.274C23.4509 11.6763 23.3142 12.0723 23.1575 12.4606C23.0215 12.7886 22.8605 13.107 22.6649 13.3312C22.2463 13.8094 21.5946 13.959 21.0252 13.9972C20.4313 14.0372 19.773 13.965 19.1809 13.8601C18.6529 13.7649 18.1299 13.6435 17.6139 13.4963C17.4028 13.4369 17.1929 13.3733 16.9842 13.3055L16.9467 13.2924L16.9365 13.2888L16.9336 13.2882H16.9324L17.1256 12.7236L17.125 12.7242ZM17.125 12.7242L16.6175 13.0366L16.7296 13.2185L16.9324 13.2882L17.125 12.7242ZM17.5257 12.2275C18.1361 12.418 18.7576 12.5713 19.3866 12.6866C19.9376 12.7838 20.4885 12.8386 20.9453 12.8076C21.4277 12.7754 21.6698 12.6574 21.7669 12.5465C21.829 12.4749 21.9303 12.3056 22.0555 12.0039C22.1963 11.654 22.3191 11.2972 22.4234 10.9347C22.6721 10.1 22.9112 9.08451 23.1211 8.09529C23.3225 7.13823 23.507 6.17769 23.6744 5.2141L23.4902 5.26777C22.8289 5.46275 21.9357 5.73763 21.0037 6.05723C20.0699 6.37743 19.1082 6.73937 18.3062 7.10846C17.4738 7.49127 16.9121 7.8389 16.6831 8.10066C16.5001 8.30936 16.4059 8.63075 16.4255 9.08809C16.4446 9.54305 16.5752 10.06 16.7577 10.5674C16.9665 11.1414 17.2234 11.6967 17.5257 12.2275ZM6.11954 5.97852L5.96511 6.55452L5.37599 6.64814L5.23169 5.74061L6.12014 5.97912L6.11954 5.97852ZM11.8927 13.3324L12.4001 13.6442L12.4013 13.643L12.4025 13.6406L12.4072 13.6329L12.4245 13.6043C12.5144 13.4511 12.6003 13.2956 12.6821 13.138C12.8395 12.8351 13.0405 12.4123 13.2086 11.9448C13.3744 11.4821 13.5187 10.9461 13.5408 10.4237C13.5634 9.9032 13.4668 9.32242 13.0649 8.86329C12.7096 8.45664 12.0519 8.0941 11.384 7.78642C10.6858 7.46503 9.86593 7.15736 9.09137 6.89201C8.13203 6.56437 7.16305 6.2657 6.18573 5.99641L6.13683 5.98329L6.11954 5.97852L5.96511 6.55452L5.37599 6.64814L5.37897 6.66603L5.38732 6.7179L5.41952 6.91229C5.58041 7.87678 5.76152 8.83778 5.96272 9.79467C6.13564 10.6104 6.33718 11.4672 6.55065 12.1857C6.65798 12.5447 6.77007 12.8792 6.88754 13.1612C6.99904 13.4296 7.13559 13.7032 7.30732 13.8988C7.67701 14.3222 8.24525 14.4474 8.71571 14.4784C9.21181 14.5118 9.75621 14.4516 10.2422 14.3663C10.8523 14.2568 11.4541 14.1045 12.0429 13.9107L12.0733 13.9006L12.0823 13.8976L12.0853 13.8964L11.8927 13.3324ZM11.8927 13.3324L12.4001 13.6442L12.288 13.8267L12.0853 13.8964L11.8927 13.3324ZM11.4914 12.8351C11.7244 12.421 11.9232 11.9887 12.0859 11.5424C12.2319 11.1351 12.3345 10.7266 12.3494 10.3725C12.3649 10.0159 12.2898 9.78811 12.1675 9.64799C11.9988 9.45599 11.5635 9.1817 10.8856 8.86985C10.2392 8.57231 9.46165 8.27954 8.70438 8.02016C8.04471 7.79496 7.38031 7.58383 6.71164 7.38692L6.71402 7.40183C6.81539 7.97425 6.95969 8.74702 7.12963 9.54782C7.29957 10.3504 7.49335 11.1715 7.6937 11.8459C7.79447 12.1833 7.89345 12.4749 7.98886 12.7039C8.09022 12.9466 8.16655 13.07 8.20471 13.1141C8.2536 13.1696 8.41162 13.2632 8.79562 13.2888C9.15398 13.3127 9.59164 13.2698 10.0353 13.1916C10.5276 13.1029 11.0139 12.9842 11.4914 12.8351ZM10.1855 18.5199C10.0341 18.5283 9.96014 18.5498 9.94106 18.5581C9.67094 18.6803 8.85047 18.9665 8.1421 19.208C7.77837 19.3327 7.42955 19.4495 7.17196 19.536L7.15527 19.542V22.7636C7.26021 22.7588 7.37291 22.7547 7.48799 22.7505C7.9817 22.7326 8.56903 22.7147 8.82364 22.7255C9.89216 22.7678 10.6947 23.0206 11.4377 23.2549L11.4538 23.2603C12.1502 23.4797 12.7954 23.6813 13.6403 23.7451C13.8788 23.763 14.1108 23.7862 14.3272 23.8077H14.3302C15.1614 23.8912 15.7088 23.9329 16.1328 23.7791C16.4625 23.6592 17.67 23.0993 18.8875 22.4869C19.4898 22.184 20.0801 21.8758 20.5494 21.6116C20.7849 21.4792 20.9846 21.3612 21.1379 21.2622C21.2142 21.2127 21.275 21.171 21.3215 21.137C21.3398 21.1236 21.3577 21.1097 21.3752 21.0952L21.3919 21.0809C21.4515 21.0207 21.5147 20.8108 21.4122 20.6135C21.3639 20.5212 21.2841 20.4492 21.1874 20.4107C21.0681 20.3588 20.8654 20.3189 20.5434 20.372C19.8171 20.4912 18.9496 20.8406 18.0832 21.193L18.0712 21.1984C17.6455 21.3713 17.2186 21.5448 16.8399 21.6712C16.4762 21.7923 16.0725 21.9008 15.7207 21.8799C15.2378 21.8501 14.3904 21.7249 13.6916 21.6116C13.29 21.5467 12.8889 21.4787 12.4883 21.4077L12.4108 21.394L12.3834 21.3886L12.4967 20.2056L15.2217 20.2384H15.2276C15.2594 20.235 15.2909 20.229 15.3218 20.2205C15.416 20.1967 15.5776 20.1376 15.781 19.9939C15.8436 19.9492 15.9259 19.8669 16.0028 19.7566C16.0325 19.7134 16.0596 19.6684 16.0839 19.6219C15.7516 19.6007 15.4215 19.5541 15.0964 19.4823C14.9194 19.4438 14.7438 19.399 14.5699 19.3482L14.5497 19.3422L11.2123 18.5992L11.1807 18.5939C11.003 18.5644 10.8242 18.5425 10.6447 18.5283C10.492 18.5156 10.3386 18.5128 10.1855 18.5199ZM11.3292 18.0149L11.4371 17.4288L11.4478 17.4305L14.8573 18.189L14.8824 18.1968L14.8871 18.1985L14.9098 18.2051L15.004 18.2319C15.0869 18.2546 15.2061 18.2856 15.3481 18.3166C15.6379 18.3792 16.0004 18.4371 16.3355 18.4371C16.6712 18.4371 17.0361 18.5623 17.2329 18.9188C17.401 19.2241 17.3593 19.5545 17.3003 19.7727C17.2455 19.9657 17.1638 20.1499 17.0576 20.3201C17.2388 20.2485 17.4314 20.171 17.6336 20.0887L17.6705 20.0732C18.4922 19.7393 19.4773 19.3386 20.3496 19.1949C21.3633 19.0292 22.1235 19.3929 22.4711 20.0655C22.7776 20.6588 22.7097 21.4411 22.2416 21.9169C22.1241 22.0362 21.9494 22.1572 21.7824 22.2651C21.5698 22.3997 21.3535 22.5284 21.1337 22.6509C20.6418 22.9276 20.033 23.2454 19.4224 23.5525C18.2167 24.1589 16.9467 24.7522 16.5388 24.9001C15.8316 25.1565 15.0136 25.0748 14.2867 25.002L14.211 24.9943C13.991 24.9717 13.7708 24.9518 13.5503 24.9347C12.5605 24.8595 11.802 24.6204 11.1092 24.4022L11.0942 24.3974C10.3489 24.1625 9.6775 23.9532 8.77594 23.9168C8.57798 23.9091 8.04491 23.9234 7.53092 23.9424C7.24148 23.9529 6.95209 23.9647 6.66275 23.9776L6.58583 23.9812L5.96212 24.0098V18.6815L6.48506 18.508C6.90938 18.367 7.33313 18.2243 7.75631 18.0799C8.49807 17.8265 9.2458 17.5635 9.44973 17.4717C9.66856 17.3727 9.9172 17.3405 10.1164 17.3286C10.328 17.3167 10.5457 17.3256 10.7359 17.3399C10.9649 17.3578 11.1929 17.3863 11.4192 17.4252L11.4317 17.4276H11.4353L11.4365 17.4282H11.4377L11.3292 18.0149Z" fill="#93CE20"/>
<path id="Vector_2" fill-rule="evenodd" clip-rule="evenodd" d="M20.959 7.92589C21.0185 7.97679 21.0674 8.03891 21.1029 8.10871C21.1384 8.1785 21.1599 8.25461 21.1659 8.33268C21.172 8.41075 21.1627 8.48926 21.1384 8.56372C21.1142 8.63818 21.0755 8.70713 21.0246 8.76664C19.2471 10.8405 17.0343 13.8797 16.0576 16.35C16.0288 16.4229 15.986 16.4893 15.9315 16.5456C15.877 16.6018 15.8119 16.6468 15.7401 16.6779C15.6682 16.709 15.5909 16.7257 15.5126 16.7269C15.4343 16.7282 15.3565 16.714 15.2837 16.6851C15.2109 16.6563 15.1444 16.6135 15.0882 16.559C15.0319 16.5045 14.987 16.4394 14.9558 16.3676C14.9247 16.2957 14.9081 16.2184 14.9068 16.1401C14.9056 16.0618 14.9198 15.984 14.9486 15.9112C15.9998 13.2524 18.3181 10.0916 20.1183 7.99089C20.2212 7.87087 20.3676 7.79666 20.5253 7.78458C20.683 7.7725 20.839 7.82355 20.959 7.92649V7.92589ZM9.17069 9.83874C9.1092 9.88727 9.05788 9.94745 9.01966 10.0158C8.98143 10.0842 8.95705 10.1594 8.94792 10.2372C8.93878 10.315 8.94506 10.3939 8.96641 10.4692C8.98775 10.5446 9.02374 10.615 9.07231 10.6765C10.4092 12.3729 11.8688 14.5439 12.5617 16.3447C12.6212 16.4884 12.7345 16.6032 12.8774 16.6646C13.0203 16.7259 13.1816 16.729 13.3268 16.6731C13.472 16.6173 13.5895 16.5069 13.6545 16.3656C13.7194 16.2242 13.7265 16.0631 13.6743 15.9166C12.9165 13.9465 11.368 11.6621 10.0085 9.93832C9.91063 9.81413 9.76748 9.73387 9.61049 9.7152C9.4535 9.69653 9.29493 9.74096 9.17069 9.83874Z" fill="#93CE20"/>
<path id="Vector_3" d="M3.57764 17.3232H7.15528V25.0748H3.57764V17.3232Z" fill="#93CE20"/>
</g>
</g>
</svg>
